<svg id="Main" xmlns="http://www.w3.org/2000/svg" viewBox="0 0 239.99 225.02">
    <title>join-us</title>
    <path d="M1789.24,769.65c29.16,25.24,49,59.69,53.68,98,0.08,0.92,1.55,1,1.47,0-2.4-38.82-22-76.72-53.83-99.74a1.08,1.08,0,0,0-1.31,1.69h0Z" transform="translate(-1604.41 -759.9)" fill="#fff" />
    <path d="M1620.08,833.94s0.31-.61.85-1.84,1.47-3,2.63-5.22a160.88,160.88,0,0,1,11.52-19,140,140,0,0,1,10-12.43c1.93-2.15,4-4.37,6.27-6.52s4.72-4.37,7.35-6.44a106.63,106.63,0,0,1,17.94-11.89,92,92,0,0,1,22.51-8.29,91,91,0,0,1,26.07-2.22,103.35,103.35,0,0,1,27.54,5.29,113.8,113.8,0,0,1,13.54,5.52c1.16,0.54,2.17,1.07,3.33,1.69s2.17,1.07,3.25,1.76c2.24,1.23,4.33,2.53,6.5,3.91a111.51,111.51,0,0,1,23.36,20.18A111.79,111.79,0,0,1,1819,921.63c-0.62,1.3-1.24,2.46-1.93,3.76l-1,1.76L1815,929c-1.47,2.46-2.94,4.83-4.56,7.14s-3.25,4.53-5,6.75-3.64,4.3-5.57,6.37a116.66,116.66,0,0,1-26.22,20.64,113.59,113.59,0,0,1-30.63,12,116.14,116.14,0,0,1-32,2.84,111.68,111.68,0,0,1-30.48-5.83,116.41,116.41,0,0,1-13.85-5.75c-1.08-.54-2.17-1.07-3.33-1.69s-2.09-1.15-3.17-1.76c-2.17-1.23-4.18-2.53-6.19-3.84a110.48,110.48,0,0,1-21.12-18.26,115.86,115.86,0,0,1-15-21.25,110.29,110.29,0,0,1-9-22,114.26,114.26,0,0,1-3.94-21.1,108.32,108.32,0,0,1,2.48-34.52,110.12,110.12,0,0,1,7.35-21c1.08-2.3,2-4.07,2.63-5.22s0.93-1.76.93-1.76-0.31.61-.85,1.84-1.39,3-2.4,5.29a112.38,112.38,0,0,0-6.42,21.1,108.86,108.86,0,0,0,48,112.93,109.89,109.89,0,0,0,54.68,17.34,107.73,107.73,0,0,0,30.4-3,109.66,109.66,0,0,0,29-11.58A105.08,105.08,0,0,0,1795.35,945c1.86-1.92,3.56-3.91,5.26-6s3.25-4.22,4.8-6.37a76.37,76.37,0,0,0,4.25-6.75l1-1.69,1-1.76c0.62-1.15,1.24-2.38,1.86-3.53a105.81,105.81,0,0,0,10-61.68,110.24,110.24,0,0,0-8.59-29.84,106.44,106.44,0,0,0-16.32-25.62,110.19,110.19,0,0,0-22-19.56c-2-1.3-4.1-2.61-6.11-3.84-1-.61-2.09-1.15-3.17-1.76s-2.09-1.07-3.17-1.61a125.59,125.59,0,0,0-12.92-5.52,101.69,101.69,0,0,0-13.15-3.68,98.52,98.52,0,0,0-13.15-1.84,93.79,93.79,0,0,0-25.14,1.61,92.46,92.46,0,0,0-22,7.52,101.88,101.88,0,0,0-17.87,11.12,130.9,130.9,0,0,0-24.06,24.4,164.27,164.27,0,0,0-12.22,18.49c-1.24,2.22-2.24,3.91-2.86,5.14A16.69,16.69,0,0,1,1620.08,833.94Z" transform="translate(-1604.41 -759.9)" fill="#fff" />
    <path d="M1667.27,831.83c0,5.05-3.16,8-8.68,8h-4.31V846h-4.9V824.3h9.21C1664.11,824.3,1667.27,827,1667.27,831.83Zm-4.65.16c0-2.42-1.55-3.63-4.28-3.63h-4.06v7.35h4.06C1661.07,835.71,1662.62,834.47,1662.62,832Z" transform="translate(-1604.41 -759.9)" fill="#fff" />
    <path d="M1672.51,827.43l-3.63-5h3.84l1.92,2.85,1.92-2.85h3.84l-3.63,5h-4.28Zm8.09,1.71v4.5c-3.41-.31-5.52,1.52-5.52,4.34v8h-4.77V829.32h4.77v3A6.07,6.07,0,0,1,1680.6,829.13Z" transform="translate(-1604.41 -759.9)" fill="#fff" />
    <path d="M1688.16,824.54a2.57,2.57,0,1,1-2.57-2.67A2.52,2.52,0,0,1,1688.16,824.54Zm-0.19,4.78V846h-4.78V829.32H1688Z" transform="translate(-1604.41 -759.9)" fill="#fff" />
    <path d="M1709,823v23h-4.74v-2.45a6.09,6.09,0,0,1-5.27,2.64c-4.74,0-7.88-3.44-7.88-8.59s3.1-8.46,7.75-8.46a6.28,6.28,0,0,1,5.4,2.64V823H1709Zm-4.74,14.73c0-2.73-1.71-4.62-4.16-4.62s-4.19,1.92-4.22,4.62,1.71,4.62,4.22,4.62S1704.29,840.45,1704.29,837.72Z" transform="translate(-1604.41 -759.9)" fill="#fff" />
    <path d="M1729.15,839.12h-12a4.26,4.26,0,0,0,4.31,3.35,5.92,5.92,0,0,0,4.22-1.77l2.51,2.54a9.3,9.3,0,0,1-7.13,2.95c-5.33,0-8.71-3.41-8.71-8.46s3.5-8.56,8.59-8.56C1726.82,829.16,1729.55,833,1729.15,839.12Zm-4.46-2.82a3.48,3.48,0,0,0-3.69-3.63c-2.11,0-3.54,1.43-3.91,3.63h7.6Z" transform="translate(-1604.41 -759.9)" fill="#fff" />
    <path d="M1731.28,852.23a7.24,7.24,0,0,1-3.94-1.12l1.3-3.5a3.76,3.76,0,0,0,2,.65,1.69,1.69,0,0,0,1.77-2v-17h4.74V846.5C1737.11,850.28,1734.42,852.23,1731.28,852.23Zm6.2-27.66a2.6,2.6,0,0,1-2.76,2.67,2.67,2.67,0,1,1,0-5.33A2.58,2.58,0,0,1,1737.48,824.58Z" transform="translate(-1604.41 -759.9)" fill="#fff" />
    <path d="M1754.75,832.61c-1.12,0-1.92.37-1.92,1.24,0,2.51,8.81,1.24,8.77,7.13,0,3.41-3,5.21-6.79,5.21a11.64,11.64,0,0,1-7.22-2.33l1.55-3.22a10,10,0,0,0,5.8,2.08c1.21,0,2.11-.4,2.11-1.3,0-2.67-8.65-1.24-8.65-7.1,0-3.44,2.95-5.21,6.57-5.21a12.45,12.45,0,0,1,6.51,1.86l-1.64,3.26A11.28,11.28,0,0,0,1754.75,832.61Z" transform="translate(-1604.41 -759.9)" fill="#fff" />
    <path d="M1780.14,839.12h-12a4.26,4.26,0,0,0,4.31,3.35,5.92,5.92,0,0,0,4.22-1.77l2.51,2.54a9.3,9.3,0,0,1-7.13,2.95c-5.33,0-8.71-3.41-8.71-8.46s3.5-8.56,8.59-8.56C1777.82,829.16,1780.54,833,1780.14,839.12Zm-4.46-2.82a3.48,3.48,0,0,0-3.69-3.63c-2.11,0-3.54,1.43-3.91,3.63h7.6Z" transform="translate(-1604.41 -759.9)" fill="#fff" />
    <path d="M1674.31,876.41l-2.14,2.26v4.53h-4.78v-23h4.78v12.65l6.11-6.29h5.43l-6.11,6.42L1684,883.2h-5.64Z" transform="translate(-1604.41 -759.9)" fill="#fff" />
    <path d="M1710.55,872.72V883.2h-4.77v-9.08a3.1,3.1,0,0,0-3.29-3.41c-2.39,0-3.81,1.83-3.81,4.28v8.22h-4.77V866.52h4.77v2.92a6.23,6.23,0,0,1,5.77-3.1C1708.16,866.33,1710.55,868.81,1710.55,872.72Z" transform="translate(-1604.41 -759.9)" fill="#fff" />
    <path d="M1724.34,883.2v-2a6.42,6.42,0,0,1-5.24,2.17c-3.57,0-5.74-2.17-5.74-5.21s2.26-5,6.36-5h4.59v-0.31c0-1.77-1.18-2.79-3.47-2.79a10.56,10.56,0,0,0-5,1.46l-1.49-3.29a15.64,15.64,0,0,1,7.53-1.92c4.46,0,7,2.23,7.07,6l0,10.88h-4.68Zm0-5.71V876h-3.75c-1.83,0-2.73.56-2.73,1.89s1,2.11,2.6,2.11C1722.45,880,1724,878.92,1724.31,877.5Zm-1.46-13h-3.78l3.29-5.05,4.43,1.67Z" transform="translate(-1604.41 -759.9)" fill="#fff" />
    <path d="M1761.23,872.72V883.2h-4.74v-9.08a3.07,3.07,0,0,0-3.22-3.41c-2.29,0-3.69,1.83-3.69,4.25v8.25h-4.74v-9.08c0-2.14-1.24-3.41-3.19-3.41-2.33,0-3.72,1.83-3.72,4.25v8.25h-4.77V866.52h4.77v2.88a6.16,6.16,0,0,1,5.64-3.07,5.54,5.54,0,0,1,5.64,3.84,6.1,6.1,0,0,1,6-3.84C1758.91,866.33,1761.23,868.81,1761.23,872.72Z" transform="translate(-1604.41 -759.9)" fill="#fff" />
    <path d="M1648.55,924.19a4.25,4.25,0,0,1-3.55-2.13l0.73-1.34a3.61,3.61,0,0,0,2.8,1.77c1.41,0,2.2-1,2.2-2.91v-8.94h-4.58v-1.59h6.06v10.57C1652.22,922.56,1650.84,924.19,1648.55,924.19Z" transform="translate(-1604.41 -759.9)" fill="#fff" />
    <path d="M1661.58,924.13v-1.77a3.93,3.93,0,0,1-3.53,1.83,3.21,3.21,0,0,1-3.28-3.42c0-2,1.34-3.23,3.61-3.25h3.17v-0.71a2.38,2.38,0,0,0-2.58-2.67,4.79,4.79,0,0,0-3.06,1.31l-0.6-1.18a5.87,5.87,0,0,1,3.94-1.53c2.38,0,3.7,1.49,3.72,3.9l0,7.49h-1.39Zm0-3.9v-1.38h-3c-1.61,0-2.45.58-2.45,1.85a2,2,0,0,0,2.22,2.09A3.16,3.16,0,0,0,1661.56,920.23Z" transform="translate(-1604.41 -759.9)" fill="#fff" />
    <path d="M1669.71,918.38l-2,2.48v3.27h-1.43v-16h1.43v10.53l5-5.88h1.69l-3.61,4.37,4,7H1673Z" transform="translate(-1604.41 -759.9)" fill="#fff" />
    <path d="M1691.55,918.49c0,3.36-1.87,5.71-4.6,5.71a4,4,0,0,1-3.76-2.5v2.43h-1.43v-16h1.43v7.08a4,4,0,0,1,3.72-2.5C1689.64,912.74,1691.55,915.11,1691.55,918.49Zm-1.45,0c0-2.45-1.43-4.26-3.44-4.26s-3.46,1.79-3.46,4.26,1.43,4.26,3.46,4.26S1690.1,920.92,1690.1,918.44Z" transform="translate(-1604.41 -759.9)" fill="#fff" />
    <path d="M1693.93,928.37a2.77,2.77,0,0,1-2-.82l0.6-1.34a2.07,2.07,0,0,0,1.36.54,2,2,0,0,0,1.76-1.64L1696,924l-4-11.24h1.5l3.21,9.43,3.06-9.43h1.47l-4.43,12.94C1696.22,927.47,1695.21,928.37,1693.93,928.37Zm5.4-19.6-2.27,2.13h-1.37l2.2-2.91Z" transform="translate(-1604.41 -759.9)" fill="#fff" />
    <path d="M1707.92,923.35a3.5,3.5,0,0,1-2.18.84c-1.41,0-2.45-1-2.45-3.21v-6.52h-1.39v-1.31h1.39v-3h1.41v3h3.06v1.31h-3.06v6.24c0,1.38.46,1.94,1.28,1.94a3,3,0,0,0,1.54-.58Z" transform="translate(-1604.41 -759.9)" fill="#fff" />
    <path d="M1717.58,914.14c-1.08,0-1.9.45-1.9,1.53,0,2.56,5.38,1.25,5.38,5.32,0,2.22-1.69,3.21-3.53,3.21a5,5,0,0,1-3.7-1.59l0.55-1.23a4.5,4.5,0,0,0,3.21,1.44c1.14,0,2.05-.52,2.07-1.66,0.05-2.76-5.35-1.36-5.33-5.36,0-2.15,1.59-3.08,3.35-3.08a5.12,5.12,0,0,1,3.08,1L1720.2,915A4.54,4.54,0,0,0,1717.58,914.14Z" transform="translate(-1604.41 -759.9)" fill="#fff" />
    <path d="M1732.21,918.44c0,3.4-2,5.75-4.89,5.75s-4.89-2.35-4.89-5.75,2-5.71,4.89-5.71S1732.21,915.09,1732.21,918.44Zm-8.35,0c0,2.54,1.45,4.26,3.46,4.26s3.46-1.72,3.46-4.26-1.45-4.24-3.46-4.24S1723.86,916,1723.86,918.47Z" transform="translate(-1604.41 -759.9)" fill="#fff" />
    <path d="M1743.09,912.8v11.33h-1.43v-2.56a3.67,3.67,0,0,1-3.66,2.63c-2.25,0-3.61-1.68-3.61-4.41v-7h1.43v6.55c0,2,1,3.23,2.67,3.23,2,0,3.17-1.77,3.17-4.22V912.8h1.43Z" transform="translate(-1604.41 -759.9)" fill="#fff" />
    <path d="M1750.44,914.25c-2,0-3.43,1.72-3.43,4.22s1.43,4.24,3.43,4.24a3.53,3.53,0,0,0,3-1.46l0.82,1a4.56,4.56,0,0,1-3.86,2c-2.8,0-4.78-2.35-4.78-5.73s2-5.73,4.78-5.73a4.7,4.7,0,0,1,3.72,1.68l-0.79,1.16A3.71,3.71,0,0,0,1750.44,914.25Zm-1.76-6.16,1.32,2,1.32-2h1.34l-1.9,2.91h-1.5l-1.9-2.91h1.34Z" transform="translate(-1604.41 -759.9)" fill="#fff" />
    <path d="M1762.31,924.13v-1.77a3.93,3.93,0,0,1-3.53,1.83,3.21,3.21,0,0,1-3.28-3.42c0-2,1.34-3.23,3.61-3.25h3.17v-0.71a2.38,2.38,0,0,0-2.58-2.67,4.79,4.79,0,0,0-3.06,1.31l-0.6-1.18a5.87,5.87,0,0,1,3.94-1.53c2.38,0,3.7,1.49,3.72,3.9l0,7.49h-1.39Zm0-3.9v-1.38h-3c-1.61,0-2.45.58-2.45,1.85a2,2,0,0,0,2.22,2.09A3.16,3.16,0,0,0,1762.29,920.23Zm-2.11-9.32h-1.37L1761,908l1.45,0.78Z" transform="translate(-1604.41 -759.9)" fill="#fff" />
    <path d="M1769.37,914.14c-1.08,0-1.9.45-1.9,1.53,0,2.56,5.38,1.25,5.38,5.32,0,2.22-1.69,3.21-3.53,3.21a5,5,0,0,1-3.7-1.59l0.55-1.23a4.5,4.5,0,0,0,3.21,1.44c1.14,0,2.05-.52,2.07-1.66,0.05-2.76-5.35-1.36-5.33-5.36,0-2.15,1.59-3.08,3.35-3.08a5.12,5.12,0,0,1,3.08,1L1772,915A4.54,4.54,0,0,0,1769.37,914.14Z" transform="translate(-1604.41 -759.9)" fill="#fff" />
    <path d="M1780.17,923.35a3.5,3.5,0,0,1-2.18.84c-1.41,0-2.45-1-2.45-3.21v-6.52h-1.39v-1.31h1.39v-3H1777v3H1780v1.31H1777v6.24c0,1.38.46,1.94,1.28,1.94a3,3,0,0,0,1.54-.58Z" transform="translate(-1604.41 -759.9)" fill="#fff" />
    <path d="M1785.71,908.78l-2.27,2.13h-1.37l2.2-2.91Zm-2,4v11.33h-1.41V912.8h1.41Z" transform="translate(-1604.41 -759.9)" fill="#fff" />
    <path d="M1690.66,938.66a3.19,3.19,0,0,1-2.36,3.4,3.52,3.52,0,0,1,2.93,3.81c0,2.56-1.72,4.09-4.62,4.09h-5.49V934.89h5.4C1689.1,934.89,1690.66,936.29,1690.66,938.66Zm-1.48.26c0-1.55-1-2.43-2.73-2.43h-3.86v4.93h3.86C1688.17,941.42,1689.17,940.51,1689.17,938.92Zm0.57,6.74c0-1.68-1.21-2.65-3.3-2.65h-3.86v5.36h3.86C1688.53,948.37,1689.74,947.4,1689.74,945.66Z" transform="translate(-1604.41 -759.9)" fill="#fff" />
    <path d="M1697.77,942.84v1.23h-4.3v-1.23h4.3Z" transform="translate(-1604.41 -759.9)" fill="#fff" />
    <path d="M1704.6,936.51c-1.65,0-2.73.78-2.73,2.07,0,3.92,7.22,1.87,7.2,7.34,0,2.5-1.89,4.11-4.63,4.11a6.78,6.78,0,0,1-4.91-2.3l0.66-1.49a6,6,0,0,0,4.27,2.11c1.85,0,3-.88,3-2.35,0-4-7.2-1.9-7.2-7.3,0-2.37,1.78-3.88,4.43-3.88a6.79,6.79,0,0,1,4.07,1.4l-0.62,1.53A6,6,0,0,0,1704.6,936.51Z" transform="translate(-1604.41 -759.9)" fill="#fff" />
    <path d="M1724.29,942.43c0,4.24-3,7.6-6.7,7.6s-6.72-3.36-6.72-7.6,3-7.58,6.72-7.58S1724.29,938.19,1724.29,942.43Zm-11.94,0c0,3.34,2.38,6,5.24,6s5.2-2.69,5.2-6-2.34-6-5.2-6S1712.35,939.09,1712.35,942.43Z" transform="translate(-1604.41 -759.9)" fill="#fff" />
    <path d="M1732.08,948.46c2.44,0,3.9-1.72,3.9-4.7v-8.87h1.47v8.87c0,3.94-2,6.27-5.37,6.27s-5.4-2.33-5.4-6.27v-8.87h1.47v8.87C1728.14,946.74,1729.64,948.46,1732.08,948.46Z" transform="translate(-1604.41 -759.9)" fill="#fff" />
    <path d="M1742.5,934.89v13.48h5.62V950H1741V934.89h1.46Z" transform="translate(-1604.41 -759.9)" fill="#fff" />
    <path d="M1752.25,935.13a3.19,3.19,0,0,1,3.46,3.47c0,3.51-2.93,3.49-2.93,6.63h-1.14c0-3.57,2.73-3.45,2.73-6.42a2.05,2.05,0,0,0-2.25-2.22,2.18,2.18,0,0,0-2.29,2.39l-1.15,0C1748.77,936.51,1750.14,935.13,1752.25,935.13Zm0.82,13.91a0.91,0.91,0,1,1-.88-1.1A1,1,0,0,1,1753.07,949Z" transform="translate(-1604.41 -759.9)" fill="#fff" />
</svg>
