<svg id="Layer_1" data-name="Layer 1" xmlns="http://www.w3.org/2000/svg" viewBox="0 0 395.29 266.14"><title>show-more</title><path d="M273.27,217.57l79.6-60.94c14.81-11.48,29.65-23.31,42-44,0.77-1.45.47-5.68-.68-9.44-0.87-2.85-2-4.71-2.86-4.67h0c-30.28,2.39-55.75,29.4-82.13,48.82-26.66,19.61-53.3,39.29-80.08,58.45l-22,15.84c-7.13,4.92-17.65,5.08-21.4,21.56-1.11,5.45.47,16.14,3.52,23.89,1.34,3.4,2.81,5.81,4.14,6.8,8.5,5.95,14.66-5.16,20.89-10.09l19.39-15.28" transform="translate(0 -9.45)" fill="#fff"/><path d="M161.69,248.52l19.39,15.28c6.24,4.93,12.39,16,20.89,10.09,1.33-1,2.8-3.4,4.14-6.8,3.05-7.75,4.63-18.44,3.52-23.89-3.75-16.48-14.27-16.64-21.4-21.56l-22-15.84c-26.77-19.16-53.42-38.84-80.08-58.45C59.74,127.93,34.28,100.91,4,98.52H4c-0.85,0-2,1.82-2.86,4.67-1.15,3.76-1.45,8-.68,9.44,12.35,20.69,27.19,32.52,42,44L122,217.57" transform="translate(0 -9.45)" fill="#fff"/><path d="M104.9,16.43l20.2,55.83,20.3-55.83h17.24l-29.4,74H116l-29.08-74h18Z" transform="translate(0 -9.45)" fill="#fff"/><path d="M196.05,15.16L182.62,26.69h-12.9L180.93,9.45Zm-9.73,18.4V90.45H170V33.56h16.28Z" transform="translate(0 -9.45)" fill="#fff"/><path d="M226.93,46.88c-7.93,0-13.54,6.13-13.54,15.23s5.6,15.44,13.54,15.44c5.82,0,10.36-2.22,13.22-6.66l11.21,7.61c-4.76,7.93-13.64,12.58-25.27,12.58-17.24,0-29-11.63-29-28.87,0-17.45,11.74-29.19,29.18-29.19,10.89,0,19.56,4.34,24.64,11.95l-11,7.93A15.69,15.69,0,0,0,226.93,46.88Z" transform="translate(0 -9.45)" fill="#fff"/><path d="M311.95,67H271.13c1.9,7.19,7.4,11.42,14.7,11.42a20.17,20.17,0,0,0,14.38-6L308.78,81c-5.71,6.34-14.06,10-24.32,10-18.19,0-29.71-11.63-29.71-28.87C254.74,44.66,266.69,33,284,33,304,33,313.32,46.25,311.95,67Zm-15.23-9.62C296.51,49.84,291.64,45,284.14,45c-7.19,0-12.05,4.86-13.32,12.37h25.91Z" transform="translate(0 -9.45)" fill="#fff"/></svg>