<svg id="Main" xmlns="http://www.w3.org/2000/svg" viewBox="0 0 239.99 225.02">
    <title>join-us-hover</title>
    <path d="M1014.41,437.24c29.16,25.24,49,59.69,53.68,98,0.08,0.92,1.55,1,1.47,0-2.4-38.82-22-76.72-53.83-99.74a1.08,1.08,0,0,0-1.31,1.69h0Z" transform="translate(-829.57 -427.49)" fill="#a8835e" />
    <path d="M845.25,501.53s0.31-.61.85-1.84,1.47-3,2.63-5.22a160.88,160.88,0,0,1,11.52-19,140,140,0,0,1,10-12.43c1.93-2.15,4-4.37,6.27-6.52s4.72-4.37,7.35-6.44a106.63,106.63,0,0,1,17.94-11.89,92,92,0,0,1,22.51-8.29,91,91,0,0,1,26.07-2.22,103.35,103.35,0,0,1,27.54,5.29,113.8,113.8,0,0,1,13.54,5.52c1.16,0.54,2.17,1.07,3.33,1.69s2.17,1.07,3.25,1.76c2.24,1.23,4.33,2.53,6.5,3.91A111.51,111.51,0,0,1,1027.87,466a111.79,111.79,0,0,1,16.32,123.21c-0.62,1.3-1.24,2.46-1.93,3.76l-1,1.76-1.08,1.84c-1.47,2.46-2.94,4.83-4.56,7.14s-3.25,4.53-5,6.75-3.64,4.3-5.57,6.37a116.66,116.66,0,0,1-26.22,20.64,113.59,113.59,0,0,1-30.63,12,116.14,116.14,0,0,1-32,2.84,111.68,111.68,0,0,1-30.48-5.83,116.41,116.41,0,0,1-13.85-5.75c-1.08-.54-2.17-1.07-3.33-1.69s-2.09-1.15-3.17-1.76c-2.17-1.23-4.18-2.53-6.19-3.84A110.48,110.48,0,0,1,858,615.23,115.86,115.86,0,0,1,843,594a110.29,110.29,0,0,1-9-22,114.26,114.26,0,0,1-3.94-21.1,108.32,108.32,0,0,1,2.48-34.52,110.12,110.12,0,0,1,7.35-21c1.08-2.3,2-4.07,2.63-5.22s0.93-1.76.93-1.76-0.31.61-.85,1.84-1.39,3-2.4,5.29a112.38,112.38,0,0,0-6.42,21.1,108.86,108.86,0,0,0,48,112.93,109.89,109.89,0,0,0,54.68,17.34,107.73,107.73,0,0,0,30.4-3,109.66,109.66,0,0,0,29-11.58,105.08,105.08,0,0,0,24.75-19.64c1.86-1.92,3.56-3.91,5.26-6s3.25-4.22,4.8-6.37a76.37,76.37,0,0,0,4.25-6.75l1-1.69,1-1.76c0.62-1.15,1.24-2.38,1.86-3.53a105.81,105.81,0,0,0,10-61.68,110.24,110.24,0,0,0-8.59-29.84,106.44,106.44,0,0,0-16.32-25.62,110.19,110.19,0,0,0-22-19.56c-2-1.3-4.1-2.61-6.11-3.84-1-.61-2.09-1.15-3.17-1.76s-2.09-1.07-3.17-1.61a125.59,125.59,0,0,0-12.92-5.52,101.69,101.69,0,0,0-13.15-3.68,98.52,98.52,0,0,0-13.15-1.84,93.79,93.79,0,0,0-25.14,1.61,92.46,92.46,0,0,0-22,7.52,101.88,101.88,0,0,0-17.87,11.12A130.9,130.9,0,0,0,861,476.21a164.27,164.27,0,0,0-12.22,18.49c-1.24,2.22-2.24,3.91-2.86,5.14A16.69,16.69,0,0,1,845.25,501.53Z" transform="translate(-829.57 -427.49)" fill="#a8835e" />
    <path d="M858.85,516.88c-1.4,0-2.35.5-2.35,1.51,0,3.41,9.86,1.51,9.83,8.17,0,3.62-3.14,5.58-7.24,5.58a13,13,0,0,1-8.17-2.93l1.66-3.41a11,11,0,0,0,6.55,2.77c1.72,0,2.75-.63,2.75-1.77,0-3.49-9.86-1.45-9.86-8,0-3.36,2.88-5.47,7.16-5.47a13.22,13.22,0,0,1,7,2l-1.61,3.46A12.9,12.9,0,0,0,858.85,516.88Z" transform="translate(-829.57 -427.49)" fill="#fff" />
    <path d="M878,531.21a7.57,7.57,0,0,1-3.7,1c-2.54,0-4.47-1.45-4.47-4.39v-6.58h-2v-2.8h2V514.5h4v3.91h3.86v2.83h-3.86v5.87c0,1.19.5,1.67,1.37,1.64a4.73,4.73,0,0,0,1.9-.53Z" transform="translate(-829.57 -427.49)" fill="#fff" />
    <path d="M888.7,532v-1.67a5.47,5.47,0,0,1-4.47,1.85c-3,0-4.89-1.85-4.89-4.44s1.93-4.25,5.42-4.28h3.91V523.2c0-1.51-1-2.38-3-2.38a9,9,0,0,0-4.23,1.24l-1.27-2.8a13.33,13.33,0,0,1,6.42-1.64c3.81,0,6,1.9,6,5.1l0,9.28h-4Zm0-4.86v-1.27h-3.2c-1.56,0-2.33.48-2.33,1.61s0.85,1.8,2.22,1.8C887.08,529.28,888.43,528.35,888.67,527.14Z" transform="translate(-829.57 -427.49)" fill="#fff" />
    <path d="M902.44,521.11c-2,0-3.38,1.53-3.38,3.81s1.4,3.86,3.38,3.86a3.69,3.69,0,0,0,3.3-1.67l2.8,1.9c-1.19,2-3.41,3.15-6.32,3.15a7.25,7.25,0,1,1,.05-14.51,7.08,7.08,0,0,1,6.16,3l-2.75,2A3.92,3.92,0,0,0,902.44,521.11ZM900.19,512l1.64,2.43,1.64-2.43h3.28l-3.09,4.23H900L896.92,512h3.28Z" transform="translate(-829.57 -427.49)" fill="#fff" />
    <path d="M917.59,513.18l-3.36,2.88H911l2.8-4.31Zm-2.43,4.6V532h-4.07V517.78h4.07Z" transform="translate(-829.57 -427.49)" fill="#fff" />
    <path d="M931.46,526.21l-1.82,1.93V532h-4.07V512.39h4.07v10.78l5.21-5.36h4.63l-5.21,5.47,5.44,8.72H934.9Z" transform="translate(-829.57 -427.49)" fill="#fff" />
    <path d="M946,512.39V532h-4.07V512.39H946Z" transform="translate(-829.57 -427.49)" fill="#fff" />
    <path d="M954.3,513.71a2.19,2.19,0,1,1-2.19-2.27A2.14,2.14,0,0,1,954.3,513.71Zm-0.16,4.07V532h-4.07V517.78h4.07Z" transform="translate(-829.57 -427.49)" fill="#fff" />
    <path d="M964.08,526.21l-1.82,1.93V532h-4.07V512.39h4.07v10.78l5.21-5.36h4.63l-5.21,5.47,5.44,8.72h-4.81Z" transform="translate(-829.57 -427.49)" fill="#fff" />
    <path d="M988.61,523.07V532h-4.07v-7.74a2.64,2.64,0,0,0-2.8-2.91c-2,0-3.25,1.56-3.25,3.65v7h-4.07V517.78h4.07v2.48a5.31,5.31,0,0,1,4.92-2.64C986.57,517.62,988.61,519.74,988.61,523.07Z" transform="translate(-829.57 -427.49)" fill="#fff" />
    <path d="M1006.16,524.89c0,4.33-3.07,7.27-7.61,7.27s-7.64-2.93-7.64-7.27,3.07-7.24,7.64-7.24S1006.16,520.53,1006.16,524.89Zm-11.15.05c0,2.33,1.43,3.91,3.54,3.91s3.54-1.59,3.54-3.91-1.45-3.91-3.54-3.91S995,522.62,995,524.94Z" transform="translate(-829.57 -427.49)" fill="#fff" />
    <path d="M1022.36,517.78V532h-4v-2.51a5,5,0,0,1-4.76,2.67c-3.15,0-5.13-2.09-5.13-5.44v-8.93h4.07v7.77a2.57,2.57,0,0,0,2.67,2.88c2,0,3.14-1.56,3.14-3.62v-7h4Z" transform="translate(-829.57 -427.49)" fill="#fff" />
    <path d="M1035.1,531.21a7.57,7.57,0,0,1-3.7,1c-2.54,0-4.47-1.45-4.47-4.39v-6.58h-2v-2.8h2V514.5h4v3.91h3.86v2.83H1031v5.87c0,1.19.5,1.67,1.37,1.64a4.72,4.72,0,0,0,1.9-.53Z" transform="translate(-829.57 -427.49)" fill="#fff" />
    <path d="M928.74,545.22V548L918.4,560.23H928.9l0,3.49H912.77v-2.83l10.36-12.18h-10v-3.49h15.62Z" transform="translate(-829.57 -427.49)" fill="#fff" />
    <path d="M949.33,554.47c0,5.44-4,9.25-9.88,9.25h-7.69v-18.5h7.85C945.34,545.22,949.33,549,949.33,554.47Zm-4.25,0a5.46,5.46,0,0,0-5.55-5.76h-3.59V560.2h3.78C942.8,560.2,945.07,557.88,945.07,554.5Z" transform="translate(-829.57 -427.49)" fill="#fff" />
    <path d="M966.17,545.22v3.46h-9.91v4h8.93v3.46h-8.93v4.1h10.2v3.46H952.08v-18.5h14.09Z" transform="translate(-829.57 -427.49)" fill="#fff" />
    <path d="M973.09,561.84a2,2,0,1,1-4.07,0A2,2,0,1,1,973.09,561.84ZM973,545.35V550l-0.69,7.45h-2.48L969.18,550v-4.68H973Z" transform="translate(-829.57 -427.49)" fill="#fff" />
</svg>
