<svg id="Main" xmlns="http://www.w3.org/2000/svg" viewBox="0 0 239.99 225.02"><title>join-us</title><path d="M1789.24,769.65c29.16,25.24,49,59.69,53.68,98,0.08,0.92,1.55,1,1.47,0-2.4-38.82-22-76.72-53.83-99.74a1.08,1.08,0,0,0-1.31,1.69h0Z" transform="translate(-1604.41 -759.9)" fill="#fff"/><path d="M1620.08,833.94s0.31-.61.85-1.84,1.47-3,2.63-5.22a160.88,160.88,0,0,1,11.52-19,140,140,0,0,1,10-12.43c1.93-2.15,4-4.37,6.27-6.52s4.72-4.37,7.35-6.44a106.63,106.63,0,0,1,17.94-11.89,92,92,0,0,1,22.51-8.29,91,91,0,0,1,26.07-2.22,103.35,103.35,0,0,1,27.54,5.29,113.8,113.8,0,0,1,13.54,5.52c1.16,0.54,2.17,1.07,3.33,1.69s2.17,1.07,3.25,1.76c2.24,1.23,4.33,2.53,6.5,3.91a111.51,111.51,0,0,1,23.36,20.18A111.79,111.79,0,0,1,1819,921.63c-0.62,1.3-1.24,2.46-1.93,3.76l-1,1.76L1815,929c-1.47,2.46-2.94,4.83-4.56,7.14s-3.25,4.53-5,6.75-3.64,4.3-5.57,6.37a116.66,116.66,0,0,1-26.22,20.64,113.59,113.59,0,0,1-30.63,12,116.14,116.14,0,0,1-32,2.84,111.68,111.68,0,0,1-30.48-5.83,116.41,116.41,0,0,1-13.85-5.75c-1.08-.54-2.17-1.07-3.33-1.69s-2.09-1.15-3.17-1.76c-2.17-1.23-4.18-2.53-6.19-3.84a110.48,110.48,0,0,1-21.12-18.26,115.86,115.86,0,0,1-15-21.25,110.29,110.29,0,0,1-9-22,114.26,114.26,0,0,1-3.94-21.1,108.32,108.32,0,0,1,2.48-34.52,110.12,110.12,0,0,1,7.35-21c1.08-2.3,2-4.07,2.63-5.22s0.93-1.76.93-1.76-0.31.61-.85,1.84-1.39,3-2.4,5.29a112.38,112.38,0,0,0-6.42,21.1,108.86,108.86,0,0,0,48,112.93,109.89,109.89,0,0,0,54.68,17.34,107.73,107.73,0,0,0,30.4-3,109.66,109.66,0,0,0,29-11.58A105.08,105.08,0,0,0,1795.35,945c1.86-1.92,3.56-3.91,5.26-6s3.25-4.22,4.8-6.37a76.37,76.37,0,0,0,4.25-6.75l1-1.69,1-1.76c0.62-1.15,1.24-2.38,1.86-3.53a105.81,105.81,0,0,0,10-61.68,110.24,110.24,0,0,0-8.59-29.84,106.44,106.44,0,0,0-16.32-25.62,110.19,110.19,0,0,0-22-19.56c-2-1.3-4.1-2.61-6.11-3.84-1-.61-2.09-1.15-3.17-1.76s-2.09-1.07-3.17-1.61a125.59,125.59,0,0,0-12.92-5.52,101.69,101.69,0,0,0-13.15-3.68,98.52,98.52,0,0,0-13.15-1.84,93.79,93.79,0,0,0-25.14,1.61,92.46,92.46,0,0,0-22,7.52,101.88,101.88,0,0,0-17.87,11.12,130.9,130.9,0,0,0-24.06,24.4,164.27,164.27,0,0,0-12.22,18.49c-1.24,2.22-2.24,3.91-2.86,5.14A16.69,16.69,0,0,1,1620.08,833.94Z" transform="translate(-1604.41 -759.9)" fill="#fff"/><path d="M1664.83,915.6h-7.3L1656,919h-1.63l6-13.3H1662l6,13.3h-1.67Zm-0.61-1.41-3-6.84-3,6.84h6.05Z" transform="translate(-1604.41 -759.9)" fill="#fff"/><path d="M1685.47,914a4.7,4.7,0,0,1-4.81,5,4.24,4.24,0,0,1-3.93-2.2V919h-1.49V904.9h1.49v6.25a4.22,4.22,0,0,1,3.89-2.2A4.75,4.75,0,0,1,1685.47,914Zm-1.51,0a3.61,3.61,0,1,0-3.6,3.76A3.56,3.56,0,0,0,1684,914Z" transform="translate(-1604.41 -759.9)" fill="#fff"/><path d="M1688,922.74a3.2,3.2,0,0,1-2.13-.72l0.63-1.18a2.4,2.4,0,0,0,1.42.47,2,2,0,0,0,1.84-1.44l0.42-1L1686,909h1.57l3.35,8.32,3.2-8.32h1.53L1691,920.42A3.25,3.25,0,0,1,1688,922.74Zm5.65-17.29-2.37,1.88h-1.44l2.3-2.56Z" transform="translate(-1604.41 -759.9)" fill="#fff"/><path d="M1702.59,918.32a4.07,4.07,0,0,1-2.28.74c-1.47,0-2.57-.85-2.57-2.83v-5.76h-1.46v-1.16h1.46v-2.62h1.47v2.62h3.2v1.16h-3.2V916c0,1.22.48,1.71,1.34,1.71a3.46,3.46,0,0,0,1.61-.51Z" transform="translate(-1604.41 -759.9)" fill="#fff"/><path d="M1712.68,910.19c-1.13,0-2,.4-2,1.35,0,2.26,5.63,1.1,5.63,4.69,0,2-1.76,2.83-3.7,2.83a5.72,5.72,0,0,1-3.87-1.41l0.58-1.08a5.13,5.13,0,0,0,3.35,1.27c1.19,0,2.14-.46,2.16-1.46,0.06-2.43-5.59-1.2-5.57-4.73,0-1.9,1.67-2.72,3.5-2.72a6,6,0,0,1,3.22.91l-0.58,1.14A5.34,5.34,0,0,0,1712.68,910.19Z" transform="translate(-1604.41 -759.9)" fill="#fff"/><path d="M1728,914a5.11,5.11,0,1,1-5.11-5A4.88,4.88,0,0,1,1728,914Zm-8.73,0a3.62,3.62,0,1,0,3.62-3.74A3.53,3.53,0,0,0,1719.25,914Z" transform="translate(-1604.41 -759.9)" fill="#fff"/><path d="M1739.36,909v10h-1.49v-2.26a3.85,3.85,0,0,1-3.83,2.32,3.54,3.54,0,0,1-3.77-3.89V909h1.49v5.77a2.6,2.6,0,0,0,2.8,2.85c2.09,0,3.31-1.56,3.31-3.72V909h1.49Z" transform="translate(-1604.41 -759.9)" fill="#fff"/><path d="M1747,910.28a3.74,3.74,0,0,0,0,7.47,4,4,0,0,0,3.12-1.29l0.86,0.87a5.08,5.08,0,0,1-4,1.73,5.05,5.05,0,0,1,0-10.11,5.33,5.33,0,0,1,3.89,1.48l-0.82,1A4.21,4.21,0,0,0,1747,910.28Zm-1.84-5.43,1.38,1.79,1.38-1.79h1.4l-2,2.57h-1.57l-2-2.57h1.4Z" transform="translate(-1604.41 -759.9)" fill="#fff"/><path d="M1759.44,919v-1.56a4.36,4.36,0,0,1-3.7,1.61c-2.09,0-3.43-1.31-3.43-3s1.4-2.85,3.77-2.87h3.31v-0.63c0-1.46-.92-2.36-2.7-2.36a5.52,5.52,0,0,0-3.2,1.16l-0.63-1A6.81,6.81,0,0,1,1757,909c2.49,0,3.87,1.31,3.89,3.44l0,6.61h-1.46Zm0-3.44v-1.22h-3.14c-1.69,0-2.57.51-2.57,1.63s0.9,1.84,2.32,1.84A3.24,3.24,0,0,0,1759.43,915.56Zm-2.2-8.23h-1.44l2.3-2.56,1.51,0.68Z" transform="translate(-1604.41 -759.9)" fill="#fff"/><path d="M1766.82,910.19c-1.13,0-2,.4-2,1.35,0,2.26,5.63,1.1,5.63,4.69,0,2-1.76,2.83-3.7,2.83a5.72,5.72,0,0,1-3.87-1.41l0.58-1.08a5.13,5.13,0,0,0,3.35,1.27c1.19,0,2.14-.46,2.16-1.46,0.06-2.43-5.59-1.2-5.57-4.73,0-1.9,1.67-2.72,3.5-2.72a6,6,0,0,1,3.22.91l-0.58,1.14A5.34,5.34,0,0,0,1766.82,910.19Z" transform="translate(-1604.41 -759.9)" fill="#fff"/><path d="M1778.12,918.32a4.07,4.07,0,0,1-2.28.74c-1.47,0-2.57-.85-2.57-2.83v-5.76h-1.46v-1.16h1.46v-2.62h1.47v2.62h3.2v1.16h-3.2V916c0,1.22.48,1.71,1.34,1.71a3.46,3.46,0,0,0,1.61-.51Z" transform="translate(-1604.41 -759.9)" fill="#fff"/><path d="M1783.9,905.46l-2.37,1.88h-1.44l2.3-2.56Zm-2,3.55v10h-1.47V909h1.47Z" transform="translate(-1604.41 -759.9)" fill="#fff"/><path d="M1690.68,931.83a2.9,2.9,0,0,1-2.47,3,3.26,3.26,0,0,1,3.06,3.36c0,2.26-1.8,3.61-4.83,3.61h-5.74V928.5h5.65C1689,928.5,1690.68,929.74,1690.68,931.83Zm-1.55.23c0-1.37-1.05-2.15-2.85-2.15h-4v4.35h4C1688.07,934.26,1689.13,933.46,1689.13,932.05Zm0.59,5.95c0-1.48-1.26-2.34-3.45-2.34h-4v4.73h4C1688.46,940.39,1689.72,939.54,1689.72,938Z" transform="translate(-1604.41 -759.9)" fill="#fff"/><path d="M1698.11,935.51v1.08h-4.5v-1.08h4.5Z" transform="translate(-1604.41 -759.9)" fill="#fff"/><path d="M1705.25,929.93c-1.72,0-2.85.68-2.85,1.82,0,3.46,7.55,1.65,7.53,6.48,0,2.2-2,3.63-4.84,3.63a7.69,7.69,0,0,1-5.13-2l0.69-1.31a6.76,6.76,0,0,0,4.46,1.86c1.93,0,3.14-.78,3.14-2.07,0-3.55-7.53-1.67-7.53-6.44,0-2.09,1.86-3.42,4.63-3.42a8,8,0,0,1,4.25,1.24l-0.65,1.35A7.11,7.11,0,0,0,1705.25,929.93Z" transform="translate(-1604.41 -759.9)" fill="#fff"/><path d="M1725.84,935.15a7,7,0,1,1-7-6.69A6.81,6.81,0,0,1,1725.84,935.15Zm-12.49,0a5.46,5.46,0,0,0,10.92,0A5.46,5.46,0,0,0,1713.35,935.15Z" transform="translate(-1604.41 -759.9)" fill="#fff"/><path d="M1734,940.47a3.77,3.77,0,0,0,4.08-4.14V928.5h1.53v7.83c0,3.48-2.11,5.53-5.61,5.53s-5.65-2.05-5.65-5.53V928.5h1.53v7.83A3.8,3.8,0,0,0,1734,940.47Z" transform="translate(-1604.41 -759.9)" fill="#fff"/><path d="M1744.87,928.5v11.89h5.88v1.41h-7.41V928.5h1.53Z" transform="translate(-1604.41 -759.9)" fill="#fff"/><path d="M1755.06,928.71c2.11,0,3.62,1,3.62,3.06,0,3.1-3.06,3.08-3.06,5.85h-1.19c0-3.15,2.85-3,2.85-5.66,0-1.31-1-2-2.36-2a2.11,2.11,0,0,0-2.39,2.11l-1.21,0C1751.42,929.93,1752.86,928.71,1755.06,928.71Zm0.86,12.27a0.93,0.93,0,1,1-.92-1A0.93,0.93,0,0,1,1755.92,941Z" transform="translate(-1604.41 -759.9)" fill="#fff"/><path d="M1647.27,833.5l5.1,10.7,5.07-10.7h4.4V851h-3.55V839.2l-4.65,10h-2.57l-4.65-10V851h-3.57V833.5h4.42Z" transform="translate(-1604.41 -759.9)" fill="#fff"/><path d="M1677.27,847.6h-8.1l-1.37,3.4h-4.07l7.6-17.5h4.07l7.47,17.5h-4.22Zm-1.27-3.17-2.75-6.8-2.77,6.8H1676Zm-1.65-12.55h-3l2.65-4.07,3.57,1.35Z" transform="translate(-1604.41 -759.9)" fill="#fff"/><path d="M1690.67,836.7c-1.32,0-2.22.48-2.22,1.42,0,3.22,9.32,1.42,9.3,7.72,0,3.42-3,5.27-6.85,5.27a12.28,12.28,0,0,1-7.72-2.77l1.57-3.22a10.36,10.36,0,0,0,6.2,2.63c1.62,0,2.6-.6,2.6-1.67,0-3.3-9.32-1.37-9.32-7.57,0-3.17,2.72-5.17,6.77-5.17a12.51,12.51,0,0,1,6.65,1.9l-1.53,3.27A12.2,12.2,0,0,0,1690.67,836.7Zm-1.32-8.72,1.55,2.3,1.55-2.3h3.1l-2.92,4h-3.45l-2.92-4h3.1Z" transform="translate(-1604.41 -759.9)" fill="#fff"/><path d="M1720.5,833.5v2.65l-9.77,11.55h9.92l0,3.3H1705.4v-2.67l9.8-11.52h-9.47v-3.3h14.77Z" transform="translate(-1604.41 -759.9)" fill="#fff"/><path d="M1734.9,847.6h-8.1l-1.37,3.4h-4.07l7.6-17.5H1733l7.47,17.5h-4.22Zm-1.27-3.17-2.75-6.8-2.77,6.8h5.52ZM1732,831.88h-3l2.65-4.07,3.57,1.35Z" transform="translate(-1604.41 -759.9)" fill="#fff"/><path d="M1746,851.17a7.29,7.29,0,0,1-5.72-2.72l1.82-2.8a5.51,5.51,0,0,0,3.7,1.95,2,2,0,0,0,2.1-2.3v-8.45h-6V833.5h10v11.9C1751.9,849.08,1749.65,851.17,1746,851.17Z" transform="translate(-1604.41 -759.9)" fill="#fff"/><path d="M1768.75,833.5v3.27h-9.37v3.8h8.45v3.27h-8.45v3.87H1769V851h-13.6V833.5h13.32Z" transform="translate(-1604.41 -759.9)" fill="#fff"/><path d="M1776.55,833.5l5.1,10.7,5.07-10.7h4.4V851h-3.55V839.2l-4.65,10h-2.57l-4.65-10V851h-3.57V833.5h4.42Z" transform="translate(-1604.41 -759.9)" fill="#fff"/><path d="M1631.33,863.5v3.35H1626V881H1622V866.85h-5.32V863.5h14.62Z" transform="translate(-1604.41 -759.9)" fill="#fff"/><path d="M1643.19,877.6h-8.1l-1.37,3.4h-4.07l7.6-17.5h4.07l7.47,17.5h-4.22Zm-1.27-3.17-2.75-6.8-2.77,6.8h5.52Z" transform="translate(-1604.41 -759.9)" fill="#fff"/><path d="M1654.21,863.5l8.5,11.25V863.5h3.75V881h-3.6l-8.47-11.22V881h-3.77V863.5h3.6Z" transform="translate(-1604.41 -759.9)" fill="#fff"/><path d="M1678.44,866.8a5.39,5.39,0,0,0,0,10.77,6.75,6.75,0,0,0,4.55-2l2.32,2.52a10.24,10.24,0,0,1-7.07,3.12,8.88,8.88,0,0,1-9.17-8.95c0-5,4-8.85,9.32-8.85a10,10,0,0,1,6.9,2.9l-2.3,2.8A6.33,6.33,0,0,0,1678.44,866.8Zm-2.2-8.82,1.55,2.3,1.55-2.3h3.1l-2.92,4h-3.45l-2.92-4h3.1Z" transform="translate(-1604.41 -759.9)" fill="#fff"/><path d="M1691.61,863.5V881h-3.95V863.5h3.95Z" transform="translate(-1604.41 -759.9)" fill="#fff"/><path d="M1708.38,863.5v3.35H1703V881h-3.95V866.85h-5.32V863.5h14.62Z" transform="translate(-1604.41 -759.9)" fill="#fff"/><path d="M1722.61,866.7c-1.32,0-2.22.48-2.22,1.42,0,3.22,9.32,1.42,9.3,7.72,0,3.42-3,5.27-6.85,5.27a12.28,12.28,0,0,1-7.72-2.77l1.57-3.22a10.36,10.36,0,0,0,6.2,2.63c1.62,0,2.6-.6,2.6-1.67,0-3.3-9.32-1.37-9.32-7.57,0-3.17,2.72-5.17,6.77-5.17a12.51,12.51,0,0,1,6.65,1.9l-1.53,3.27A12.2,12.2,0,0,0,1722.61,866.7Z" transform="translate(-1604.41 -759.9)" fill="#fff"/><path d="M1742.09,863.5l8.5,11.25V863.5h3.75V881h-3.6l-8.47-11.22V881h-3.77V863.5h3.6Z" transform="translate(-1604.41 -759.9)" fill="#fff"/><path d="M1769.73,877.6h-8.1l-1.37,3.4h-4.07l7.6-17.5h4.07l7.47,17.5h-4.22Zm-1.27-3.17-2.75-6.8-2.77,6.8h5.52Zm-1.65-12.55h-3l2.65-4.07,3.57,1.35Z" transform="translate(-1604.41 -759.9)" fill="#fff"/><path d="M1781.58,863.5l5.1,10.7,5.07-10.7h4.4V881h-3.55V869.2l-4.65,10h-2.57l-4.65-10V881h-3.57V863.5h4.42Z" transform="translate(-1604.41 -759.9)" fill="#fff"/><path d="M1804,863.5V881H1800V863.5H1804Z" transform="translate(-1604.41 -759.9)" fill="#fff"/><path d="M1811.56,863.48c3.2,0,5.25,1.52,5.25,4.3,0,3.85-3.87,4.22-3.87,7.32H1810c0-3.92,3.22-4.07,3.22-6.7,0-1.2-.77-1.75-2-1.75s-2.15.78-2.22,2.35l-3,0C1806.09,865.5,1808.16,863.48,1811.56,863.48Zm1.8,15.75a1.93,1.93,0,1,1-3.85,0A1.92,1.92,0,1,1,1813.36,879.23Z" transform="translate(-1604.41 -759.9)" fill="#fff"/></svg>