<svg id="emailSocialIcon" xmlns="http://www.w3.org/2000/svg" viewBox="0 0 58 60">
    <title>email-icon</title>
    <g id="email">
        <circle cx="29" cy="29" r="29" fill="#c0bfbf" />
        <g style="isolation:isolate">
            <path d="M35.48,42.92a17.64,17.64,0,0,1-7.87,1.55A13.06,13.06,0,0,1,14.19,30.93c0-8.77,6.36-16.38,16.08-16.38,7.57,0,13,5.2,13,12.43,0,6.28-3.53,10.23-8.17,10.23a3.37,3.37,0,0,1-3.7-3.31H31.31a6.31,6.31,0,0,1-5.55,3.31c-2.79,0-4.82-2.06-4.82-5.59A9.82,9.82,0,0,1,31,21.6a12.08,12.08,0,0,1,5.12,1.07l-1.29,8c-0.43,2.54-.13,3.7,1.08,3.74,1.85,0,4.17-2.32,4.17-7.27,0-5.59-3.61-9.93-10.28-9.93S17.46,22.33,17.46,30.54c0,7.18,4.6,11.27,11,11.27a14,14,0,0,0,6.23-1.38ZM31.65,25.17A5.29,5.29,0,0,0,30.32,25c-2.84,0-5.07,2.79-5.07,6.11,0,1.63.73,2.67,2.15,2.67,1.59,0,3.27-2,3.66-4.51Z" fill="#414141" />
        </g>
    </g>
</svg>
