<svg id="youtubeIconSocial" xmlns="http://www.w3.org/2000/svg" viewBox="0 0 60 60">
    <title>youtube-icon</title>
    <circle cx="30" cy="30" r="30" fill="#c0bfbf" />
    <path d="M30,28s15.54,0,17.34,1.4S49.3,37.9,49.3,38s0,7.1-1.93,8.6S30,48,30,48,14.5,48,12.7,46.5,10.9,38,10.9,38s0-7.1,1.8-8.6S30,28,30,28Z" fill="#414141" />
    <g style="isolation:isolate">
        <path d="M22.52,32.63v2.53H20v9.22h-2.2V35.16H15.28V32.63h7.24Z" fill="#c0bfbf" />
        <path d="M29.58,35.31v9.07H27.44V42.91a2.27,2.27,0,0,1-2.08,1.61C23.95,44.52,23,43.16,23,41V35.31h2.14v4.88c0,1,.41,1.64,1,1.64s1.22-.86,1.22-2V35.31h2.14Z" fill="#c0bfbf" />
        <path d="M38.38,39.89c0,2.77-1.18,4.59-3,4.59a2.21,2.21,0,0,1-2-1.27v1.17H31.28V31.94h2.14v4.54a2.17,2.17,0,0,1,1.92-1.27C37.16,35.21,38.38,37.07,38.38,39.89Zm-2.16-.07c0-1.34-.57-2.26-1.41-2.26s-1.38.92-1.38,2.26,0.57,2.25,1.38,2.25S36.22,41.17,36.22,39.82Z" fill="#c0bfbf" />
        <path d="M45.64,40.65H41.11a1.64,1.64,0,0,0,1.48,1.59,1.93,1.93,0,0,0,1.53-.92l1.12,1.56a3.26,3.26,0,0,1-2.84,1.61c-2.13,0-3.45-1.83-3.45-4.59s1.36-4.68,3.4-4.68C44.63,35.21,45.79,37.34,45.64,40.65Zm-2.07-1.59c0-1-.48-1.74-1.2-1.74s-1.16.71-1.3,1.74h2.51Z" fill="#c0bfbf" />
    </g>
    <g style="isolation:isolate">
        <path d="M23.86,19.9v3.76H21.49V20L18.15,11.9h2.37l2.15,5,2.1-5h2.37Z" fill="#414141" />
        <path d="M33.28,19.11c0,2.8-1.34,4.65-3.36,4.65s-3.35-1.84-3.35-4.65,1.33-4.63,3.35-4.63S33.28,16.32,33.28,19.11Zm-4.68.05c0,1.34.53,2.25,1.32,2.25s1.33-.91,1.33-2.25-0.53-2.26-1.33-2.26S28.61,17.8,28.61,19.16Z" fill="#414141" />
        <path d="M41.26,14.58v9.07H38.95V22.18a2.42,2.42,0,0,1-2.24,1.61c-1.52,0-2.5-1.36-2.5-3.47V14.58h2.31v4.88c0,1,.44,1.64,1.13,1.64s1.31-.86,1.31-2V14.58h2.31Z" fill="#414141" />
    </g>
</svg>
