<?xml version="1.0" encoding="UTF-8" standalone="no"?>
<svg
   xmlns:dc="http://purl.org/dc/elements/1.1/"
   xmlns:cc="http://creativecommons.org/ns#"
   xmlns:rdf="http://www.w3.org/1999/02/22-rdf-syntax-ns#"
   xmlns:svg="http://www.w3.org/2000/svg"
   xmlns="http://www.w3.org/2000/svg"
   xmlns:sodipodi="http://sodipodi.sourceforge.net/DTD/sodipodi-0.dtd"
   xmlns:inkscape="http://www.inkscape.org/namespaces/inkscape"
   id="Layer_1"
   data-name="Layer 1"
   viewBox="0 0 395.29 176.99999"
   version="1.1"
   sodipodi:docname="arrow-bottom.svg"
   width="395.29001"
   height="177"
   inkscape:version="0.92.3 (2405546, 2018-03-11)">
  <metadata
     id="metadata1075">
    <rdf:RDF>
      <cc:Work
         rdf:about="">
        <dc:format>image/svg+xml</dc:format>
        <dc:type
           rdf:resource="http://purl.org/dc/dcmitype/StillImage" />
        <dc:title>show-more</dc:title>
      </cc:Work>
    </rdf:RDF>
  </metadata>
  <defs
     id="defs1073" />
  <sodipodi:namedview
     pagecolor="#ffffff"
     bordercolor="#666666"
     borderopacity="1"
     objecttolerance="10"
     gridtolerance="10"
     guidetolerance="10"
     inkscape:pageopacity="0"
     inkscape:pageshadow="2"
     inkscape:window-width="1916"
     inkscape:window-height="1033"
     id="namedview1071"
     showgrid="false"
     inkscape:pagecheckerboard="true"
     inkscape:zoom="1.1331669"
     inkscape:cx="33.17442"
     inkscape:cy="77.665245"
     inkscape:window-x="0"
     inkscape:window-y="22"
     inkscape:window-maximized="0"
     inkscape:current-layer="Layer_1" />
  <title
     id="title1056">show-more</title>
  <path
     d="m 273.27,118.97999 79.6,-60.940005 c 14.81,-11.48 29.65,-23.31 42,-44 0.77,-1.45 0.47,-5.6799996 -0.68,-9.4399996 -0.87,-2.85 -2,-4.71000005 -2.86,-4.67000005 v 0 C 361.05,2.3199854 335.58,29.329985 309.2,48.749985 c -26.66,19.61 -53.3,39.29 -80.08,58.450005 l -22,15.84 c -7.13,4.92 -17.65,5.08 -21.4,21.56 -1.11,5.45 0.47,16.14 3.52,23.89 1.34,3.4 2.81,5.81 4.14,6.8 8.5,5.95 14.66,-5.16 20.89,-10.09 l 19.39,-15.28"
     id="path1058"
     inkscape:connector-curvature="0"
     style="fill:#ffffff" />
  <path
     d="m 161.69,149.92999 19.39,15.28 c 6.24,4.93 12.39,16 20.89,10.09 1.33,-1 2.8,-3.4 4.14,-6.8 3.05,-7.75 4.63,-18.44 3.52,-23.89 -3.75,-16.48 -14.27,-16.64 -21.4,-21.56 l -22,-15.84 C 139.46,88.049985 112.81,68.369985 86.15,48.759985 59.74,29.339985 34.28,2.3199854 4,-0.07001465 v 0 c -0.85,0 -2,1.82000005 -2.86,4.67000005 -1.15,3.76 -1.45,7.9999996 -0.68,9.4399996 12.35,20.69 27.19,32.52 42,44 L 122,118.97999"
     id="path1060"
     inkscape:connector-curvature="0"
     style="fill:#ffffff" />
</svg>
