<?xml version="1.0" encoding="UTF-8" standalone="no"?>
<!-- Created with Inkscape (http://www.inkscape.org/) -->

<svg
   xmlns:dc="http://purl.org/dc/elements/1.1/"
   xmlns:cc="http://creativecommons.org/ns#"
   xmlns:rdf="http://www.w3.org/1999/02/22-rdf-syntax-ns#"
   xmlns:svg="http://www.w3.org/2000/svg"
   xmlns="http://www.w3.org/2000/svg"
   xmlns:sodipodi="http://sodipodi.sourceforge.net/DTD/sodipodi-0.dtd"
   xmlns:inkscape="http://www.inkscape.org/namespaces/inkscape"
   width="78.021629mm"
   height="40.355576mm"
   viewBox="0 0 276.45459 142.9922"
   id="svg4269"
   version="1.1"
   inkscape:version="0.91 r13725"
   sodipodi:docname="logo-dark.svg">
  <defs
     id="defs4271" />
  <sodipodi:namedview
     id="base"
     pagecolor="#ffffff"
     bordercolor="#666666"
     borderopacity="1.0"
     inkscape:pageopacity="0.0"
     inkscape:pageshadow="2"
     inkscape:zoom="3.959798"
     inkscape:cx="59.624902"
     inkscape:cy="95.76209"
     inkscape:document-units="px"
     inkscape:current-layer="layer1"
     showgrid="false"
     inkscape:window-width="1920"
     inkscape:window-height="1017"
     inkscape:window-x="-8"
     inkscape:window-y="-8"
     inkscape:window-maximized="1"
     fit-margin-top="2"
     fit-margin-left="2"
     fit-margin-right="2"
     fit-margin-bottom="2" />
  <metadata
     id="metadata4274">
    <rdf:RDF>
      <cc:Work
         rdf:about="">
        <dc:format>image/svg+xml</dc:format>
        <dc:type
           rdf:resource="http://purl.org/dc/dcmitype/StillImage" />
        <dc:title />
      </cc:Work>
    </rdf:RDF>
  </metadata>
  <g
     inkscape:label="Vrstva 1"
     inkscape:groupmode="layer"
     id="layer1"
     transform="translate(-16.058422,-20.866101)">
    <path
       inkscape:connector-curvature="0"
       style="opacity:1;fill:none;stroke:#000000;stroke-width:3.98;stroke-linejoin:round;stroke-miterlimit:4;stroke-dasharray:none;stroke-opacity:1;marker-start:none"
       d="M 83.29625,52.34346 A 61.044996,103.34923 78.064472 0 1 117.69387,36.86834 61.044996,103.34923 78.064472 0 1 237.63839,52.352"
       id="path4239" />
    <path
       inkscape:connector-curvature="0"
       style="opacity:1;fill:none;stroke:#000000;stroke-width:3.98;stroke-linejoin:round;stroke-miterlimit:4;stroke-dasharray:none;stroke-opacity:1;marker-start:none"
       d="M 209.63747,132.38319 A 61.044996,103.34923 78.064472 0 1 175.2435,147.85607 61.044996,103.34923 78.064472 0 1 55.30076,132.37433"
       id="path4487-0-4-5-5" />
    <g
       transform="matrix(1.0579321,-0.00299373,0.06449819,0.94505774,0,0)"
       style="font-style:normal;font-variant:normal;font-weight:normal;font-stretch:normal;font-size:61.22331619px;line-height:125%;font-family:'Some Time Later';-inkscape-font-specification:'Some Time Later';letter-spacing:0px;word-spacing:0px;opacity:1;fill:#000000;fill-opacity:1;stroke:none"
       id="text4431-4-7-9-7">
      <path
         d="m 69.112084,61.766398 q 15.993395,0 17.248952,7.712703 0.02989,0.956614 -0.179366,2.0627 l -0.269047,1.28545 q -1.255557,6.277782 -18.115884,16.172761 -9.028047,4.603706 -11.210324,4.603706 l -0.02989,0.269048 q 10.403181,0 12.884399,6.158204 0.179365,1.67408 0.05979,2.30185 l -0.05979,0.26905 q -1.85344,9.35689 -23.197897,19.76007 -13.123553,4.6336 -17.637577,4.6336 l -1.016402,0 q -4.543918,-0.5082 -4.005823,-3.07911 0.388625,-2.00291 9.805297,-14.3791 -8.011645,0 -13.213235,-5.91906 -2.959526,-3.01931 -1.674075,-9.50635 1.524604,-7.563232 11.867996,-18.205566 9.446566,-7.204502 16.531491,-9.506355 12.017468,-4.633601 22.211389,-4.633601 z m -46.57516,32.614569 q -1.973017,9.894983 10.702123,12.077253 l 2.301853,0 q 1.763758,-1.67407 7.114819,-9.775399 -5.650003,0.538095 -7.324078,0.538095 -1.524604,-0.657672 -1.524604,-1.28545 l 0.239153,-1.285451 q 0.179365,-0.777249 2.98942,-0.777249 l 2.839949,0 q 5.650003,0 6.008733,-1.793652 6.247888,-9.506354 8.878577,-14.88731 2.002911,-3.288362 3.946034,-5.650003 0.508201,-0.269048 1.076191,-0.269048 2.301853,0.119577 2.182277,0.777249 l -0.20926,1.016403 -10.97117,18.743662 -0.02989,0.269047 q 9.267201,-2.511112 17.099481,-7.204501 11.53916,-7.324079 14.229637,-13.332812 1.046297,-5.291273 -8.489952,-6.427253 -1.046297,-0.209259 -3.228573,-0.508201 -12.794716,0 -29.087054,7.951856 -5.76958,3.587304 -10.373286,8.220905 -3.288362,2.959525 -6.90556,10.253709 l -1.464816,3.34815 z m 18.145778,12.077253 0.239154,0 q 2.242064,-0.77725 4.035716,-0.77725 l 2.0627,0 q 0.478307,0.0598 0.388625,0.50821 l -0.05979,0.26904 q -0.448413,2.24207 -5.41085,2.81006 -3.736774,0 -4.992331,1.79365 -8.161115,11.24022 -8.430163,12.58546 l -0.02989,0.26904 0.239153,0 q 8.161116,0 25.320385,-9.7455 10.283604,-7.7725 10.971171,-11.30001 l 0.328836,-1.5545 Q 64.807319,98.865097 61.24991,97.46007 57.303876,96.443667 53.208371,96.443667 l -5.41085,0 q -1.405027,1.345239 -7.114819,10.014553 z"
         style="font-style:italic;font-variant:normal;font-weight:normal;font-stretch:normal;font-family:'Big Winks';-inkscape-font-specification:'Big Winks Italic';fill:#000000;fill-opacity:1"
         id="path3339" />
      <path
         d="m 132.00948,96.53335 q 0.32883,0 0.68757,0.896826 L 132.428,98.74552 q -0.17937,0.896826 -6.45715,1.34524 -8.40027,3.13889 -8.99815,6.1881 2.33174,1.67407 10.01455,4.21508 7.53334,2.89974 9.89498,6.87567 1.85344,3.0791 1.43492,5.1119 l -0.44841,2.21217 q -0.98651,4.96244 -8.10133,8.40027 -4.1254,2.00291 -13.66164,2.00291 l -12.4061,0 q -0.5082,0 -0.89682,-0.20926 -0.44842,0.20926 -0.68757,0.20926 -1.10608,0 -3.288361,-0.20926 -1.255556,0 -1.584392,0.20926 -3.108997,-0.20926 -5.291273,-0.20926 l -5.739686,0 q -16.322232,-0.38862 -16.172761,-1.13597 l 0.20926,-1.0762 q 0.149471,-0.44841 0.538095,-0.44841 0.896826,0 4.035717,-0.23915 1.913229,0.23915 2.361642,0.23915 l 2.989419,-0.47831 q 18.743662,-0.20926 25.11113,-0.20926 1.28545,0 5.56032,-0.20925 l 0.86693,0.20925 q 16.05318,0 20.20848,-4.6336 2.5709,-2.83994 2.78016,-4.00582 0.0299,-3.6172 -5.88916,-7.05503 -12.85451,-4.99233 -14.73784,-6.21799 -0.95661,-1.76376 -0.56799,-3.76667 1.19577,-5.97884 12.94419,-9.32699 l 5.56032,0 z"
         style="font-style:italic;font-variant:normal;font-weight:normal;font-stretch:normal;font-family:'Big Winks';-inkscape-font-specification:'Big Winks Italic';fill:#000000;fill-opacity:1"
         id="path3341" />
      <path
         d="m 170.33384,94.022237 1.46481,0 q 2.39154,0 4.21509,2.212171 l -0.38863,1.943123 q -0.0897,0.35873 -0.89683,0.747354 l -0.9865,0 -3.40794,-1.255556 q -2.51111,0 -10.25371,3.407941 l -0.0299,0.26905 q 2.95953,-0.47831 6.96535,-0.47831 9.59604,0 11.12064,6.60662 0.41852,1.64418 0.20926,2.69047 l -0.20926,0.95662 q -2.0627,10.37328 -23.64631,15.60477 -1.31534,0.26905 -2.95952,0.26905 l -4.42434,0 q -8.759,-1.28545 -7.32408,-8.54974 l 0.35873,-1.70397 q 1.79365,-9.02805 16.65107,-18.564299 8.31058,-4.155294 13.54207,-4.155294 z m -11.50927,10.971173 q -3.76667,-0.20926 -4.00582,-0.74736 -10.22382,8.37038 -11.30001,13.72144 l -0.0897,0.47831 q -0.86693,4.30476 5.35106,5.1119 l 0.95662,0 q 8.7291,0 20.92593,-8.07143 3.58731,-3.0791 4.06561,-5.59021 -0.53809,-5.65001 -8.66931,-5.65001 0.0598,-0.20926 -0.14947,-0.20926 -2.81006,0.20926 -7.08493,0.95662 z"
         style="font-style:italic;font-variant:normal;font-weight:normal;font-stretch:normal;font-family:'Big Winks';-inkscape-font-specification:'Big Winks Italic';fill:#000000;fill-opacity:1"
         id="path3343" />
      <path
         d="m 198.34469,93.244988 2.21217,0 q 0.44842,0.05979 0.35873,0.508201 l -0.26904,1.464816 q -0.14947,0.747355 -11.62885,12.555565 -5.38095,7.14471 -6.57672,11.8381 0,4.42434 2.09259,4.42434 4.27488,0 20.35795,-13.03387 7.17461,-7.50344 10.70213,-11.598947 1.28545,-1.823546 1.88333,-1.973017 l 0.71746,0 q 2.72037,0 2.5709,0.747355 l -0.14947,0.71746 Q 213.7701,115.90479 210.1529,126.48734 l -0.53809,0.26904 -2.45133,0 q -0.32883,0 -0.56799,-0.74735 l 0.17937,-0.98651 q 1.5545,-5.38096 5.70979,-16.26244 -11.38969,11.65873 -21.58361,16.74075 -0.71746,0.56799 -4.48413,1.49471 l -3.46773,0 q -4.96243,0 -4.33466,-6.63652 l 0.44842,-2.21217 q 1.85344,-9.20741 17.81694,-23.6762 0.0598,-0.328836 1.46481,-1.225662 z"
         style="font-style:italic;font-variant:normal;font-weight:normal;font-stretch:normal;font-family:'Big Winks';-inkscape-font-specification:'Big Winks Italic';fill:#000000;fill-opacity:1"
         id="path3345" />
      <path
         d="m 259.32886,49.360306 q 2.83995,0.119577 2.72038,0.717461 l -0.23916,1.165874 q -16.9799,31.149753 -29.77462,50.431509 l -4.18519,5.6799 q -9.11773,13.72144 -14.82752,19.64049 l -0.92672,0 q -0.32883,0 -0.71746,-1.19577 l 0.17937,-0.92672 q 0.26904,-1.31535 8.43016,-12.55556 15.75424,-21.55372 33.66087,-54.676491 4.33465,-8.280693 5.44074,-8.280693 l 0.23915,0 z"
         style="font-style:italic;font-variant:normal;font-weight:normal;font-stretch:normal;font-family:'Big Winks';-inkscape-font-specification:'Big Winks Italic';fill:#000000;fill-opacity:1"
         id="path3347" />
    </g>
    <path
       style="opacity:1;fill:#000000;fill-opacity:1;stroke:none"
       id="path3193-4-5"
       d="m 97.13007,94.01011 c 5.93464,0.67318 11.87613,0.42044 17.79045,-0.24136 3.68779,-0.77 1.88654,-0.36821 5.4054,-1.19998 0,0 -9.32994,6.35134 -9.32994,6.35134 l 0,0 c -3.53592,0.76931 -1.7181,0.41316 -5.45602,1.05779 -6.04113,0.56454 -12.09871,0.70579 -18.15533,0.18392 0,0 9.74544,-6.15171 9.74544,-6.15171 z"
       inkscape:connector-curvature="0" />
  </g>
</svg>
