<?xml version="1.0" encoding="UTF-8" standalone="no"?>
<svg
   xmlns:dc="http://purl.org/dc/elements/1.1/"
   xmlns:cc="http://creativecommons.org/ns#"
   xmlns:rdf="http://www.w3.org/1999/02/22-rdf-syntax-ns#"
   xmlns:svg="http://www.w3.org/2000/svg"
   xmlns="http://www.w3.org/2000/svg"
   xmlns:sodipodi="http://sodipodi.sourceforge.net/DTD/sodipodi-0.dtd"
   xmlns:inkscape="http://www.inkscape.org/namespaces/inkscape"
   id="Main"
   viewBox="0 0 239.99 225.02"
   version="1.1"
   sodipodi:docname="join-us.svg"
   inkscape:version="0.92.4 (5da689c313, 2019-01-14)">
  <metadata
     id="metadata91">
    <rdf:RDF>
      <cc:Work
         rdf:about="">
        <dc:format>image/svg+xml</dc:format>
        <dc:type
           rdf:resource="http://purl.org/dc/dcmitype/StillImage" />
        <dc:title>join-us</dc:title>
      </cc:Work>
    </rdf:RDF>
  </metadata>
  <defs
     id="defs89" />
  <sodipodi:namedview
     pagecolor="#ffffff"
     bordercolor="#666666"
     borderopacity="1"
     objecttolerance="10"
     gridtolerance="10"
     guidetolerance="10"
     inkscape:pageopacity="0"
     inkscape:pageshadow="2"
     inkscape:window-width="1920"
     inkscape:window-height="1017"
     id="namedview87"
     showgrid="false"
     inkscape:pagecheckerboard="true"
     inkscape:zoom="2.0975913"
     inkscape:cx="93.018887"
     inkscape:cy="29.934997"
     inkscape:window-x="-8"
     inkscape:window-y="-8"
     inkscape:window-maximized="1"
     inkscape:current-layer="text97" />
  <title
     id="title2">join-us</title>
  <path
     d="M1789.24,769.65c29.16,25.24,49,59.69,53.68,98,0.08,0.92,1.55,1,1.47,0-2.4-38.82-22-76.72-53.83-99.74a1.08,1.08,0,0,0-1.31,1.69h0Z"
     transform="translate(-1604.41 -759.9)"
     fill="#fff"
     id="path4" />
  <path
     d="M1620.08,833.94s0.31-.61.85-1.84,1.47-3,2.63-5.22a160.88,160.88,0,0,1,11.52-19,140,140,0,0,1,10-12.43c1.93-2.15,4-4.37,6.27-6.52s4.72-4.37,7.35-6.44a106.63,106.63,0,0,1,17.94-11.89,92,92,0,0,1,22.51-8.29,91,91,0,0,1,26.07-2.22,103.35,103.35,0,0,1,27.54,5.29,113.8,113.8,0,0,1,13.54,5.52c1.16,0.54,2.17,1.07,3.33,1.69s2.17,1.07,3.25,1.76c2.24,1.23,4.33,2.53,6.5,3.91a111.51,111.51,0,0,1,23.36,20.18A111.79,111.79,0,0,1,1819,921.63c-0.62,1.3-1.24,2.46-1.93,3.76l-1,1.76L1815,929c-1.47,2.46-2.94,4.83-4.56,7.14s-3.25,4.53-5,6.75-3.64,4.3-5.57,6.37a116.66,116.66,0,0,1-26.22,20.64,113.59,113.59,0,0,1-30.63,12,116.14,116.14,0,0,1-32,2.84,111.68,111.68,0,0,1-30.48-5.83,116.41,116.41,0,0,1-13.85-5.75c-1.08-.54-2.17-1.07-3.33-1.69s-2.09-1.15-3.17-1.76c-2.17-1.23-4.18-2.53-6.19-3.84a110.48,110.48,0,0,1-21.12-18.26,115.86,115.86,0,0,1-15-21.25,110.29,110.29,0,0,1-9-22,114.26,114.26,0,0,1-3.94-21.1,108.32,108.32,0,0,1,2.48-34.52,110.12,110.12,0,0,1,7.35-21c1.08-2.3,2-4.07,2.63-5.22s0.93-1.76.93-1.76-0.31.61-.85,1.84-1.39,3-2.4,5.29a112.38,112.38,0,0,0-6.42,21.1,108.86,108.86,0,0,0,48,112.93,109.89,109.89,0,0,0,54.68,17.34,107.73,107.73,0,0,0,30.4-3,109.66,109.66,0,0,0,29-11.58A105.08,105.08,0,0,0,1795.35,945c1.86-1.92,3.56-3.91,5.26-6s3.25-4.22,4.8-6.37a76.37,76.37,0,0,0,4.25-6.75l1-1.69,1-1.76c0.62-1.15,1.24-2.38,1.86-3.53a105.81,105.81,0,0,0,10-61.68,110.24,110.24,0,0,0-8.59-29.84,106.44,106.44,0,0,0-16.32-25.62,110.19,110.19,0,0,0-22-19.56c-2-1.3-4.1-2.61-6.11-3.84-1-.61-2.09-1.15-3.17-1.76s-2.09-1.07-3.17-1.61a125.59,125.59,0,0,0-12.92-5.52,101.69,101.69,0,0,0-13.15-3.68,98.52,98.52,0,0,0-13.15-1.84,93.79,93.79,0,0,0-25.14,1.61,92.46,92.46,0,0,0-22,7.52,101.88,101.88,0,0,0-17.87,11.12,130.9,130.9,0,0,0-24.06,24.4,164.27,164.27,0,0,0-12.22,18.49c-1.24,2.22-2.24,3.91-2.86,5.14A16.69,16.69,0,0,1,1620.08,833.94Z"
     transform="translate(-1604.41 -759.9)"
     fill="#fff"
     id="path6" />
  <path
     d="M1647.27,833.5l5.1,10.7,5.07-10.7h4.4V851h-3.55V839.2l-4.65,10h-2.57l-4.65-10V851h-3.57V833.5h4.42Z"
     transform="translate(-1604.41 -759.9)"
     fill="#fff"
     id="path46" />
  <path
     d="M1677.27,847.6h-8.1l-1.37,3.4h-4.07l7.6-17.5h4.07l7.47,17.5h-4.22Zm-1.27-3.17-2.75-6.8-2.77,6.8H1676Zm-1.65-12.55h-3l2.65-4.07,3.57,1.35Z"
     transform="translate(-1604.41 -759.9)"
     fill="#fff"
     id="path48" />
  <path
     d="M1690.67,836.7c-1.32,0-2.22.48-2.22,1.42,0,3.22,9.32,1.42,9.3,7.72,0,3.42-3,5.27-6.85,5.27a12.28,12.28,0,0,1-7.72-2.77l1.57-3.22a10.36,10.36,0,0,0,6.2,2.63c1.62,0,2.6-.6,2.6-1.67,0-3.3-9.32-1.37-9.32-7.57,0-3.17,2.72-5.17,6.77-5.17a12.51,12.51,0,0,1,6.65,1.9l-1.53,3.27A12.2,12.2,0,0,0,1690.67,836.7Zm-1.32-8.72,1.55,2.3,1.55-2.3h3.1l-2.92,4h-3.45l-2.92-4h3.1Z"
     transform="translate(-1604.41 -759.9)"
     fill="#fff"
     id="path50" />
  <path
     d="M1720.5,833.5v2.65l-9.77,11.55h9.92l0,3.3H1705.4v-2.67l9.8-11.52h-9.47v-3.3h14.77Z"
     transform="translate(-1604.41 -759.9)"
     fill="#fff"
     id="path52" />
  <path
     d="M1734.9,847.6h-8.1l-1.37,3.4h-4.07l7.6-17.5H1733l7.47,17.5h-4.22Zm-1.27-3.17-2.75-6.8-2.77,6.8h5.52ZM1732,831.88h-3l2.65-4.07,3.57,1.35Z"
     transform="translate(-1604.41 -759.9)"
     fill="#fff"
     id="path54" />
  <path
     d="M1746,851.17a7.29,7.29,0,0,1-5.72-2.72l1.82-2.8a5.51,5.51,0,0,0,3.7,1.95,2,2,0,0,0,2.1-2.3v-8.45h-6V833.5h10v11.9C1751.9,849.08,1749.65,851.17,1746,851.17Z"
     transform="translate(-1604.41 -759.9)"
     fill="#fff"
     id="path56" />
  <path
     d="M1768.75,833.5v3.27h-9.37v3.8h8.45v3.27h-8.45v3.87H1769V851h-13.6V833.5h13.32Z"
     transform="translate(-1604.41 -759.9)"
     fill="#fff"
     id="path58" />
  <path
     d="M1776.55,833.5l5.1,10.7,5.07-10.7h4.4V851h-3.55V839.2l-4.65,10h-2.57l-4.65-10V851h-3.57V833.5h4.42Z"
     transform="translate(-1604.41 -759.9)"
     fill="#fff"
     id="path60" />
  <path
     d="M1631.33,863.5v3.35H1626V881H1622V866.85h-5.32V863.5h14.62Z"
     transform="translate(-1604.41 -759.9)"
     fill="#fff"
     id="path62" />
  <path
     d="M1643.19,877.6h-8.1l-1.37,3.4h-4.07l7.6-17.5h4.07l7.47,17.5h-4.22Zm-1.27-3.17-2.75-6.8-2.77,6.8h5.52Z"
     transform="translate(-1604.41 -759.9)"
     fill="#fff"
     id="path64" />
  <path
     d="M1654.21,863.5l8.5,11.25V863.5h3.75V881h-3.6l-8.47-11.22V881h-3.77V863.5h3.6Z"
     transform="translate(-1604.41 -759.9)"
     fill="#fff"
     id="path66" />
  <path
     d="M1678.44,866.8a5.39,5.39,0,0,0,0,10.77,6.75,6.75,0,0,0,4.55-2l2.32,2.52a10.24,10.24,0,0,1-7.07,3.12,8.88,8.88,0,0,1-9.17-8.95c0-5,4-8.85,9.32-8.85a10,10,0,0,1,6.9,2.9l-2.3,2.8A6.33,6.33,0,0,0,1678.44,866.8Zm-2.2-8.82,1.55,2.3,1.55-2.3h3.1l-2.92,4h-3.45l-2.92-4h3.1Z"
     transform="translate(-1604.41 -759.9)"
     fill="#fff"
     id="path68" />
  <path
     d="M1691.61,863.5V881h-3.95V863.5h3.95Z"
     transform="translate(-1604.41 -759.9)"
     fill="#fff"
     id="path70" />
  <path
     d="M1708.38,863.5v3.35H1703V881h-3.95V866.85h-5.32V863.5h14.62Z"
     transform="translate(-1604.41 -759.9)"
     fill="#fff"
     id="path72" />
  <path
     d="M1722.61,866.7c-1.32,0-2.22.48-2.22,1.42,0,3.22,9.32,1.42,9.3,7.72,0,3.42-3,5.27-6.85,5.27a12.28,12.28,0,0,1-7.72-2.77l1.57-3.22a10.36,10.36,0,0,0,6.2,2.63c1.62,0,2.6-.6,2.6-1.67,0-3.3-9.32-1.37-9.32-7.57,0-3.17,2.72-5.17,6.77-5.17a12.51,12.51,0,0,1,6.65,1.9l-1.53,3.27A12.2,12.2,0,0,0,1722.61,866.7Z"
     transform="translate(-1604.41 -759.9)"
     fill="#fff"
     id="path74" />
  <path
     d="M1742.09,863.5l8.5,11.25V863.5h3.75V881h-3.6l-8.47-11.22V881h-3.77V863.5h3.6Z"
     transform="translate(-1604.41 -759.9)"
     fill="#fff"
     id="path76" />
  <path
     d="M1769.73,877.6h-8.1l-1.37,3.4h-4.07l7.6-17.5h4.07l7.47,17.5h-4.22Zm-1.27-3.17-2.75-6.8-2.77,6.8h5.52Zm-1.65-12.55h-3l2.65-4.07,3.57,1.35Z"
     transform="translate(-1604.41 -759.9)"
     fill="#fff"
     id="path78" />
  <path
     d="M1781.58,863.5l5.1,10.7,5.07-10.7h4.4V881h-3.55V869.2l-4.65,10h-2.57l-4.65-10V881h-3.57V863.5h4.42Z"
     transform="translate(-1604.41 -759.9)"
     fill="#fff"
     id="path80" />
  <path
     d="M1804,863.5V881H1800V863.5H1804Z"
     transform="translate(-1604.41 -759.9)"
     fill="#fff"
     id="path82" />
  <path
     d="M1811.56,863.48c3.2,0,5.25,1.52,5.25,4.3,0,3.85-3.87,4.22-3.87,7.32H1810c0-3.92,3.22-4.07,3.22-6.7,0-1.2-.77-1.75-2-1.75s-2.15.78-2.22,2.35l-3,0C1806.09,865.5,1808.16,863.48,1811.56,863.48Zm1.8,15.75a1.93,1.93,0,1,1-3.85,0A1.92,1.92,0,1,1,1813.36,879.23Z"
     transform="translate(-1604.41 -759.9)"
     fill="#fff"
     id="path84" />
  <g
     aria-label="Chceš být součástí
B-SOUL?"
     style="font-style:normal;font-weight:normal;font-size:16.98440933px;line-height:1.25;font-family:sans-serif;text-align:center;letter-spacing:0px;word-spacing:0px;text-anchor:middle;fill:#000000;fill-opacity:1;stroke:none;stroke-width:0.42461023"
     id="text97">
    <path
       d="m 44.271461,164.14265 q -0.456124,0.19904 -0.829317,0.3732 -0.364899,0.17415 -0.962008,0.36489 -0.505883,0.15757 -1.102991,0.26539 -0.588815,0.1161 -1.302028,0.1161 -1.343493,0 -2.446484,-0.37319 -1.094699,-0.38149 -1.907429,-1.18593 -0.796144,-0.78785 -1.243975,-1.99865 -0.447831,-1.21909 -0.447831,-2.82797 0,-1.52594 0.431244,-2.72845 0.431245,-1.20251 1.243976,-2.03183 0.787851,-0.80444 1.899135,-1.22739 1.119578,-0.42295 2.479658,-0.42295 0.99518,0 1.982067,0.2405 0.99518,0.2405 2.205983,0.84591 v 1.94889 h -0.124398 q -1.020059,-0.8542 -2.023533,-1.24397 -1.003473,-0.38978 -2.147931,-0.38978 -0.937128,0 -1.691806,0.30684 -0.746385,0.29856 -1.3352,0.93713 -0.572229,0.62199 -0.895662,1.5757 -0.315141,0.94543 -0.315141,2.1894 0,1.30203 0.348313,2.23916 0.356607,0.93712 0.912249,1.52594 0.580522,0.61369 1.351786,0.91225 0.779558,0.29026 1.642048,0.29026 1.185923,0 2.222569,-0.40637 1.036646,-0.40636 1.940601,-1.21909 h 0.116105 z"
       style="text-align:center;text-anchor:middle;fill:#ffffff;stroke-width:0.42461023"
       id="path101" />
    <path
       d="M 54.231556,165.03831 H 52.67244 v -5.27445 q 0,-0.63857 -0.07464,-1.19422 -0.07464,-0.56393 -0.273675,-0.87907 -0.207329,-0.34832 -0.597108,-0.51418 -0.389779,-0.17416 -1.011766,-0.17416 -0.638574,0 -1.335201,0.31514 -0.696626,0.31515 -1.3352,0.80444 v 6.9165 h -1.559115 v -12.90417 h 1.559115 v 4.66906 q 0.729799,-0.6054 1.509357,-0.94542 0.779558,-0.34002 1.600582,-0.34002 1.501063,0 2.288914,0.90395 0.787851,0.90396 0.787851,2.60406 z"
       style="text-align:center;text-anchor:middle;fill:#ffffff;stroke-width:0.42461023"
       id="path103" />
    <path
       d="m 64.083841,164.45779 q -0.779558,0.3732 -1.484478,0.58052 -0.696626,0.20733 -1.484477,0.20733 -1.003473,0 -1.841083,-0.29026 -0.83761,-0.29855 -1.434718,-0.89566 -0.605402,-0.59711 -0.937128,-1.50936 -0.331727,-0.91224 -0.331727,-2.13134 0,-2.27233 1.243975,-3.56606 1.252269,-1.29374 3.300681,-1.29374 0.796144,0 1.559116,0.22392 0.771265,0.22391 1.409839,0.54735 v 1.73327 h -0.08293 q -0.713213,-0.55564 -1.476184,-0.8542 -0.754678,-0.29855 -1.476184,-0.29855 -1.326907,0 -2.098172,0.89566 -0.762971,0.88737 -0.762971,2.61235 0,1.67522 0.746385,2.57918 0.754678,0.89566 2.114758,0.89566 0.472711,0 0.962008,-0.1244 0.489296,-0.1244 0.879075,-0.32343 0.34002,-0.17416 0.638574,-0.3649 0.298554,-0.19904 0.472711,-0.34002 h 0.08293 z"
       style="text-align:center;text-anchor:middle;fill:#ffffff;stroke-width:0.42461023"
       id="path105" />
    <path
       d="m 73.844901,160.5683 h -6.825277 q 0,0.85419 0.257088,1.49277 0.257088,0.63028 0.704919,1.03664 0.431245,0.39808 1.02006,0.59711 0.597108,0.19904 1.31032,0.19904 0.945422,0 1.899136,-0.3732 0.962008,-0.38148 1.368373,-0.74638 h 0.08293 v 1.7001 q -0.787851,0.33173 -1.608875,0.55564 -0.821024,0.22392 -1.724979,0.22392 -2.305501,0 -3.599235,-1.24398 -1.293735,-1.25227 -1.293735,-3.54947 0,-2.27233 1.235682,-3.60753 1.243976,-1.3352 3.267509,-1.3352 1.874256,0 2.886023,1.0947 1.020059,1.09469 1.020059,3.10993 z m -1.51765,-1.19422 q -0.0083,-1.22739 -0.621987,-1.89913 -0.605402,-0.67175 -1.849377,-0.67175 -1.252268,0 -1.998653,0.73809 -0.738092,0.73809 -0.83761,1.83279 z"
       style="text-align:center;text-anchor:middle;fill:#ffffff;stroke-width:0.42461023"
       id="path107" />
    <path
       d="m 82.826402,162.36791 q 0,1.26886 -1.053233,2.08159 -1.044939,0.81273 -2.861143,0.81273 -1.028353,0 -1.890843,-0.2405 -0.854196,-0.2488 -1.434718,-0.53906 v -1.74986 h 0.08293 q 0.738092,0.55565 1.642047,0.88737 0.903956,0.32344 1.733273,0.32344 1.028353,0 1.608874,-0.33173 0.580522,-0.33173 0.580522,-1.04494 0,-0.54735 -0.31514,-0.82932 -0.315141,-0.28196 -1.210803,-0.481 -0.331727,-0.0746 -0.870783,-0.17416 -0.530762,-0.0995 -0.9703,-0.21562 -1.219096,-0.32343 -1.733273,-0.94542 -0.505883,-0.63028 -0.505883,-1.54253 0,-0.57223 0.232209,-1.07811 0.240502,-0.50588 0.721506,-0.90396 0.464417,-0.38978 1.17763,-0.61369 0.721505,-0.23221 1.608874,-0.23221 0.829317,0 1.67522,0.20733 0.854197,0.19904 1.418132,0.4893 v 1.66692 h -0.08293 q -0.597108,-0.43953 -1.451304,-0.73809 -0.854196,-0.30685 -1.67522,-0.30685 -0.854197,0 -1.443011,0.33173 -0.588815,0.32343 -0.588815,0.9703 0,0.57223 0.356606,0.86249 0.348313,0.29026 1.127871,0.47271 0.431244,0.0995 0.962007,0.19904 0.539056,0.0995 0.895662,0.18245 1.086406,0.24879 1.675221,0.85419 0.588815,0.6137 0.588815,1.62546 z m -0.630281,-11.22895 -1.890843,3.14312 h -1.882549 l -1.890842,-3.14312 H 77.8505 l 1.534237,2.12306 1.525943,-2.12306 z"
       style="text-align:center;text-anchor:middle;fill:#ffffff;stroke-width:0.42461023"
       id="path109" />
    <path
       d="m 99.188824,160.33609 q 0,1.16104 -0.331727,2.08988 -0.323434,0.92883 -0.879076,1.55911 -0.588815,0.65516 -1.293734,0.98689 -0.704919,0.32343 -1.550823,0.32343 -0.787851,0 -1.376666,-0.19074 -0.588815,-0.18245 -1.161043,-0.49759 l -0.09952,0.43124 h -1.459598 v -12.90417 h 1.559116 v 4.61101 q 0.65516,-0.53906 1.393252,-0.87908 0.738092,-0.34831 1.658634,-0.34831 1.642047,0 2.587468,1.26056 0.953715,1.26056 0.953715,3.55777 z m -1.608875,0.0415 q 0,-1.65863 -0.547349,-2.51283 -0.547349,-0.86249 -1.766445,-0.86249 -0.68004,0 -1.376666,0.29856 -0.696626,0.29026 -1.293734,0.75468 v 5.30762 q 0.663453,0.29856 1.136164,0.41466 0.481004,0.11611 1.086405,0.11611 1.293734,0 2.023533,-0.84591 0.738092,-0.85419 0.738092,-2.6704 z"
       style="text-align:center;text-anchor:middle;fill:#ffffff;stroke-width:0.42461023"
       id="path111" />
    <path
       d="m 109.62992,155.77485 -5.40714,12.68025 h -1.66693 l 1.72498,-3.86462 -3.69046,-8.81563 h 1.69181 l 2.84455,6.86674 2.86944,-6.86674 z m -1.84937,-4.63589 -2.26404,3.10165 h -1.23568 l 1.48448,-3.10165 z"
       style="text-align:center;text-anchor:middle;fill:#ffffff;stroke-width:0.42461023"
       id="path113" />
    <path
       d="m 116.48008,164.95538 q -0.43954,0.11611 -0.96201,0.19075 -0.51418,0.0746 -0.92054,0.0746 -1.41813,0 -2.15623,-0.76297 -0.73809,-0.76297 -0.73809,-2.44648 v -4.92614 h -1.05323 v -1.31032 h 1.05323 v -2.66211 h 1.55912 v 2.66211 h 3.21775 v 1.31032 h -3.21775 v 4.22122 q 0,0.7298 0.0332,1.14446 0.0332,0.40636 0.23221,0.76297 0.18245,0.33172 0.49759,0.48929 0.32343,0.14928 0.97859,0.14928 0.38149,0 0.79615,-0.10781 0.41466,-0.1161 0.59711,-0.19074 h 0.0829 z"
       style="text-align:center;text-anchor:middle;fill:#ffffff;stroke-width:0.42461023"
       id="path115" />
    <path
       d="m 130.95995,162.36791 q 0,1.26886 -1.05323,2.08159 -1.04494,0.81273 -2.86114,0.81273 -1.02835,0 -1.89084,-0.2405 -0.8542,-0.2488 -1.43472,-0.53906 v -1.74986 h 0.0829 q 0.73809,0.55565 1.64205,0.88737 0.90395,0.32344 1.73327,0.32344 1.02835,0 1.60887,-0.33173 0.58053,-0.33173 0.58053,-1.04494 0,-0.54735 -0.31514,-0.82932 -0.31515,-0.28196 -1.21081,-0.481 -0.33172,-0.0746 -0.87078,-0.17416 -0.53076,-0.0995 -0.9703,-0.21562 -1.2191,-0.32343 -1.73327,-0.94542 -0.50589,-0.63028 -0.50589,-1.54253 0,-0.57223 0.23221,-1.07811 0.2405,-0.50588 0.72151,-0.90396 0.46442,-0.38978 1.17763,-0.61369 0.7215,-0.23221 1.60887,-0.23221 0.82932,0 1.67522,0.20733 0.8542,0.19904 1.41813,0.4893 v 1.66692 h -0.0829 q -0.59711,-0.43953 -1.4513,-0.73809 -0.8542,-0.30685 -1.67522,-0.30685 -0.8542,0 -1.44301,0.33173 -0.58882,0.32343 -0.58882,0.9703 0,0.57223 0.35661,0.86249 0.34831,0.29026 1.12787,0.47271 0.43124,0.0995 0.96201,0.19904 0.53905,0.0995 0.89566,0.18245 1.0864,0.24879 1.67522,0.85419 0.58881,0.6137 0.58881,1.62546 z"
       style="text-align:center;text-anchor:middle;fill:#ffffff;stroke-width:0.42461023"
       id="path117" />
    <path
       d="m 141.0942,160.41073 q 0,2.26403 -1.16104,3.57435 -1.16104,1.31032 -3.10994,1.31032 -1.96548,0 -3.12652,-1.31032 -1.15275,-1.31032 -1.15275,-3.57435 0,-2.26404 1.15275,-3.57436 1.16104,-1.31861 3.12652,-1.31861 1.9489,0 3.10994,1.31861 1.16104,1.31032 1.16104,3.57436 z m -1.60887,0 q 0,-1.79962 -0.70492,-2.6704 -0.70492,-0.87908 -1.95719,-0.87908 -1.26885,0 -1.97377,0.87908 -0.69663,0.87078 -0.69663,2.6704 0,1.74156 0.70492,2.64552 0.70492,0.89566 1.96548,0.89566 1.24398,0 1.9489,-0.88737 0.71321,-0.89566 0.71321,-2.65381 z"
       style="text-align:center;text-anchor:middle;fill:#ffffff;stroke-width:0.42461023"
       id="path119" />
    <path
       d="m 151.19528,165.03831 h -1.55911 v -1.02835 q -0.78785,0.62199 -1.50936,0.95372 -0.7215,0.33172 -1.59229,0.33172 -1.45959,0 -2.27232,-0.88737 -0.81273,-0.89566 -0.81273,-2.62064 v -6.01254 h 1.55911 v 5.27445 q 0,0.70492 0.0663,1.2108 0.0663,0.49759 0.28196,0.8542 0.22392,0.3649 0.58053,0.53076 0.3566,0.16587 1.03664,0.16587 0.6054,0 1.31862,-0.31514 0.7215,-0.31514 1.34349,-0.80444 v -6.9165 h 1.55911 z"
       style="text-align:center;text-anchor:middle;fill:#ffffff;stroke-width:0.42461023"
       id="path121" />
    <path
       d="m 161.11392,164.45779 q -0.77956,0.3732 -1.48448,0.58052 -0.69663,0.20733 -1.48448,0.20733 -1.00347,0 -1.84108,-0.29026 -0.83761,-0.29855 -1.43472,-0.89566 -0.6054,-0.59711 -0.93713,-1.50936 -0.33173,-0.91224 -0.33173,-2.13134 0,-2.27233 1.24398,-3.56606 1.25227,-1.29374 3.30068,-1.29374 0.79615,0 1.55912,0.22392 0.77126,0.22391 1.40984,0.54735 v 1.73327 h -0.0829 q -0.71321,-0.55564 -1.47618,-0.8542 -0.75468,-0.29855 -1.47618,-0.29855 -1.32691,0 -2.09818,0.89566 -0.76297,0.88737 -0.76297,2.61235 0,1.67522 0.74639,2.57918 0.75468,0.89566 2.11476,0.89566 0.47271,0 0.962,-0.1244 0.4893,-0.1244 0.87908,-0.32343 0.34002,-0.17416 0.63857,-0.3649 0.29856,-0.19904 0.47271,-0.34002 h 0.0829 z m -0.26539,-13.31883 -1.89084,3.14312 h -1.88255 l -1.89084,-3.14312 h 1.31861 l 1.53424,2.12306 1.52594,-2.12306 z"
       style="text-align:center;text-anchor:middle;fill:#ffffff;stroke-width:0.42461023"
       id="path123" />
    <path
       d="m 170.31933,165.03831 h -1.55082 v -0.98688 q -0.20733,0.14098 -0.56394,0.39807 -0.34831,0.24879 -0.68004,0.39807 -0.38978,0.19074 -0.89566,0.31514 -0.50588,0.13269 -1.18592,0.13269 -1.25227,0 -2.12305,-0.82931 -0.87079,-0.82932 -0.87079,-2.11476 0,-1.05323 0.44783,-1.7001 0.45613,-0.65516 1.29374,-1.02835 0.8459,-0.3732 2.03182,-0.50589 1.18593,-0.13269 2.54601,-0.19903 v -0.24051 q 0,-0.53076 -0.19075,-0.87907 -0.18244,-0.34831 -0.53076,-0.54735 -0.33172,-0.19074 -0.79614,-0.25709 -0.46442,-0.0663 -0.9703,-0.0663 -0.6137,0 -1.36838,0.16586 -0.75467,0.15757 -1.55911,0.46442 h -0.0829 v -1.584 q 0.45612,-0.1244 1.31861,-0.27367 0.86249,-0.14928 1.7001,-0.14928 0.97859,0 1.7001,0.16586 0.7298,0.15757 1.26056,0.54735 0.52247,0.38149 0.79615,0.98689 0.27367,0.6054 0.27367,1.50106 z m -1.55082,-2.28062 v -2.57917 q -0.71321,0.0415 -1.68352,0.1244 -0.962,0.0829 -1.52594,0.2405 -0.67175,0.19074 -1.0864,0.59711 -0.41466,0.39807 -0.41466,1.10299 0,0.79614 0.481,1.20251 0.48101,0.39807 1.46789,0.39807 0.82103,0 1.50107,-0.31514 0.68004,-0.32344 1.26056,-0.77127 z m 0.56393,-11.61873 -2.26403,3.10165 h -1.23568 l 1.48447,-3.10165 z"
       style="text-align:center;text-anchor:middle;fill:#ffffff;stroke-width:0.42461023"
       id="path125" />
    <path
       d="m 179.95599,162.36791 q 0,1.26886 -1.05324,2.08159 -1.04493,0.81273 -2.86114,0.81273 -1.02835,0 -1.89084,-0.2405 -0.8542,-0.2488 -1.43472,-0.53906 v -1.74986 h 0.0829 q 0.73809,0.55565 1.64205,0.88737 0.90396,0.32344 1.73327,0.32344 1.02835,0 1.60888,-0.33173 0.58052,-0.33173 0.58052,-1.04494 0,-0.54735 -0.31514,-0.82932 -0.31514,-0.28196 -1.2108,-0.481 -0.33173,-0.0746 -0.87079,-0.17416 -0.53076,-0.0995 -0.9703,-0.21562 -1.21909,-0.32343 -1.73327,-0.94542 -0.50588,-0.63028 -0.50588,-1.54253 0,-0.57223 0.23221,-1.07811 0.2405,-0.50588 0.7215,-0.90396 0.46442,-0.38978 1.17763,-0.61369 0.72151,-0.23221 1.60888,-0.23221 0.82931,0 1.67522,0.20733 0.85419,0.19904 1.41813,0.4893 v 1.66692 h -0.0829 q -0.59711,-0.43953 -1.45131,-0.73809 -0.8542,-0.30685 -1.67522,-0.30685 -0.8542,0 -1.44301,0.33173 -0.58882,0.32343 -0.58882,0.9703 0,0.57223 0.35661,0.86249 0.34831,0.29026 1.12787,0.47271 0.43125,0.0995 0.96201,0.19904 0.53906,0.0995 0.89566,0.18245 1.08641,0.24879 1.67522,0.85419 0.58882,0.6137 0.58882,1.62546 z"
       style="text-align:center;text-anchor:middle;fill:#ffffff;stroke-width:0.42461023"
       id="path127" />
    <path
       d="m 187.00519,164.95538 q -0.43954,0.11611 -0.962,0.19075 -0.51418,0.0746 -0.92055,0.0746 -1.41813,0 -2.15622,-0.76297 -0.73809,-0.76297 -0.73809,-2.44648 v -4.92614 h -1.05323 v -1.31032 h 1.05323 v -2.66211 h 1.55911 v 2.66211 h 3.21775 v 1.31032 h -3.21775 v 4.22122 q 0,0.7298 0.0332,1.14446 0.0332,0.40636 0.2322,0.76297 0.18245,0.33172 0.49759,0.48929 0.32344,0.14928 0.9786,0.14928 0.38148,0 0.79614,-0.10781 0.41466,-0.1161 0.59711,-0.19074 h 0.0829 z"
       style="text-align:center;text-anchor:middle;fill:#ffffff;stroke-width:0.42461023"
       id="path129" />
    <path
       d="m 190.47172,165.03831 h -1.55911 v -9.26346 h 1.55911 z m 1.71669,-13.89935 -2.26404,3.10165 h -1.23568 l 1.48448,-3.10165 z"
       style="text-align:center;text-anchor:middle;fill:#ffffff;stroke-width:0.42461023"
       id="path131" />
    <path
       d="m 85.811942,182.47056 q 0,0.92054 -0.348313,1.62546 -0.348313,0.70492 -0.937128,1.16104 -0.696626,0.54735 -1.534236,0.77956 -0.829317,0.23221 -2.114758,0.23221 H 76.498714 V 173.9203 h 3.657287 q 1.351787,0 2.023534,0.0995 0.671746,0.0995 1.285441,0.41465 0.68004,0.35661 0.986887,0.92055 0.306847,0.55564 0.306847,1.3352 0,0.87907 -0.447831,1.50106 -0.447831,0.61369 -1.194216,0.98689 v 0.0663 q 1.252268,0.25709 1.973774,1.10299 0.721505,0.83761 0.721505,2.12306 z m -2.761625,-5.56472 q 0,-0.44783 -0.149277,-0.75468 -0.149277,-0.30685 -0.481004,-0.49759 -0.389778,-0.22391 -0.945421,-0.27367 -0.555642,-0.0581 -1.376666,-0.0581 h -1.957188 v 3.56607 h 2.123052 q 0.771264,0 1.227389,-0.0746 0.456124,-0.0829 0.845903,-0.33173 0.389779,-0.24879 0.547349,-0.63857 0.165863,-0.39807 0.165863,-0.93713 z m 1.053233,5.63106 q 0,-0.74638 -0.223916,-1.18592 -0.223915,-0.43954 -0.81273,-0.74639 -0.398073,-0.20733 -0.970301,-0.26538 -0.563936,-0.0663 -1.376666,-0.0663 h -2.579176 v 4.59441 h 2.172811 q 1.078112,0 1.766445,-0.10781 0.688333,-0.1161 1.12787,-0.41466 0.464418,-0.32343 0.68004,-0.73809 0.215623,-0.41466 0.215623,-1.06982 z"
       style="text-align:center;text-anchor:middle;fill:#ffffff;stroke-width:0.42461023"
       id="path133" />
    <path
       d="m 93.026999,181.61636 h -5.174937 v -1.50106 h 5.174937 z"
       style="text-align:center;text-anchor:middle;fill:#ffffff;stroke-width:0.42461023"
       id="path135" />
    <path
       d="m 104.77842,182.74423 q 0,0.72151 -0.34002,1.42642 -0.33173,0.70492 -0.93713,1.19422 -0.66345,0.53076 -1.55082,0.82932 -0.87908,0.29855 -2.123054,0.29855 -1.3352,0 -2.405018,-0.24879 -1.061526,-0.2488 -2.164517,-0.7381 v -2.0567 h 0.116104 q 0.937128,0.77956 2.164517,1.20251 1.227389,0.42295 2.305501,0.42295 1.525947,0 2.371847,-0.57223 0.8542,-0.57223 0.8542,-1.52594 0,-0.82103 -0.40637,-1.2108 -0.39807,-0.38978 -1.2191,-0.60541 -0.62198,-0.16586 -1.35178,-0.27367 -0.721508,-0.10781 -1.534238,-0.27367 -1.642048,-0.34832 -2.438192,-1.18593 -0.787851,-0.8459 -0.787851,-2.19769 0,-1.55082 1.310321,-2.53771 1.31032,-0.99518 3.32556,-0.99518 1.30203,0 2.38843,0.2488 1.08641,0.24879 1.92402,0.61369 v 1.9406 h -0.11611 q -0.70492,-0.5971 -1.85767,-0.98688 -1.14445,-0.39808 -2.346963,-0.39808 -1.318614,0 -2.123051,0.54735 -0.796144,0.54735 -0.796144,1.40984 0,0.77127 0.398072,1.21081 0.398072,0.43953 1.401545,0.67174 0.530763,0.11611 1.509361,0.28197 0.97859,0.16586 1.65863,0.34002 1.37667,0.3649 2.07329,1.10299 0.69663,0.73809 0.69663,2.065 z"
       style="text-align:center;text-anchor:middle;fill:#ffffff;stroke-width:0.42461023"
       id="path137" />
    <path
       d="m 116.62106,175.33843 q 0.75468,0.82932 1.15275,2.03183 0.40637,1.20251 0.40637,2.72845 0,1.52594 -0.41466,2.73674 -0.40636,1.20251 -1.14446,2.00695 -0.76297,0.83761 -1.80791,1.26056 -1.03664,0.42295 -2.37184,0.42295 -1.30203,0 -2.37185,-0.43124 -1.06152,-0.43124 -1.80791,-1.25227 -0.74638,-0.82102 -1.15275,-2.01524 -0.39807,-1.19421 -0.39807,-2.72845 0,-1.50936 0.39807,-2.70357 0.39807,-1.20251 1.16104,-2.05671 0.7298,-0.81273 1.80791,-1.24398 1.08641,-0.43124 2.36356,-0.43124 1.3269,0 2.38014,0.43954 1.06152,0.43124 1.79961,1.23568 z m -0.14927,4.76028 q 0,-2.40502 -1.07811,-3.70705 -1.07812,-1.31032 -2.94408,-1.31032 -1.88255,0 -2.96066,1.31032 -1.06982,1.30203 -1.06982,3.70705 0,2.4299 1.0947,3.72363 1.0947,1.28544 2.93578,1.28544 1.84108,0 2.92749,-1.28544 1.0947,-1.29373 1.0947,-3.72363 z"
       style="text-align:center;text-anchor:middle;fill:#ffffff;stroke-width:0.42461023"
       id="path139" />
    <path
       d="m 130.08088,181.30951 q 0,1.34349 -0.29856,2.34697 -0.29026,0.99518 -0.962,1.65863 -0.63858,0.63028 -1.49277,0.92054 -0.8542,0.29026 -1.99036,0.29026 -1.16105,0 -2.02354,-0.30684 -0.86249,-0.30685 -1.4513,-0.90396 -0.67175,-0.68004 -0.9703,-1.64205 -0.29026,-0.962 -0.29026,-2.36355 v -7.38921 h 1.64204 v 7.47214 q 0,1.00348 0.13269,1.584 0.14099,0.58052 0.46442,1.05323 0.3649,0.53906 0.98689,0.81273 0.63028,0.27368 1.50936,0.27368 0.88737,0 1.50935,-0.26539 0.62199,-0.27367 0.99518,-0.82102 0.32344,-0.47271 0.45613,-1.07811 0.14098,-0.6137 0.14098,-1.51765 v -7.51361 h 1.64205 z"
       style="text-align:center;text-anchor:middle;fill:#ffffff;stroke-width:0.42461023"
       id="path141" />
    <path
       d="m 141.03615,186.26883 h -7.81216 V 173.9203 h 1.64204 v 10.88893 h 6.17012 z"
       style="text-align:center;text-anchor:middle;fill:#ffffff;stroke-width:0.42461023"
       id="path143" />
    <path
       d="m 149.3542,176.82291 q 0,0.81273 -0.29026,1.4513 -0.29026,0.63028 -0.76297,1.11958 -0.46442,0.47271 -1.06982,0.88737 -0.6054,0.41466 -1.28544,0.80444 v 1.86596 h -1.48448 v -2.52942 q 0.53906,-0.30684 1.16105,-0.67174 0.63028,-0.3649 1.02835,-0.7381 0.481,-0.43124 0.74639,-0.88737 0.26538,-0.46441 0.26538,-1.17763 0,-0.93712 -0.63858,-1.39325 -0.63028,-0.46441 -1.63375,-0.46441 -0.89566,0 -1.7001,0.28196 -0.79614,0.28197 -1.26056,0.57223 h -0.0829 v -1.6918 q 0.58052,-0.22392 1.46789,-0.39808 0.89566,-0.18245 1.6918,-0.18245 1.78303,0 2.81139,0.87079 1.03664,0.86249 1.03664,2.28062 z m -3.2758,9.44592 h -1.6918 v -1.74986 h 1.6918 z"
       style="text-align:center;text-anchor:middle;fill:#ffffff;stroke-width:0.42461023"
       id="path145" />
  </g>
</svg>
