<svg id="Hover" xmlns="http://www.w3.org/2000/svg" viewBox="0 0 239.99 225.02"><title>join-us-hover</title><path d="M1517.84,772.75c29.16,25.24,49,59.69,53.68,98,0.08,0.92,1.55,1,1.47,0-2.4-38.82-22-76.72-53.83-99.74a1.08,1.08,0,0,0-1.31,1.69h0Z" transform="translate(-1333 -763)" fill="#fff"/><path d="M1348.68,837s0.31-.61.85-1.84,1.47-3,2.63-5.22a160.88,160.88,0,0,1,11.52-19,140,140,0,0,1,10-12.43c1.93-2.15,4-4.37,6.27-6.52s4.72-4.37,7.35-6.44a106.63,106.63,0,0,1,17.94-11.89,92,92,0,0,1,22.51-8.29,91,91,0,0,1,26.07-2.22,103.35,103.35,0,0,1,27.54,5.29,113.8,113.8,0,0,1,13.54,5.52c1.16,0.54,2.17,1.07,3.33,1.69s2.17,1.07,3.25,1.76c2.24,1.23,4.33,2.53,6.5,3.91a111.51,111.51,0,0,1,23.36,20.18,111.79,111.79,0,0,1,16.32,123.21c-0.62,1.3-1.24,2.46-1.93,3.76l-1,1.76-1.08,1.84c-1.47,2.46-2.94,4.83-4.56,7.14s-3.25,4.53-5,6.75-3.64,4.3-5.57,6.37A116.66,116.66,0,0,1,1502.21,973a113.59,113.59,0,0,1-30.63,12,116.14,116.14,0,0,1-32,2.84,111.68,111.68,0,0,1-30.48-5.83,116.41,116.41,0,0,1-13.85-5.75c-1.08-.54-2.17-1.07-3.33-1.69s-2.09-1.15-3.17-1.76c-2.17-1.23-4.18-2.53-6.19-3.84a110.48,110.48,0,0,1-21.12-18.26,115.86,115.86,0,0,1-15-21.25,110.29,110.29,0,0,1-9-22,114.26,114.26,0,0,1-3.94-21.1,108.32,108.32,0,0,1,2.48-34.52,110.12,110.12,0,0,1,7.35-21c1.08-2.3,2-4.07,2.63-5.22s0.93-1.76.93-1.76-0.31.61-.85,1.84-1.39,3-2.4,5.29a112.38,112.38,0,0,0-6.42,21.1,108.86,108.86,0,0,0,48,112.93,109.89,109.89,0,0,0,54.68,17.34,107.73,107.73,0,0,0,30.4-3,109.66,109.66,0,0,0,29-11.58,105.08,105.08,0,0,0,24.75-19.64c1.86-1.92,3.56-3.91,5.26-6s3.25-4.22,4.8-6.37a76.37,76.37,0,0,0,4.25-6.75l1-1.69,1-1.76c0.62-1.15,1.24-2.38,1.86-3.53a105.81,105.81,0,0,0,10-61.68,110.24,110.24,0,0,0-8.59-29.84,106.44,106.44,0,0,0-16.32-25.62,110.19,110.19,0,0,0-22-19.56c-2-1.3-4.1-2.61-6.11-3.84-1-.61-2.09-1.15-3.17-1.76s-2.09-1.07-3.17-1.61a125.59,125.59,0,0,0-12.92-5.52,101.69,101.69,0,0,0-13.15-3.68,98.52,98.52,0,0,0-13.15-1.84,93.79,93.79,0,0,0-25.14,1.61,92.46,92.46,0,0,0-22,7.52,101.88,101.88,0,0,0-17.87,11.12,130.9,130.9,0,0,0-24.06,24.4,164.27,164.27,0,0,0-12.22,18.49c-1.24,2.22-2.24,3.91-2.86,5.14A16.69,16.69,0,0,1,1348.68,837Z" transform="translate(-1333 -763)" fill="#fff"/><path d="M1365.4,884.17a7,7,0,0,1-5.5-2.62l1.75-2.69a5.29,5.29,0,0,0,3.55,1.87,1.93,1.93,0,0,0,2-2.21v-8.11h-5.78V867.2h9.6v11.42C1371,882.15,1368.88,884.17,1365.4,884.17Z" transform="translate(-1333 -763)" fill="#fff"/><path d="M1390.39,875.6c0,4.94-3.67,8.4-9,8.4h-7V867.2h7.13C1386.76,867.2,1390.39,870.63,1390.39,875.6Zm-3.86,0a5,5,0,0,0-5-5.23h-3.26v10.42h3.43A4.84,4.84,0,0,0,1386.52,875.62Z" transform="translate(-1333 -763)" fill="#fff"/><path d="M1400.2,880.86a3.56,3.56,0,0,0,3.74-3.89V867.2h3.79V877c0,4.44-2.9,7.2-7.54,7.2s-7.63-2.76-7.63-7.2V867.2h3.79V877A3.63,3.63,0,0,0,1400.2,880.86Z" transform="translate(-1333 -763)" fill="#fff"/><path d="M1432.87,875.6c0,4.94-3.67,8.4-9,8.4h-7V867.2H1424C1429.24,867.2,1432.87,870.63,1432.87,875.6Zm-3.86,0a5,5,0,0,0-5-5.23h-3.26v10.42h3.43A4.84,4.84,0,0,0,1429,875.62Z" transform="translate(-1333 -763)" fill="#fff"/><path d="M1451.78,875.6c0,4.85-3.89,8.57-9,8.57s-9-3.7-9-8.57,3.89-8.52,9-8.52S1451.78,870.73,1451.78,875.6Zm-14.16,0a5.22,5.22,0,0,0,5.18,5.26A5.23,5.23,0,1,0,1437.62,875.6Z" transform="translate(-1333 -763)" fill="#fff"/><path d="M1472.44,867.2v3.22h-5.14V884h-3.79V870.42h-5.11V867.2h14Z" transform="translate(-1333 -763)" fill="#fff"/><path d="M1490.42,875.6c0,4.85-3.89,8.57-9,8.57s-9-3.7-9-8.57,3.89-8.52,9-8.52S1490.42,870.73,1490.42,875.6Zm-14.16,0a5.22,5.22,0,0,0,5.18,5.26A5.23,5.23,0,1,0,1476.26,875.6Z" transform="translate(-1333 -763)" fill="#fff"/><path d="M1496.7,867.2v7h7.61v-7h3.79V884h-3.79v-6.62h-7.61V884h-3.79V867.2h3.79Z" transform="translate(-1333 -763)" fill="#fff"/><path d="M1528.65,875.6c0,4.85-3.89,8.57-9,8.57s-9-3.7-9-8.57,3.89-8.52,9-8.52S1528.65,870.73,1528.65,875.6Zm-14.16,0a5.22,5.22,0,0,0,5.18,5.26A5.23,5.23,0,1,0,1514.49,875.6Z" transform="translate(-1333 -763)" fill="#fff"/></svg>