<svg id="instagramIconSocial" xmlns="http://www.w3.org/2000/svg" viewBox="0 0 60 60">
    <title>instagram</title>
    <g id="instagram">
        <circle cx="30" cy="30" r="30" fill="#c0bfbf" />
        <path d="M1811,224.62h-18a5.6,5.6,0,0,0-5.62,5.62v18a5.6,5.6,0,0,0,5.63,5.62h18a5.6,5.6,0,0,0,5.62-5.62v-18A5.6,5.6,0,0,0,1811,224.62Zm1.62,3.37h0.63v5h-5v-5h4.38Zm-14.75,8.25a5.07,5.07,0,0,1,8.25,0,5.09,5.09,0,0,1,1,3,5.13,5.13,0,0,1-10.25,0A5.09,5.09,0,0,1,1797.88,236.25Zm15.88,12A2.77,2.77,0,0,1,1811,251h-18a2.77,2.77,0,0,1-2.75-2.75v-12h4.37a8,8,0,1,0,14.75,0h4.38v12Z" transform="translate(-1772 -209.25)" fill="#414141" />
    </g>
</svg>
