<svg class="underline" xmlns="http://www.w3.org/2000/svg" viewBox="0 0 198.01 8.22">
    <title>underline</title>
    <line x1="0.01" y1="4.75" x2="198.01" y2="3.75" fill="#fff" />
    <path d="M286.76,103.57c0.29,0,.19-0.38.23-0.46C286.5,103.2,286.77,103.68,286.76,103.57Z" transform="translate(-88.99 -102.25)" fill="#fff" />
    <polygon points="192.94 2.29 193.03 2.12 192.32 2.54 192.94 2.29" fill="#fff" />
    <path d="M277.42,104.56c0.43,0.71,1.63-.12,2.44.13l0.13,0.16,0.36-.58A11,11,0,0,1,277.42,104.56Z" transform="translate(-88.99 -102.25)" fill="#fff" />
    <path d="M275,103c0.15,0.28-.52.24,0.56,0.08l-0.1-.07A3.41,3.41,0,0,1,275,103Z" transform="translate(-88.99 -102.25)" fill="#fff" />
    <path d="M275.47,103c0.48,0-.31-0.23,0,0h0Z" transform="translate(-88.99 -102.25)" fill="#fff" />
    <path d="M273.27,103.21l0.62-.25c-0.13-.16-0.69-0.2-0.48-0.32C272.78,102.78,272.91,102.94,273.27,103.21Z" transform="translate(-88.99 -102.25)" fill="#fff" />
    <path d="M272.68,103.73l0.32-.11C273,103.56,272.86,103.54,272.68,103.73Z" transform="translate(-88.99 -102.25)" fill="#fff" />
    <path d="M273.69,103.4l-0.69.23c0.09,0.11.1,0.35,0.32-.08C273.27,103.76,273.4,103.55,273.69,103.4Z" transform="translate(-88.99 -102.25)" fill="#fff" />
    <path d="M274.08,103.51c0.35,0.15.81,0.25,0.18,0.5C275.46,103.9,275.28,103.4,274.08,103.51Z" transform="translate(-88.99 -102.25)" fill="#fff" />
    <path d="M277.2,105.3l0.47,0.21,0.4-.24C277.87,105.38,277.17,105.07,277.2,105.3Z" transform="translate(-88.99 -102.25)" fill="#fff" />
    <path d="M269.37,102.86a2.28,2.28,0,0,0,.26.6l0.46-.18A1.14,1.14,0,0,1,269.37,102.86Z" transform="translate(-88.99 -102.25)" fill="#fff" />
    <path d="M269.63,103.46l-0.69.26C269.56,103.75,269.67,103.63,269.63,103.46Z" transform="translate(-88.99 -102.25)" fill="#fff" />
    <polygon points="183.59 2.27 184.72 1.72 183.37 2.28 183.59 2.27" fill="#fff" />
    <polygon points="177.74 0.6 178.13 0.25 177.44 0.78 177.74 0.6" fill="#fff" />
    <path d="M265,102.92c0.29-.29-0.4-0.49-0.09-0.67a3.07,3.07,0,0,0-1.25.53A1.8,1.8,0,0,1,265,102.92Z" transform="translate(-88.99 -102.25)" fill="#fff" />
    <path d="M263,103.12a3.68,3.68,0,0,0,.61-0.33A1.9,1.9,0,0,0,263,103.12Z" transform="translate(-88.99 -102.25)" fill="#fff" />
    <path d="M267.76,103.65a0.78,0.78,0,0,0-.55-0.43l0.27,0.43h0.27Z" transform="translate(-88.99 -102.25)" fill="#fff" />
    <path d="M267.5,103.66h0l-0.59,0Z" transform="translate(-88.99 -102.25)" fill="#fff" />
    <path d="M267.83,103.65h-0.07S267.81,103.71,267.83,103.65Z" transform="translate(-88.99 -102.25)" fill="#fff" />
    <path d="M270.76,104.15c-0.41.24-1.25,0.5-.43,0.86C270.62,104.72,270.15,104.51,270.76,104.15Z" transform="translate(-88.99 -102.25)" fill="#fff" />
    <path d="M268.17,104.19l0.74,0.09c0-.11-0.15-0.28.05-0.4Z" transform="translate(-88.99 -102.25)" fill="#fff" />
    <polygon points="178.82 2.07 179.18 1.93 178.91 1.9 178.82 2.07" fill="#fff" />
    <path d="M264.29,103.51a2.34,2.34,0,0,1-1.06.24,6.48,6.48,0,0,0,1.27.12C264.56,103.73,264.74,103.49,264.29,103.51Z" transform="translate(-88.99 -102.25)" fill="#fff" />
    <path d="M265.85,103.62l-0.07,0S265.86,103.69,265.85,103.62Z" transform="translate(-88.99 -102.25)" fill="#fff" />
    <path d="M259.37,103.76l0.06,0.08v-0.07h-0.08Z" transform="translate(-88.99 -102.25)" fill="#fff" />
    <path d="M264.57,103.95a0.73,0.73,0,0,0,.68-0.16,4.52,4.52,0,0,1-.75.08C264.47,103.93,264.47,104,264.57,103.95Z" transform="translate(-88.99 -102.25)" fill="#fff" />
    <path d="M261.95,103.32a3.9,3.9,0,0,0,.55.23A0.64,0.64,0,0,0,261.95,103.32Z" transform="translate(-88.99 -102.25)" fill="#fff" />
    <path d="M265.67,103.53l0,0C265.61,103.42,265.63,103.46,265.67,103.53Z" transform="translate(-88.99 -102.25)" fill="#fff" />
    <path d="M265.67,103.53a1.79,1.79,0,0,0-.42.26,2.58,2.58,0,0,0,.52-0.15A0.53,0.53,0,0,1,265.67,103.53Z" transform="translate(-88.99 -102.25)" fill="#fff" />
    <path d="M258.21,106.51a1.1,1.1,0,0,1,1.6-.35c0.7-.3.24-1.6-0.38-2.33,0,0.17,0,.33-0.75.57,0.26,0.22,1.61.5,1,.86-1,.21-0.79-0.14-1.26-0.34,0.4,0.49-1.22.72-1,1.45l0.84-.26C258.28,106.23,258,106.41,258.21,106.51Z" transform="translate(-88.99 -102.25)" fill="#fff" />
    <path d="M260.82,103.87l0.3-.05a2.75,2.75,0,0,1-1-.53,0.84,0.84,0,0,0-.63.48l1.47,0Z" transform="translate(-88.99 -102.25)" fill="#fff" />
    <path d="M262.46,103.82c-0.23.43-.95,0.62-0.51,1.08,0.88,0,.61-0.36,1.14-0.55-1.41.11,0.41-.24-0.62-0.48a4.12,4.12,0,0,1,.76-0.12,5.89,5.89,0,0,1-.73-0.19l0,0h0c0.06,0.05.08,0.09,0,.06h0a0.49,0.49,0,0,1-.06.16c-0.41-.09-0.07-0.11.06-0.16a0.4,0.4,0,0,0,0-.06h0l-1.42.24A5.33,5.33,0,0,0,262.46,103.82Z" transform="translate(-88.99 -102.25)" fill="#fff" />
    <path d="M269.58,105.94a0.12,0.12,0,0,1,0-.1C269.44,105.89,269.41,105.93,269.58,105.94Z" transform="translate(-88.99 -102.25)" fill="#fff" />
    <path d="M269,105.68a0.59,0.59,0,0,1,.52-0.19c0.29,0.13,0,.21,0,0.35,0.2-.12.71-0.31,0.07-0.52l-0.1.06a2.22,2.22,0,0,1-1.21-.74A2.9,2.9,0,0,0,269,105.68Z" transform="translate(-88.99 -102.25)" fill="#fff" />
    <path d="M265.69,104.86l-1.18.22,0.6,0.37,0-.22C265.75,105.31,265.6,105,265.69,104.86Z" transform="translate(-88.99 -102.25)" fill="#fff" />
    <polygon points="170.24 1.3 170.4 0.84 169.72 1.49 170.24 1.3" fill="#fff" />
    <polygon points="168.71 1.36 168.76 0.96 168.36 1.2 168.71 1.36" fill="#fff" />
    <path d="M171.16,109l-0.35.11A1.36,1.36,0,0,0,171.16,109Z" transform="translate(-88.99 -102.25)" fill="#fff" />
    <path d="M173.68,109l0.06-.2C173.62,108.89,173.57,109,173.68,109Z" transform="translate(-88.99 -102.25)" fill="#fff" />
    <path d="M220,103.85c-0.51-.37-1.07-0.94-1-0.49l0.16,0.43A1.38,1.38,0,0,1,220,103.85Z" transform="translate(-88.99 -102.25)" fill="#fff" />
    <path d="M194.24,106.57l0.15,0.13,0.34-.42Z" transform="translate(-88.99 -102.25)" fill="#fff" />
    <path d="M193.89,108.37l-0.67-.28A2.55,2.55,0,0,0,193.89,108.37Z" transform="translate(-88.99 -102.25)" fill="#fff" />
    <path d="M157.45,109.49l-0.4.44C157.68,109.93,157.4,109.71,157.45,109.49Z" transform="translate(-88.99 -102.25)" fill="#fff" />
    <path d="M242,103.85a3.65,3.65,0,0,0-1.09-.26C241.43,103.84,241.85,104.21,242,103.85Z" transform="translate(-88.99 -102.25)" fill="#fff" />
    <path d="M172.13,104.35a0.34,0.34,0,0,0-.3.27C172.05,104.54,172.18,104.46,172.13,104.35Z" transform="translate(-88.99 -102.25)" fill="#fff" />
    <path d="M239.64,103.6l0.23,0.1a3.34,3.34,0,0,1,1-.11A1.18,1.18,0,0,0,239.64,103.6Z" transform="translate(-88.99 -102.25)" fill="#fff" />
    <path d="M107.72,109.38l-0.11-.05C107.59,109.39,107.64,109.39,107.72,109.38Z" transform="translate(-88.99 -102.25)" fill="#fff" />
    <path d="M93.2,105.08a4.63,4.63,0,0,1,.59,0A1.42,1.42,0,0,0,93.2,105.08Z" transform="translate(-88.99 -102.25)" fill="#fff" />
    <path d="M251.53,103.45c0.33,0,.05,0,0,0h0Z" transform="translate(-88.99 -102.25)" fill="#fff" />
    <path d="M253.12,105.16a0.27,0.27,0,0,0-.13.21A0.35,0.35,0,0,1,253.12,105.16Z" transform="translate(-88.99 -102.25)" fill="#fff" />
    <path d="M236.42,106.32h0C236.48,106.4,236.47,106.39,236.42,106.32Z" transform="translate(-88.99 -102.25)" fill="#fff" />
    <path d="M252,103.65a2.09,2.09,0,0,0-.42-0.13A2.18,2.18,0,0,0,252,103.65Z" transform="translate(-88.99 -102.25)" fill="#fff" />
    <path d="M252,103.44l0.28,0C252.28,103.41,252.24,103.37,252,103.44Z" transform="translate(-88.99 -102.25)" fill="#fff" />
    <path d="M251.07,103.48a2.36,2.36,0,0,1,.53,0c-0.06,0-.09-0.05-0.07-0.07Z" transform="translate(-88.99 -102.25)" fill="#fff" />
    <path d="M134.36,108.09l-0.07,0C134,108.23,134.1,108.2,134.36,108.09Z" transform="translate(-88.99 -102.25)" fill="#fff" />
    <path d="M211.58,108.4l0,0h0v0Z" transform="translate(-88.99 -102.25)" fill="#fff" />
    <path d="M210.42,108.72a0.92,0.92,0,0,1,1.16-.37l-0.39-1.25Z" transform="translate(-88.99 -102.25)" fill="#fff" />
    <path d="M165.15,109.12L166,109.5c-1,.65-1.7.43-0.93,1,0.11-1.36,3.19-.16,3.3-1.51l0.54,0.28c-0.16,0-.18.07-0.33,0.05,1.06,0.65.78-1,2.13-.8,0.47,0.1.8,0.3,0.48,0.46l1.05-.34c0.31,0,.23.26-0.07,0.24l1.6-.12v0a6.62,6.62,0,0,1,1-.69c0.41,0.19-.2.15-0.1,0.31l0.89-.33c0.36,0.35-.37.7-1,0.65,0.84,1.35.74-.35,2.53,0.44l-0.84.18c0.55,0.77,1.2.49,2.15,1-0.23-.25-1.91-1.2-0.94-1.54a1.31,1.31,0,0,0,1.15-.13c0,0.48.51,0.36,1.15,0.33l0,0.64a2.27,2.27,0,0,0,1-.8,1.22,1.22,0,0,1,1.11,1c1.23,0.1-.85-0.79.6-0.92a5.08,5.08,0,0,0,3-.41c0.72,0.22-.12.39,0.13,0.57l0.63-.51c0.16,0,.11.17,0.08,0.25,0.53-.2,0-0.64.88-0.82,0.22-.71,1.73,1,2.76.22,0.26,0.18-.12.39,0,0.64a8.52,8.52,0,0,0,2.38-1.1l1,0.41c-0.73-.48.2-1,1-1.52a6.94,6.94,0,0,0-.63-0.53l1.31-.35c0.16,0.1,0,.32-0.18.59l0.24-.15c0.47,0.23.23,0.6-.1,1l-0.47-.39a1.71,1.71,0,0,0-.55,1.2,1,1,0,0,1,.43-0.17,0.27,0.27,0,0,0-.1.26,0.55,0.55,0,0,0,.39-0.24l0.3,0.71,0.07-.28,1.71,0.44c1.22-.72,2.28-1.79,4.22-2.09-0.48.53-.1,0.85-0.12,1.47-0.53-.65-1.5.29-2.51,0.16,0.53,0.07.41,0.36,0.28,0.47l1.79-.61c0,0.51.38,0.38,0.85,0.59-0.36-1,1.33-.67,2.06-1,0,0.34-.13.68-1,0.6,1,0.75,1.26-1.18,2.23-.55-0.22,0-.34,0-0.42.13,0.51-.3,1.75-0.07,1.46.22h-0.22c1.45,0.11,4.4,0,4.61-.87a5.91,5.91,0,0,1-.27,1.2l2.56-2.87c-0.22.73,0.66,2.47-.54,2.89a2.1,2.1,0,0,0,1.49,0c-0.24-.1-0.59-1.05-0.27-1.12a6.51,6.51,0,0,0,1.7,1.12c-0.35-.15,0-1.3.59-1.27a4.35,4.35,0,0,1-.15,1.25l1.38-1.13c-0.34.2-.06,1,0.26,1.27-0.14-.22,1.2,0,1.56-0.1l-0.59-.26c1.56,0.16,1.54-1.59,3.09-1.54-0.19.23-.46,1.43,0.33,1.57,0.36-.58,1.59-2.78,3-3.23l0.26,0.33,1.05-.38a22.34,22.34,0,0,1-3.48,3.42c0.59,0.26.16,0.39,1,.35,0.31,0.31-.47.47-0.73,0.49l2,0.19c-0.09-.67,1.56-0.68,1.47-1.24l-2.21.71c-0.09-.67,1.27-1.91,2.72-1.8,0.37,0.27-.27,1.2-0.24,1.42a2.12,2.12,0,0,1,1.5-.29l-0.61.36c0.81,0.25,1.31-.9,2.28-0.26,0.33,0,1,.86,1.06.46a5.36,5.36,0,0,1-.31-3.71,11.34,11.34,0,0,1,2.14,1.1c0.55,0.6-.82,1.44-0.35,2a1,1,0,0,1,.45-0.49c0.35,0.16-.14.57,0.62,0.48,0.12-.68,1.55,0,0.36-0.58,0.74-.2.79,0.14,1.67,0.1-0.28-.44.78-1.5,1.52-1.7a0.71,0.71,0,0,0,.21.5c1.53,0.05,2.35.36,3.77,0.36,0.13,0.16.82,0.36,0.53,0.66a1.46,1.46,0,0,1,.83-0.37c0.85,0.59-1,.1-0.33.8,0.05-.4,1.13-0.55,1.76-0.8-0.2-.61-1.44-0.11-2.07.14,0-.84,1.08-1.73,2.56-2.13,1.18-.22.52,0.54,0.72,0.42,2.22,0.14,1.88-1.48,3.73-.88,0.73,0.53,0,1.07.2,1.46-1,.21-1.48-0.33-2.13-0.31l0.8,0.25a1.76,1.76,0,0,1-1.3.17c0.62,0.48,3.75.07,5.47,0.51,0.3-.18.83-0.37,0.58-0.59l-0.54.08c-0.5-.43,1-0.6.33-0.8a3.92,3.92,0,0,1,2.56-.55l0.2,0.61a0.83,0.83,0,0,0-1-.17c0.43-.27,1.57.82,2,0l-0.72-.42c0.73-.31,1.63-1,2.54-0.78-0.42-.6-0.21.07-0.86-0.63,0.56,0.88-2.32,0-1.42.9-0.67-.82-1.15-0.34-2-1,0,0.2.31,0.39-.45,0.29a0.87,0.87,0,0,1-.17.18H252l0,0s0,0,0,0a0.87,0.87,0,0,1,.39.31c-0.38.47-1.59,0.46-2,.7-0.45-.09.19-0.23-0.06-0.45l-0.61.36c-0.06-.45-1.2-0.74-0.14-1l-1,0a2.65,2.65,0,0,0-1.82-.15c-0.45-.09-1.14.5-0.75,0.15l-1.5.29v-0.11c-1.48,0-3,.76-4.75,0a4.34,4.34,0,0,1-1.85.13l-0.16-.39c-0.64.14-1.93-.38-2.2,0-0.7-1-3.11-.21-4.24-0.39l0,0.51a10.1,10.1,0,0,0-2.48.33l0.06,0.45c-0.83.37-2.14-.31-3.45-0.26a0.56,0.56,0,0,1,.66,0c-1.57-1-3.31.75-4.73,0a0.94,0.94,0,0,1-.86,0l0.09,0h-0.15c-0.16-.08-0.32-0.17-0.49-0.24a1.66,1.66,0,0,0,.42.24,5.06,5.06,0,0,0-1.09.18l-0.18-.48h-0.09c-0.4-.18-0.32.23-0.1,0.59a2.06,2.06,0,0,0-.54.29c-0.33-.78-1.07.27-1.51-0.56-0.27.41-2,.31-2.25,1.17,0-.11-0.13-0.16.08-0.17a1.76,1.76,0,0,0-1.31.05l-0.2-.61-1,.83c-0.6-.37-0.85-0.59-0.26-1.06-1.44.73-1.17,0.28-2.39,1l0.06-.4c-0.44,0-1.14.55-1.4,0.23-1-.75-4.85-0.08-7.37-0.77,0.49,1.16-1.17-.52-1.27.39-0.15-.27-0.5-0.43-0.09-0.67-1.28.28-1.93-.43-2.81,0.34-0.15-.28.27-0.41,0.14-0.57a0.48,0.48,0,0,1-.54.08c-0.13-.16.19-0.23,0.39-0.35-1.31.05-1.44,0.9-1.53,1.7a1,1,0,0,0-1.48.21c-0.23-.26-0.62-0.53.19-0.63-0.46,0-2.8-.37-2.85.27a0.86,0.86,0,0,0-.76,0,15.4,15.4,0,0,0-2.13,0l0.28,0.1c-0.39.77-.84,0.18-1.65,0.27l0-.08c-1.87-.55-0.8.27-2.65-0.35l0.1,0.48c-0.17,1-1.64-.6-2.7-0.2l0.39,0.27c-0.58.36-1.64-1.39-2.23-1.52-0.13-.09.2-0.15,0.38-0.21-1.54-.6-0.2.63-1.34,0.78-0.21-.34.27-0.86-0.5-0.92-0.39-.27-2.23,1.11-3.28.47,0.23,0.26.46,0.52-.07,0.72-0.81.1-2.21-1-2.94-.15a0.28,0.28,0,0,1-.15-0.2c-0.62.22-2,.36-2.39,0.81-0.58-1.65-3.87.83-3.86-.7l-1.91.09,0-.16a2.37,2.37,0,0,0-2.08.64c-0.28-.1-0.08-0.25-0.05-0.33a3.93,3.93,0,0,0-3.46.54L158,105c-0.41.29-2.59-.76-4.34-0.18a0.35,0.35,0,0,1,.19-0.22c-2,.59-4.73-1.35-5.45.46l-1.3.45c1.69,0.13-.25.78,0.45,1.08-0.66.11-1.72-.54-0.9-0.63l0.13,0.09c0.29-.94-2.1-0.32-2.05-1-3.32.06-6.55-.44-9.66-0.47l0.36,0.73-1.08,0c-0.29-.17-0.38-0.57.39-0.54-0.41-.41-1.29.35-1.32,0.51-1.51-.29.59-0.86,0.12-0.87l-0.63.06,0.14,0.08a1.89,1.89,0,0,1-1.48.59c-0.59-.14-0.3-0.45-0.54-0.48,0-.05-0.08-0.08-0.35,0l-1.37-.06,0.55,0.57c-0.6.29-1.28,0-.65,0.63-0.93-1-5.09-.34-5.66-0.65a5.18,5.18,0,0,1-2.72.38c0.26,0.12.42,0.77-.48,0.69,0.32-1.34-1.64-.57-2.37-1.53,0.65,0.64-2.54.17-1.52,1.07-0.75-.1,0-0.5-0.62-0.81-1.77.53-3.91-.32-6.11-0.13,0,0.18.34,0.44-.13,0.71l-1.16-.87c-0.43.09-.39,1-1.19,0.41,0.11,0.15.28,0.37,0,.43-4.3-.84-8.78.75-13.15-0.84,0.59,0.34.2,0.37-.25,0.39,0.29,0.08,0,.43.05,0.67L92,105.06c-0.33.66-2,.05-2.15,0.69l0.58-.12c-0.77.75,1.09,1.65,1,2.61,0.86-.85,2.28,1.25,3.69,0,0.31,0.19-.26.31-0.1,0.53a1.41,1.41,0,0,1,1.59-.32l-0.09.1c2.25-.11,3.22.29,5.75,0.55l-0.19-.47a2,2,0,0,1,.91.33c0.62-.72-1.53,0-1-0.83,0.73,1,3.84,0,4.33,1.09,0.84,0-.25-0.55.59-0.54l0.22,0.3,0.21-.38a0.89,0.89,0,0,1,.85.68,1.92,1.92,0,0,0-.52.09c0.71,0.35,2-.13,2.25,0l-0.8-.18c2.28-.29,5.07.09,7.28-0.53l-0.17-.22c1.68-.42,1.35.24,3.2,0l-0.07.05a2.47,2.47,0,0,1,1.37-.32c-0.47.26,0.88,0.5,0.27,0.8,1.82-.45.9-0.35,2.1-1.19l0.28,0.37a1.78,1.78,0,0,1,1.37-.62c-0.76.32,0.59,0.56-.25,1,1.94,0.8,2.87-.83,3.77.35,0.88-1-1.68-.56-1.18-0.78-0.42-.33.73-0.77,1.34-0.67s1.06,1.31,2.62,1.28c-0.15,0-.17.07-0.32,0.07,0.58,0.26,1.14-.36,1.86.06,0.4-.62.93,0,1-0.76l-1.43.19c0.81-.21,1.56-1.14,2.9-0.7a2.22,2.22,0,0,1-.77.49c0.39,0.23.75-.16,1.16,0.08-0.11.79-1.74,0.18-2.6,0.79,0.42,0.33,1.64-.58,1.21.28,0.62-1.09,1.54.13,2.59-.71l-0.07.47a2,2,0,0,1,.82-0.29l-0.55.62c0.85-.53,1.65.45,2.47,0.16-1.72,0-.39-0.57-1.11-0.91,2.11-.65,1.22,1.24,3.59,1-0.32.07-1.21-.28-0.7-0.5a3.33,3.33,0,0,1,1.33.52c1.57-.11-0.24-0.49.42-0.78,0.54,0.58.77-.24,1.46-0.43v0.48c1.79,0.3.47-1,2.08-.64l-0.68.67,0.84-.18-0.17.55a2.73,2.73,0,0,1,2.09-.16c-0.21-.34.11-0.88,0.9-0.9,0.54,0.28-.3.46,0.82,0.39-0.25.3-.53,0.68-1,0.24,0,0.16-.25.3-0.3,0.46a3.61,3.61,0,0,0,1.87.06,1.08,1.08,0,0,1-.44-0.11l1.62-.68c0.26,0.18.05,0.33-.15,0.47a7.11,7.11,0,0,1,1-.32,1,1,0,0,1-.78,1l1.55-.44c0.1,0.17.8,0.46,0.6,0.61,0.86,0.23,2.1-.77,3.25-0.47a0.72,0.72,0,0,1,.42-0.21c1.07,0.08,2,.56,3.29,0l0.72,0.7c1-.16-1-0.88.67-1.15,1.17-.23.44,0.6,0.85,0.79,0.58-.36,1.59-1.08,2.67-0.52A4.05,4.05,0,0,1,165.15,109.12Zm12.26-.37c-0.24.1-.71,0.42-0.88,0.13C176.8,108.32,177,108.58,177.41,108.74Zm18.64-1.26a0.65,0.65,0,0,1-.76-0.1A1.29,1.29,0,0,1,196.05,107.49ZM248,103.87l0,0C247.41,103.7,247.6,103.78,248,103.87Zm1.1,0.2a0.12,0.12,0,0,0,.06-0.2,0.68,0.68,0,0,1-.6.1A0.41,0.41,0,0,0,249.06,104.07Zm-118.2.79,0.21,0.13C130.6,105.12,130.73,105,130.87,104.86Z" transform="translate(-88.99 -102.25)" fill="#fff" />
    <path d="M193.94,108.16a0.52,0.52,0,0,1-.1-0.26C193.74,108,193.74,108.07,193.94,108.16Z" transform="translate(-88.99 -102.25)" fill="#fff" />
    <path d="M157.53,109.41h0a0.23,0.23,0,0,0,0,.09Z" transform="translate(-88.99 -102.25)" fill="#fff" />
    <path d="M232,108.25a0.93,0.93,0,0,1-.44-0.25C231.59,108.12,231.69,108.22,232,108.25Z" transform="translate(-88.99 -102.25)" fill="#fff" />
    <path d="M254.89,103.22l-0.7.13a1,1,0,0,1,.64.15C254.81,103.39,254.67,103.23,254.89,103.22Z" transform="translate(-88.99 -102.25)" fill="#fff" />
    <path d="M261,106.17c0.1-.06.22,0,0.32-0.07l0-.22C260.88,105.9,260.57,106.08,261,106.17Z" transform="translate(-88.99 -102.25)" fill="#fff" />
    <path d="M255.55,104.82c0.06,0.41.5,0.27,1,.19h-0.09C256.6,104.44,256.08,104.63,255.55,104.82Z" transform="translate(-88.99 -102.25)" fill="#fff" />
    <path d="M256.66,105a1.82,1.82,0,0,1,.46,0C257.17,104.75,256.93,104.93,256.66,105Z" transform="translate(-88.99 -102.25)" fill="#fff" />
    <path d="M250.46,103.79c0.23,0.1.14-.52,0.28-0.35C251,102.92,249.18,104.07,250.46,103.79Z" transform="translate(-88.99 -102.25)" fill="#fff" />
    <polygon points="166.97 3.9 166.79 3.4 166.51 3.81 166.97 3.9" fill="#fff" />
    <path d="M252.06,105.81l0.79,0.13c0-.08.09-0.13,0.21-0.17A1.63,1.63,0,0,0,252.06,105.81Z" transform="translate(-88.99 -102.25)" fill="#fff" />
    <path d="M253.06,105.77a1.3,1.3,0,0,0,.63-0.09A2.91,2.91,0,0,0,253.06,105.77Z" transform="translate(-88.99 -102.25)" fill="#fff" />
    <polygon points="165.89 4.06 165.66 3.95 165.1 3.92 165.89 4.06" fill="#fff" />
    <path d="M243.58,105.75l-0.86.15c-0.09.17,0.15,0.28,0.47,0.21S243.71,105.92,243.58,105.75Z" transform="translate(-88.99 -102.25)" fill="#fff" />
    <path d="M246.19,107.11a0.86,0.86,0,0,1-.38-0.38l0,0.62Z" transform="translate(-88.99 -102.25)" fill="#fff" />
    <path d="M243.68,107.27c-0.08.17-1.25,0.5-.16,0.46C243.61,107.55,244.47,107.41,243.68,107.27Z" transform="translate(-88.99 -102.25)" fill="#fff" />
    <polygon points="141.71 4.3 141.92 4.29 141.89 3.27 141.71 4.3" fill="#fff" />
    <path d="M219.27,109c1,0.24.24-.63,1.16-0.33,0.24-.24-0.76-0.24-0.51-0.45C219.31,108.52,219,108.37,219.27,109Z" transform="translate(-88.99 -102.25)" fill="#fff" />
    <path d="M219.92,108.26a2.31,2.31,0,0,0,.31-0.16A1,1,0,0,0,219.92,108.26Z" transform="translate(-88.99 -102.25)" fill="#fff" />
    <polygon points="1.8 2.29 1.15 2.08 1.57 2.42 1.8 2.29" fill="#fff" />
    <path d="M89.54,105.3l-0.16-.65-0.39.59A0.6,0.6,0,0,1,89.54,105.3Z" transform="translate(-88.99 -102.25)" fill="#fff" />
    <path d="M179.24,110l0-.16a0.61,0.61,0,0,0-.56-0.21Z" transform="translate(-88.99 -102.25)" fill="#fff" />
    <polygon points="81.35 7.35 81.5 7.36 81.21 6.77 81.35 7.35" fill="#fff" />
    <path d="M162.87,110.39c0.3,0,.66-0.11,1-0.09C163.18,110.41,162.79,109.65,162.87,110.39Z" transform="translate(-88.99 -102.25)" fill="#fff" />
</svg>
