<svg id="Layer_1" data-name="Layer 1" xmlns="http://www.w3.org/2000/svg" viewBox="0 0 395.29 363.99"><title>logo</title><path d="M27.82,123.4l1.46-3c0.95-2,2.42-4.83,4.39-8.55A262.34,262.34,0,0,1,53,80.92,210,210,0,0,1,92.09,39.71a174.26,174.26,0,0,1,29.54-19A158.3,158.3,0,0,1,158.34,7.43,161.52,161.52,0,0,1,179,4.19a165.42,165.42,0,0,1,21.71-.44A169.61,169.61,0,0,1,223,6.34a179,179,0,0,1,22.45,5.72,193.13,193.13,0,0,1,22.14,8.71c1.83,0.83,3.64,1.72,5.45,2.62l1.39,0.69,1.33,0.69,2.66,1.39c3.61,2,7.17,4,10.65,6.2A187.1,187.1,0,0,1,309.33,47a182.34,182.34,0,0,1,47.45,60.9,178.21,178.21,0,0,1-1.28,157.55,182.05,182.05,0,0,1-31.62,44.72,185.66,185.66,0,0,1-43,33.19,188.22,188.22,0,0,1-49.82,19.28,191.67,191.67,0,0,1-51.88,4.73,187.07,187.07,0,0,1-72.23-18c-1.83-.85-3.61-1.76-5.39-2.67l-1.37-.7-1.3-.7-2.58-1.39c-3.49-2-6.91-4-10.19-6.09a181.18,181.18,0,0,1-18.71-13.67,176.9,176.9,0,0,1-16.35-15.4A180,180,0,0,1,10.4,238.63a178.67,178.67,0,0,1-6.89-34.47,174.57,174.57,0,0,1-.3-30.85,176.82,176.82,0,0,1,4-25.83,173.39,173.39,0,0,1,12-34.47c1.8-3.81,3.3-6.67,4.33-8.58l1.58-2.89-1.48,2.95c-1,1.94-2.36,4.85-4,8.71A179.06,179.06,0,0,0,8.82,147.83,175.17,175.17,0,0,0,29.89,272.14a179,179,0,0,0,59.44,60.54,184.45,184.45,0,0,0,187.76,3.94,177.84,177.84,0,0,0,41.11-31.9,173.68,173.68,0,0,0,16.67-20.27c2.54-3.57,4.91-7.29,7.16-11l1.66-2.8,1.64-2.94c1-1.88,2.07-3.86,3.06-5.8a170.38,170.38,0,0,0,16.56-101.79,174.26,174.26,0,0,0-42.37-90.82,179.47,179.47,0,0,0-36.89-31.52c-3.33-2.18-6.77-4.17-10.15-6.1l-2.64-1.42-1.32-.71-1.28-.66c-1.75-.89-3.49-1.78-5.25-2.61a187.22,187.22,0,0,0-21.37-8.71,170.75,170.75,0,0,0-43.25-8.68,160.49,160.49,0,0,0-21,.07,157,157,0,0,0-20.1,2.8,158.67,158.67,0,0,0-36,12.26A171,171,0,0,0,93.88,42,212.36,212.36,0,0,0,54.21,81.83c-4.77,6.21-8.76,12-12.09,17.07s-6,9.56-8.08,13.2-3.65,6.47-4.66,8.4Z" transform="translate(-2.67 -3.58)" fill="#231f20"/><path d="M129.32,21.62c-1.19,33.52,5.16,67.49,9.22,100.7,4.1,33.56,8.22,67.12,12.18,100.7L154,250.67c1,8.9.39,20.39,5,28.29a5.26,5.26,0,0,0,9.5-1.24c2.28-7.88-.6-17.15-1.66-25.08L163.56,228q-3.35-25.17-6.62-50.35L144,76.9C141.55,58.12,139,39.23,133.69,21a2.24,2.24,0,0,0-4.37.59h0Z" transform="translate(-2.67 -3.58)" fill="#231f20"/><path d="M85.19,112.65c20.22-25.09,52.44-41.3,84.19-45.59,9.63-1.3,34-2.18,32.45,13.28-0.77,7.83-6.13,15-10.47,21.25a217.36,217.36,0,0,1-15.65,19.93,277.31,277.31,0,0,1-45.39,40.86c-6.35,4.62-4.07,13.94,4,14.6,18.48,1.5,37,3.14,54.9,8.44,14.71,4.37,30.79,12,39.1,25.58,18.3,29.91-26.8,54.31-47.63,65.19-17.36,9.07-34.44,18.09-48.45,32.09-5.56,5.56,2.6,13.2,8.45,8.45,14.77-12,33.2-19.69,49.91-28.58,16.5-8.77,33.17-18.69,44.89-33.6,10.7-13.61,15.46-30.61,7.83-46.9S219,180.94,202.94,174.53c-21.73-8.69-45.59-10.75-68.65-13.21l4,14.6a266,266,0,0,0,48-42.65,248.64,248.64,0,0,0,18.48-23.84c5.51-8.08,10.85-16.74,12.11-26.62,2.73-21.4-17.67-30.91-35.91-30.82-19.26.09-38.71,6.89-55.75,15.45-18.57,9.32-35.08,22.74-47.12,39.74-2.94,4.15,3.88,9.51,7.12,5.49h0Z" transform="translate(-2.67 -3.58)" fill="#231f20"/><path d="M307.4,18.7c48.21,40.24,81.42,96.83,88.65,159.58,0.14,1.2,2,1.25,1.91,0C393.62,114.9,360.75,53.75,309.1,16.5c-1.28-.93-2.93,1.19-1.7,2.21h0Z" transform="translate(-2.67 -3.58)" fill="#231f20"/><path d="M204.37,349.93c0.18-10.36,2.18-20.76,3.25-31.07q1.63-15.75,3.13-31.52l-5,1.35c6.73,11.89,13.47,23.78,20.1,35.73l2.88-3.75c-7.28-1.12-4.25-11.36-3.36-16.46a109.8,109.8,0,0,1,3-13c3.35-11,9.32-20.7,18.74-27.49l-3.25-4.21c-7.63,6.41-12.54,14.67-10.2,24.8,2,8.59,6.33,16.72,15.87,18.21a2.89,2.89,0,0,0,3.4-1.93c3.77-9-.63-17.59-4.15-25.86-0.93-2.17-2.87-5.74-2.54-8.18,0.18-1.3.68-2.91,2.59-2.33,1.2,0.37,2,3,2.31,4.13,1.25,4,1.26,8,4.75,10.88,5.5,4.54,11.47-.06,14-5.32,4.35-9,5.88-19.73,6.06-29.63l-5.55.75c3.71,10.34,10.53,21.15,23.26,17.52s18-18.81,21.15-30.3a104.9,104.9,0,0,0,2.66-42.3A100.89,100.89,0,0,0,312,168.31c-1.75-4.63-3.61-9.5-9.17-9.91a2.86,2.86,0,0,0-2.71,2.06c-3,7.76.54,16.65,2.91,24.15a200.79,200.79,0,0,0,9.21,23.72c7.17,15.52,16.26,32.24,29.17,43.71,1.62,1.44,4.33-.4,3.11-2.4-8.35-13.63-18.12-26.07-25.29-40.48a188.84,188.84,0,0,1-9.57-22.86c-2.43-7.07-7-17-4.12-24.35L302.82,164c3.32,0.26,5.64,11.26,6.39,14a98.33,98.33,0,0,1,1.55,46.89c-2,9.37-5,21.43-12.13,28.28-3.86,3.69-9.9,6-14.86,3-4.38-2.63-6.31-8.15-7.94-12.7-1-2.92-5.49-2.57-5.55.75a76,76,0,0,1-2,16.61c-0.86,3.54-1.92,10.75-5.06,13.06-1.54,1.13-4.09.24-5.15-1.22-0.84-1.16-.84-2.88-1.15-4.24a20.06,20.06,0,0,0-1.73-5.43,9.38,9.38,0,0,0-6.77-4.79c-6.64-.79-8.4,6.38-7.25,11.5,2.22,9.86,10.81,18.87,6.46,29.35l3.4-1.93c-7.59-1.16-10.54-7.6-12.09-14.33-1.89-8.18,2.68-14.47,8.75-19.56,2.31-1.94-.77-6-3.25-4.21-11.66,8.39-18.73,20.43-22.19,34.24-2.2,8.79-8.72,30.28,5.16,32.31,2.12,0.31,4.07-1.65,2.88-3.75C223.56,309.93,217,298,210.38,286c-1.39-2.53-4.74-1.1-5,1.35q-1.68,15.75-3.22,31.52c-1,10.26-2.39,20.75-1.72,31.07,0.16,2.5,3.88,2.55,3.93,0h0Z" transform="translate(-2.67 -3.58)" fill="#231f20"/></svg>