<svg id="Layer_1" data-name="Layer 1" xmlns="http://www.w3.org/2000/svg" viewBox="0 0 130.18 120"><title>logo-background</title><rect width="130.18" height="120"/><path d="M4.71,11.34a33.36,33.36,0,0,0,1.46,5q0.81,2.48,1.61,5L8.22,22.7A3.83,3.83,0,0,0,8.75,24a0.27,0.27,0,0,0,.47-0.16,3.28,3.28,0,0,0-.33-1.25L8.48,21.41,7.65,18.93,6,14a19,19,0,0,0-1.07-2.72,0.12,0.12,0,0,0-.21.07h0Z" fill="#0d0e14"/><path d="M3.39,16.36a6.83,6.83,0,0,1,3.79-3.13c0.47-.16,1.69-0.45,1.77.35a2.5,2.5,0,0,1-.32,1.17A11.16,11.16,0,0,1,8,15.92a14.24,14.24,0,0,1-1.89,2.51,0.41,0.41,0,0,0,.35.7A13.78,13.78,0,0,1,9.35,19a3.44,3.44,0,0,1,2.22.9c1.22,1.33-.82,3-1.76,3.76a9.76,9.76,0,0,0-2.13,2.1,0.31,0.31,0,0,0,.51.34,15.5,15.5,0,0,1,2.23-1.93A7,7,0,0,0,12.36,22a2.27,2.27,0,0,0-.07-2.44,3.72,3.72,0,0,0-2.36-1.27,13.2,13.2,0,0,0-3.59,0L6.69,19a13.66,13.66,0,0,0,2-2.62A12.77,12.77,0,0,0,9.38,15a3.22,3.22,0,0,0,.35-1.46c-0.07-1.11-1.2-1.38-2.11-1.2A6.63,6.63,0,0,0,5,13.69a6.55,6.55,0,0,0-2,2.47,0.23,0.23,0,0,0,.41.21h0Z" fill="#0d0e14"/><path d="M16.31,21a28,28,0,0,1,.31-3c0.1-1,.2-2,0.3-3l-0.47.13c0.64,1.13,1.28,2.26,1.91,3.39l0.27-.36c-0.69-.11-0.4-1.08-0.32-1.56a10.42,10.42,0,0,1,.28-1.23,4.87,4.87,0,0,1,1.78-2.61l-0.31-.4a2.33,2.33,0,0,0-1,2.35,2,2,0,0,0,1.51,1.73,0.27,0.27,0,0,0,.32-0.18,3.1,3.1,0,0,0-.39-2.45A1.83,1.83,0,0,1,20.28,13a0.19,0.19,0,0,1,.25-0.22,0.64,0.64,0,0,1,.22.39,1.83,1.83,0,0,0,.45,1,0.88,0.88,0,0,0,1.33-.5,6.86,6.86,0,0,0,.58-2.81L22.58,11c0.35,1,1,2,2.21,1.66s1.71-1.79,2-2.88a10,10,0,0,0,.25-4,9.58,9.58,0,0,0-.52-2,1.12,1.12,0,0,0-.87-0.94,0.27,0.27,0,0,0-.26.2,3.59,3.59,0,0,0,.28,2.29,19.06,19.06,0,0,0,.87,2.25,12.57,12.57,0,0,0,2.77,4.15,0.19,0.19,0,0,0,.3-0.23c-0.79-1.29-1.72-2.47-2.4-3.84a17.92,17.92,0,0,1-.91-2.17,3.75,3.75,0,0,1-.39-2.31l-0.26.19c0.32,0,.54,1.07.61,1.33a9.33,9.33,0,0,1,.15,4.45,5.35,5.35,0,0,1-1.15,2.68,1.19,1.19,0,0,1-1.41.28,2.18,2.18,0,0,1-.75-1.21,0.27,0.27,0,0,0-.53.07,7.21,7.21,0,0,1-.19,1.58,2.46,2.46,0,0,1-.48,1.24,0.38,0.38,0,0,1-.49-0.12,1.09,1.09,0,0,1-.11-0.4,1.9,1.9,0,0,0-.16-0.52,0.89,0.89,0,0,0-.64-0.45,0.77,0.77,0,0,0-.69,1.09c0.21,0.94,1,1.79.61,2.79L20.74,16a1.5,1.5,0,0,1-1.15-1.36,1.85,1.85,0,0,1,.83-1.86,0.26,0.26,0,0,0-.31-0.4A5.53,5.53,0,0,0,18,15.57c-0.21.83-.83,2.87,0.49,3.07a0.25,0.25,0,0,0,.27-0.36c-0.64-1.13-1.26-2.26-1.89-3.4a0.26,0.26,0,0,0-.47.13q-0.16,1.49-.31,3a18.37,18.37,0,0,0-.16,3,0.19,0.19,0,0,0,.37,0h0Z" fill="#0d0e14"/><path d="M14.63,17.37A0.7,0.7,0,0,1,15,18a5.48,5.48,0,0,1-1.31.76c-0.09,0-.5-0.58-0.34-0.58A3.65,3.65,0,0,0,14.63,17.37Z" fill="#0d0e14"/><path d="M62.92,11.34a33.36,33.36,0,0,0,1.46,5q0.81,2.48,1.61,5l0.44,1.36A3.83,3.83,0,0,0,67,24a0.27,0.27,0,0,0,.47-0.16,3.28,3.28,0,0,0-.33-1.25l-0.41-1.21L65.9,18.91l-1.65-5a19,19,0,0,0-1.07-2.72,0.12,0.12,0,0,0-.21.07h0Z" fill="#0d0e14"/><path d="M61.6,16.36a6.83,6.83,0,0,1,3.79-3.13c0.47-.16,1.69-0.45,1.77.35a2.5,2.5,0,0,1-.32,1.17,11.16,11.16,0,0,1-.59,1.16,14.24,14.24,0,0,1-1.89,2.51,0.41,0.41,0,0,0,.35.7A13.78,13.78,0,0,1,67.56,19a3.44,3.44,0,0,1,2.22.9C71,21.23,69,22.9,68,23.66a9.76,9.76,0,0,0-2.13,2.1,0.31,0.31,0,0,0,.51.34,15.5,15.5,0,0,1,2.23-1.93A7,7,0,0,0,70.57,22a2.27,2.27,0,0,0-.07-2.44,3.72,3.72,0,0,0-2.36-1.27,13.2,13.2,0,0,0-3.59,0L64.9,19a13.66,13.66,0,0,0,2-2.62A12.77,12.77,0,0,0,67.6,15a3.22,3.22,0,0,0,.35-1.46c-0.07-1.11-1.2-1.38-2.11-1.2a6.63,6.63,0,0,0-2.66,1.33,6.55,6.55,0,0,0-2,2.47,0.23,0.23,0,1,0,.41.21h0Z" fill="#0d0e14"/><path d="M74.52,21a28,28,0,0,1,.31-3c0.1-1,.2-2,0.3-3l-0.47.13c0.64,1.13,1.28,2.26,1.91,3.39l0.27-.36c-0.69-.11-0.4-1.08-0.32-1.56a10.42,10.42,0,0,1,.28-1.23,4.87,4.87,0,0,1,1.78-2.61l-0.31-.4a2.33,2.33,0,0,0-1,2.35,2,2,0,0,0,1.51,1.73,0.27,0.27,0,0,0,.32-0.18,3.1,3.1,0,0,0-.39-2.45A1.83,1.83,0,0,1,78.49,13a0.19,0.19,0,0,1,.25-0.22,0.64,0.64,0,0,1,.22.39,1.83,1.83,0,0,0,.45,1,0.88,0.88,0,0,0,1.33-.5,6.86,6.86,0,0,0,.58-2.81L80.78,11c0.35,1,1,2,2.21,1.66s1.71-1.79,2-2.88a10,10,0,0,0,.25-4,9.58,9.58,0,0,0-.52-2,1.12,1.12,0,0,0-.87-0.94,0.27,0.27,0,0,0-.26.2,3.59,3.59,0,0,0,.28,2.29,19.06,19.06,0,0,0,.87,2.25,12.57,12.57,0,0,0,2.77,4.15,0.19,0.19,0,0,0,.3-0.23,42.14,42.14,0,0,1-2.39-3.86,17.92,17.92,0,0,1-.91-2.17,3.75,3.75,0,0,1-.39-2.31l-0.26.19c0.32,0,.54,1.07.61,1.33a9.33,9.33,0,0,1,.15,4.45,5.35,5.35,0,0,1-1.15,2.68,1.19,1.19,0,0,1-1.41.28,2.18,2.18,0,0,1-.75-1.21,0.27,0.27,0,0,0-.53.07,7.21,7.21,0,0,1-.19,1.58,2.46,2.46,0,0,1-.48,1.24,0.38,0.38,0,0,1-.49-0.12,1.09,1.09,0,0,1-.11-0.4,1.9,1.9,0,0,0-.16-0.52,0.89,0.89,0,0,0-.64-0.45,0.77,0.77,0,0,0-.71,1.1c0.21,0.94,1,1.79.61,2.79l0.32-.18a1.5,1.5,0,0,1-1.15-1.36,1.85,1.85,0,0,1,.83-1.86,0.26,0.26,0,0,0-.31-0.4,5.53,5.53,0,0,0-2.11,3.25c-0.21.83-.83,2.87,0.49,3.07A0.25,0.25,0,0,0,77,18.28c-0.64-1.13-1.26-2.26-1.89-3.4a0.26,0.26,0,0,0-.47.13q-0.16,1.49-.31,3a18.37,18.37,0,0,0-.16,3,0.19,0.19,0,0,0,.37,0h0Z" fill="#0d0e14"/><path d="M72.84,17.37a0.7,0.7,0,0,1,.34.58,5.48,5.48,0,0,1-1.31.76c-0.09,0-.5-0.58-0.34-0.58A3.65,3.65,0,0,0,72.84,17.37Z" fill="#0d0e14"/><path d="M8.26,73.37a33.36,33.36,0,0,0,1.46,5q0.81,2.48,1.61,5l0.44,1.36A3.83,3.83,0,0,0,12.29,86a0.27,0.27,0,0,0,.47-0.16,3.28,3.28,0,0,0-.33-1.25L12,83.43,11.19,81,9.54,76a19,19,0,0,0-1.07-2.72,0.12,0.12,0,0,0-.21.07h0v0Z" fill="#0d0e14"/><path d="M6.93,78.39a6.83,6.83,0,0,1,3.79-3.13c0.47-.16,1.69-0.45,1.77.35a2.5,2.5,0,0,1-.32,1.17,11.16,11.16,0,0,1-.59,1.16,14.24,14.24,0,0,1-1.89,2.51,0.41,0.41,0,0,0,.35.7A13.78,13.78,0,0,1,12.89,81a3.44,3.44,0,0,1,2.22.9c1.22,1.33-.82,3-1.76,3.76a9.76,9.76,0,0,0-2.13,2.1,0.31,0.31,0,0,0,.51.34A15.5,15.5,0,0,1,14,86.2a7,7,0,0,0,1.93-2.14,2.27,2.27,0,0,0-.07-2.44,3.72,3.72,0,0,0-2.36-1.27,13.2,13.2,0,0,0-3.59,0L10.26,81a13.66,13.66,0,0,0,2-2.62A12.77,12.77,0,0,0,13,77a3.22,3.22,0,0,0,.35-1.46c-0.07-1.11-1.2-1.38-2.11-1.2a6.63,6.63,0,0,0-2.7,1.33,6.55,6.55,0,0,0-2,2.47,0.23,0.23,0,0,0,.41.21h0Z" fill="#0d0e14"/><path d="M19.85,83a28,28,0,0,1,.31-2.95c0.1-.95.2-2,0.3-3L20,77.16c0.64,1.13,1.28,2.26,1.91,3.39l0.27-.36c-0.69-.11-0.4-1.08-0.32-1.56a10.42,10.42,0,0,1,.28-1.23,4.87,4.87,0,0,1,1.78-2.61l-0.31-.4a2.33,2.33,0,0,0-1,2.35,2,2,0,0,0,1.51,1.73,0.27,0.27,0,0,0,.32-0.18,3.1,3.1,0,0,0-.39-2.45,1.83,1.83,0,0,1-.24-0.78,0.19,0.19,0,0,1,.25-0.22,0.64,0.64,0,0,1,.22.39,1.83,1.83,0,0,0,.45,1,0.88,0.88,0,0,0,1.33-.5,6.86,6.86,0,0,0,.58-2.81L26.12,73c0.35,1,1,2,2.21,1.66s1.71-1.79,2-2.88a10,10,0,0,0,.25-4,9.58,9.58,0,0,0-.52-2.05,1.12,1.12,0,0,0-.87-0.94,0.27,0.27,0,0,0-.26.2,3.59,3.59,0,0,0,.28,2.29,19.06,19.06,0,0,0,.87,2.25,12.57,12.57,0,0,0,2.77,4.15,0.19,0.19,0,0,0,.3-0.23c-0.79-1.29-1.72-2.47-2.4-3.84a17.92,17.92,0,0,1-.91-2.17,3.75,3.75,0,0,1-.39-2.31l-0.26.19c0.32,0,.54,1.07.61,1.33A9.33,9.33,0,0,1,30,71.1a5.35,5.35,0,0,1-1.15,2.68,1.19,1.19,0,0,1-1.41.28,2.18,2.18,0,0,1-.75-1.21,0.27,0.27,0,0,0-.53.07,7.21,7.21,0,0,1-.19,1.58,2.46,2.46,0,0,1-.48,1.24A0.38,0.38,0,0,1,25,75.62a1.09,1.09,0,0,1-.11-0.4,1.9,1.9,0,0,0-.16-0.52A0.89,0.89,0,0,0,24,74.27a0.77,0.77,0,0,0-.69,1.09c0.21,0.94,1,1.79.61,2.79L24.28,78a1.5,1.5,0,0,1-1.15-1.36,1.85,1.85,0,0,1,.87-1.9,0.26,0.26,0,0,0-.31-0.4,5.53,5.53,0,0,0-2.11,3.25c-0.21.83-.83,2.87,0.49,3.07a0.25,0.25,0,0,0,.27-0.36C21.67,79.18,21,78,20.42,76.9A0.26,0.26,0,0,0,20,77q-0.16,1.49-.31,3a18.37,18.37,0,0,0-.16,3,0.19,0.19,0,0,0,.37,0h0Z" fill="#0d0e14"/><path d="M18.17,79.39a0.7,0.7,0,0,1,.34.58,5.48,5.48,0,0,1-1.31.76c-0.09,0-.5-0.58-0.34-0.58A3.65,3.65,0,0,0,18.17,79.39Z" fill="#0d0e14"/><path d="M54.91,46.38a33.36,33.36,0,0,0,1.46,5q0.81,2.48,1.61,5l0.44,1.36a3.83,3.83,0,0,0,.53,1.38A0.27,0.27,0,0,0,59.42,59a3.28,3.28,0,0,0-.33-1.25L58.68,56.5,57.84,54,56.2,49a19,19,0,0,0-1.07-2.72,0.12,0.12,0,0,0-.21.07h0v0Z" fill="#0d0e14"/><path d="M53.59,51.4a6.83,6.83,0,0,1,3.79-3.13c0.47-.16,1.69-0.45,1.77.35a2.5,2.5,0,0,1-.32,1.17A11.16,11.16,0,0,1,58.24,51a14.24,14.24,0,0,1-1.89,2.51,0.41,0.41,0,0,0,.35.7A13.78,13.78,0,0,1,59.55,54a3.44,3.44,0,0,1,2.22.9C63,56.27,61,58,60,58.7a9.76,9.76,0,0,0-2.13,2.1,0.31,0.31,0,0,0,.51.34,15.5,15.5,0,0,1,2.23-1.93,7,7,0,0,0,1.93-2.14,2.27,2.27,0,0,0-.07-2.44,3.72,3.72,0,0,0-2.36-1.27,13.2,13.2,0,0,0-3.59,0l0.35,0.7a13.66,13.66,0,0,0,2-2.62,12.77,12.77,0,0,0,.7-1.38,3.22,3.22,0,0,0,.35-1.46c-0.07-1.11-1.2-1.38-2.11-1.2a6.63,6.63,0,0,0-2.66,1.33,6.55,6.55,0,0,0-2,2.47,0.23,0.23,0,1,0,.41.21h0Z" fill="#0d0e14"/><path d="M66.51,56a28,28,0,0,1,.31-3c0.1-1,.2-2,0.3-3l-0.47.13c0.64,1.13,1.28,2.26,1.91,3.39l0.27-.36c-0.69-.11-0.4-1.08-0.32-1.56a10.42,10.42,0,0,1,.28-1.23,4.87,4.87,0,0,1,1.78-2.61l-0.31-.4a2.33,2.33,0,0,0-1,2.35,2,2,0,0,0,1.51,1.73,0.27,0.27,0,0,0,.32-0.18,3.1,3.1,0,0,0-.39-2.45,1.83,1.83,0,0,1-.24-0.78,0.19,0.19,0,0,1,.25-0.22,0.64,0.64,0,0,1,.22.39,1.83,1.83,0,0,0,.45,1,0.88,0.88,0,0,0,1.33-.5A6.86,6.86,0,0,0,73.3,46H72.77c0.35,1,1,2,2.21,1.66s1.71-1.79,2-2.88a10,10,0,0,0,.25-4,9.58,9.58,0,0,0-.52-2,1.12,1.12,0,0,0-.87-0.94,0.27,0.27,0,0,0-.26.2,3.59,3.59,0,0,0,.28,2.29,19.06,19.06,0,0,0,.87,2.25,12.57,12.57,0,0,0,2.77,4.15,0.19,0.19,0,0,0,.3-0.23,43.93,43.93,0,0,1-2.39-3.83,17.92,17.92,0,0,1-.91-2.17,3.75,3.75,0,0,1-.39-2.31l-0.26.19c0.32,0,.54,1.07.61,1.33a9.33,9.33,0,0,1,.15,4.45,5.35,5.35,0,0,1-1.15,2.68,1.19,1.19,0,0,1-1.41.28,2.18,2.18,0,0,1-.75-1.21,0.27,0.27,0,0,0-.53.07,7.21,7.21,0,0,1-.19,1.58,2.46,2.46,0,0,1-.48,1.24,0.38,0.38,0,0,1-.49-0.12,1.09,1.09,0,0,1-.11-0.4,1.9,1.9,0,0,0-.16-0.52,0.89,0.89,0,0,0-.64-0.45,0.77,0.77,0,0,0-.7,1.11c0.21,0.94,1,1.79.61,2.79L70.94,51a1.5,1.5,0,0,1-1.15-1.36,1.85,1.85,0,0,1,.83-1.86,0.26,0.26,0,0,0-.31-0.4,5.53,5.53,0,0,0-2.11,3.25c-0.21.83-.83,2.87,0.49,3.07A0.25,0.25,0,0,0,69,53.32c-0.64-1.13-1.26-2.26-1.89-3.4a0.26,0.26,0,0,0-.47.13q-0.16,1.49-.31,3a18.37,18.37,0,0,0-.2,3,0.19,0.19,0,0,0,.37,0h0Z" fill="#0d0e14"/><path d="M64.83,52.41a0.7,0.7,0,0,1,.34.58,5.48,5.48,0,0,1-1.31.76c-0.09,0-.5-0.58-0.34-0.58A3.65,3.65,0,0,0,64.83,52.41Z" fill="#0d0e14"/><path d="M64.25,98.21a33.36,33.36,0,0,0,1.46,5q0.81,2.48,1.61,5l0.44,1.36a3.83,3.83,0,0,0,.53,1.38,0.27,0.27,0,0,0,.47-0.16,3.28,3.28,0,0,0-.33-1.25L68,108.28l-0.83-2.47-1.65-5a19,19,0,0,0-1.07-2.72,0.12,0.12,0,0,0-.21.07h0v0.05Z" fill="#0d0e14"/><path d="M62.92,103.23a6.83,6.83,0,0,1,3.79-3.13c0.47-.16,1.69-0.45,1.77.35a2.5,2.5,0,0,1-.32,1.17,11.16,11.16,0,0,1-.59,1.16,14.24,14.24,0,0,1-1.89,2.51,0.41,0.41,0,0,0,.35.7,13.78,13.78,0,0,1,2.85-.12,3.44,3.44,0,0,1,2.22.9c1.22,1.33-.82,3-1.76,3.76a9.76,9.76,0,0,0-2.13,2.1,0.31,0.31,0,0,0,.51.34A15.5,15.5,0,0,1,70,111a7,7,0,0,0,1.93-2.14,2.27,2.27,0,0,0-.07-2.44,3.72,3.72,0,0,0-2.36-1.27,13.2,13.2,0,0,0-3.59,0l0.35,0.7a13.66,13.66,0,0,0,2-2.62,12.77,12.77,0,0,0,.7-1.38,3.22,3.22,0,0,0,.35-1.46c-0.07-1.11-1.2-1.38-2.11-1.2a6.63,6.63,0,0,0-2.66,1.33,6.55,6.55,0,0,0-2,2.47,0.23,0.23,0,0,0,.41.21h0Z" fill="#0d0e14"/><path d="M75.84,107.82a28,28,0,0,1,.31-2.95c0.1-.95.2-2,0.3-3L76,102c0.64,1.13,1.28,2.26,1.91,3.39l0.27-.36c-0.69-.11-0.4-1.08-0.32-1.56a10.42,10.42,0,0,1,.28-1.23,4.87,4.87,0,0,1,1.78-2.61l-0.31-.4a2.33,2.33,0,0,0-1,2.35,2,2,0,0,0,1.51,1.73,0.27,0.27,0,0,0,.32-0.18,3.1,3.1,0,0,0-.39-2.45,1.83,1.83,0,0,1-.24-0.78,0.19,0.19,0,0,1,.25-0.22,0.64,0.64,0,0,1,.22.39,1.83,1.83,0,0,0,.45,1,0.88,0.88,0,0,0,1.33-.5,6.86,6.86,0,0,0,.58-2.81l-0.53.07c0.35,1,1,2,2.21,1.66s1.71-1.79,2-2.88a10,10,0,0,0,.25-4,9.58,9.58,0,0,0-.52-2.05,1.12,1.12,0,0,0-.87-0.94,0.27,0.27,0,0,0-.26.2,3.59,3.59,0,0,0,.28,2.29,19.06,19.06,0,0,0,.87,2.25,12.57,12.57,0,0,0,2.77,4.15,0.19,0.19,0,0,0,.3-0.23c-0.79-1.29-1.72-2.47-2.4-3.84a17.92,17.92,0,0,1-.91-2.17A3.75,3.75,0,0,1,85.44,90l-0.26.19c0.32,0,.54,1.07.61,1.33A9.33,9.33,0,0,1,85.94,96a5.35,5.35,0,0,1-1.15,2.68,1.19,1.19,0,0,1-1.41.28,2.18,2.18,0,0,1-.75-1.21,0.27,0.27,0,0,0-.53.07,7.21,7.21,0,0,1-.19,1.58,2.46,2.46,0,0,1-.48,1.24,0.38,0.38,0,0,1-.49-0.12,1.09,1.09,0,0,1-.11-0.4,1.9,1.9,0,0,0-.16-0.52A0.89,0.89,0,0,0,80,99.11a0.77,0.77,0,0,0-.69,1.09c0.21,0.94,1,1.79.61,2.79l0.32-.18a1.5,1.5,0,0,1-1.15-1.36A1.85,1.85,0,0,1,80,99.59a0.26,0.26,0,0,0-.31-0.4,5.53,5.53,0,0,0-2.11,3.25c-0.21.83-.83,2.87,0.49,3.07a0.25,0.25,0,0,0,.27-0.36c-0.64-1.13-1.26-2.26-1.89-3.4a0.26,0.26,0,0,0-.47.13q-0.16,1.49-.31,3a18.37,18.37,0,0,0-.16,2.95,0.19,0.19,0,0,0,.37,0h0Z" fill="#0d0e14"/><path d="M74.16,104.24a0.7,0.7,0,0,1,.34.58,5.48,5.48,0,0,1-1.31.76c-0.09,0-.5-0.58-0.34-0.58A3.65,3.65,0,0,0,74.16,104.24Z" fill="#0d0e14"/><path d="M90.93,28.2a33.36,33.36,0,0,0,1.46,5q0.81,2.48,1.61,5l0.44,1.36A3.83,3.83,0,0,0,95,40.88a0.27,0.27,0,0,0,.47-0.16,3.28,3.28,0,0,0-.33-1.25l-0.41-1.21L93.9,35.79l-1.65-5a19,19,0,0,0-1.07-2.72,0.12,0.12,0,0,0-.21.07h0Z" fill="#0d0e14"/><path d="M89.6,33.22a6.83,6.83,0,0,1,3.79-3.13c0.47-.16,1.69-0.45,1.77.35a2.5,2.5,0,0,1-.32,1.17,11.16,11.16,0,0,1-.59,1.16,14.24,14.24,0,0,1-1.89,2.51,0.41,0.41,0,0,0,.35.7,13.78,13.78,0,0,1,2.85-.12,3.44,3.44,0,0,1,2.22.9C99,38.1,97,39.77,96,40.53a9.76,9.76,0,0,0-2.13,2.1,0.31,0.31,0,0,0,.51.34,15.5,15.5,0,0,1,2.27-2,7,7,0,0,0,1.93-2.14,2.27,2.27,0,0,0-.07-2.44,3.72,3.72,0,0,0-2.36-1.27,13.2,13.2,0,0,0-3.59,0l0.35,0.7a13.66,13.66,0,0,0,2-2.62,12.77,12.77,0,0,0,.7-1.38A3.22,3.22,0,0,0,96,30.39c-0.07-1.11-1.2-1.38-2.11-1.2a6.63,6.63,0,0,0-2.66,1.33,6.55,6.55,0,0,0-2,2.47,0.23,0.23,0,1,0,.41.21h0v0Z" fill="#0d0e14"/><path d="M102.52,37.81a28,28,0,0,1,.31-3c0.1-1,.2-2,0.3-3l-0.47.13c0.64,1.13,1.28,2.26,1.91,3.39l0.27-.36c-0.69-.11-0.4-1.08-0.32-1.56a10.42,10.42,0,0,1,.28-1.23,4.87,4.87,0,0,1,1.78-2.61l-0.31-.4a2.33,2.33,0,0,0-1,2.35,2,2,0,0,0,1.51,1.73,0.27,0.27,0,0,0,.32-0.18,3.1,3.1,0,0,0-.39-2.45,1.83,1.83,0,0,1-.24-0.78,0.19,0.19,0,0,1,.25-0.22,0.64,0.64,0,0,1,.22.39,1.83,1.83,0,0,0,.45,1,0.88,0.88,0,0,0,1.33-.5,6.86,6.86,0,0,0,.58-2.81l-0.53.07c0.35,1,1,2,2.21,1.66s1.71-1.79,2-2.88a10,10,0,0,0,.25-4,9.58,9.58,0,0,0-.52-2,1.12,1.12,0,0,0-.87-0.94,0.27,0.27,0,0,0-.26.2,3.59,3.59,0,0,0,.28,2.29,19.06,19.06,0,0,0,.87,2.25,12.57,12.57,0,0,0,2.77,4.15,0.19,0.19,0,0,0,.3-0.23c-0.79-1.29-1.72-2.47-2.4-3.84a17.92,17.92,0,0,1-.91-2.17,3.75,3.75,0,0,1-.39-2.31l-0.26.19c0.32,0,.54,1.07.61,1.33a9.33,9.33,0,0,1,.15,4.45,5.35,5.35,0,0,1-1.15,2.68,1.19,1.19,0,0,1-1.41.28,2.18,2.18,0,0,1-.75-1.21,0.27,0.27,0,0,0-.53.07,7.21,7.21,0,0,1-.19,1.58,2.46,2.46,0,0,1-.48,1.24,0.38,0.38,0,0,1-.49-0.12,1.09,1.09,0,0,1-.11-0.4,1.9,1.9,0,0,0-.16-0.52,0.89,0.89,0,0,0-.64-0.45,0.77,0.77,0,0,0-.69,1.09c0.21,0.94,1,1.79.61,2.79l0.32-.18a1.5,1.5,0,0,1-1.15-1.36,1.85,1.85,0,0,1,.83-1.86,0.26,0.26,0,0,0-.31-0.4,5.53,5.53,0,0,0-2.11,3.25c-0.21.83-.83,2.87,0.49,3.07a0.25,0.25,0,0,0,.27-0.36c-0.64-1.13-1.26-2.26-1.89-3.4a0.26,0.26,0,0,0-.47.13q-0.16,1.49-.31,3a18.37,18.37,0,0,0-.16,3,0.19,0.19,0,0,0,.37,0h0Z" fill="#0d0e14"/><path d="M100.84,34.23a0.7,0.7,0,0,1,.34.58,5.48,5.48,0,0,1-1.31.76c-0.09,0-.5-0.58-0.34-0.58A3.65,3.65,0,0,0,100.84,34.23Z" fill="#0d0e14"/><path d="M97.78,65.72a33.36,33.36,0,0,0,1.46,5q0.81,2.48,1.61,5L101.28,77a3.83,3.83,0,0,0,.53,1.38,0.27,0.27,0,0,0,.47-0.16,3.28,3.28,0,0,0-.33-1.25l-0.41-1.21-0.83-2.47-1.65-5A19,19,0,0,0,98,65.65a0.12,0.12,0,0,0-.21.07h0Z" fill="#0d0e14"/><path d="M96.45,70.75a6.83,6.83,0,0,1,3.79-3.13c0.47-.16,1.69-0.45,1.77.35a2.5,2.5,0,0,1-.32,1.17,11.16,11.16,0,0,1-.59,1.16,14.24,14.24,0,0,1-1.89,2.51,0.41,0.41,0,0,0,.35.7,13.78,13.78,0,0,1,2.85-.12,3.44,3.44,0,0,1,2.22.9c1.22,1.33-.82,3-1.76,3.76a9.76,9.76,0,0,0-2.13,2.1,0.31,0.31,0,0,0,.51.34,15.5,15.5,0,0,1,2.23-1.93,7,7,0,0,0,1.93-2.14,2.27,2.27,0,0,0-.07-2.44A3.72,3.72,0,0,0,103,72.71a13.2,13.2,0,0,0-3.59,0l0.35,0.7a13.66,13.66,0,0,0,2-2.62,12.77,12.77,0,0,0,.7-1.38,3.22,3.22,0,0,0,.35-1.46c-0.07-1.11-1.2-1.38-2.11-1.2A6.63,6.63,0,0,0,98,68.07a6.55,6.55,0,0,0-2,2.47,0.23,0.23,0,1,0,.41.21h0Z" fill="#0d0e14"/><path d="M109.37,75.33a28,28,0,0,1,.31-2.95c0.1-.95.2-2,0.3-3l-0.47.13c0.64,1.13,1.28,2.26,1.91,3.39l0.27-.36c-0.69-.11-0.4-1.08-0.32-1.56a10.42,10.42,0,0,1,.28-1.23,4.87,4.87,0,0,1,1.78-2.61l-0.31-.4a2.33,2.33,0,0,0-1,2.35,2,2,0,0,0,1.51,1.73,0.27,0.27,0,0,0,.32-0.18,3.1,3.1,0,0,0-.39-2.45,1.83,1.83,0,0,1-.24-0.78,0.19,0.19,0,0,1,.25-0.22,0.64,0.64,0,0,1,.22.39,1.83,1.83,0,0,0,.45,1,0.88,0.88,0,0,0,1.33-.5,6.86,6.86,0,0,0,.58-2.81l-0.53.07c0.35,1,1,2,2.21,1.66s1.71-1.79,2-2.88a10,10,0,0,0,.25-4,9.58,9.58,0,0,0-.52-2,1.12,1.12,0,0,0-.87-0.94,0.27,0.27,0,0,0-.26.2,3.59,3.59,0,0,0,.28,2.29,19.06,19.06,0,0,0,.87,2.25,12.57,12.57,0,0,0,2.8,4.13,0.19,0.19,0,0,0,.3-0.23c-0.79-1.29-1.72-2.47-2.4-3.84a17.92,17.92,0,0,1-.91-2.17,3.75,3.75,0,0,1-.39-2.31l-0.26.19c0.32,0,.54,1.07.61,1.33a9.33,9.33,0,0,1,.15,4.45,5.35,5.35,0,0,1-1.15,2.68,1.19,1.19,0,0,1-1.41.28,2.18,2.18,0,0,1-.75-1.21,0.27,0.27,0,0,0-.53.07,7.21,7.21,0,0,1-.19,1.58,2.46,2.46,0,0,1-.48,1.24,0.38,0.38,0,0,1-.49-0.12,1.09,1.09,0,0,1-.11-0.4,1.9,1.9,0,0,0-.16-0.52,0.89,0.89,0,0,0-.64-0.45,0.77,0.77,0,0,0-.69,1.09c0.21,0.94,1,1.79.61,2.79l0.32-.18A1.5,1.5,0,0,1,112.65,69a1.85,1.85,0,0,1,.83-1.86,0.26,0.26,0,0,0-.31-0.4,5.53,5.53,0,0,0-2.1,3.26c-0.21.83-.83,2.87,0.49,3.07a0.25,0.25,0,0,0,.27-0.36c-0.64-1.13-1.26-2.26-1.89-3.4a0.26,0.26,0,0,0-.47.13q-0.16,1.49-.31,3a18.37,18.37,0,0,0-.16,2.95,0.19,0.19,0,0,0,.37,0h0V75.33Z" fill="#0d0e14"/><path d="M107.69,71.75a0.7,0.7,0,0,1,.34.58,5.48,5.48,0,0,1-1.31.76c-0.09,0-.5-0.58-0.34-0.58A3.65,3.65,0,0,0,107.69,71.75Z" fill="#0d0e14"/><path d="M99.1,100.4a33.36,33.36,0,0,0,1.46,5q0.81,2.48,1.61,5l0.44,1.36a3.83,3.83,0,0,0,.53,1.38,0.27,0.27,0,0,0,.47-0.16,3.28,3.28,0,0,0-.33-1.25l-0.41-1.21L102,108l-1.65-5a19,19,0,0,0-1.07-2.72,0.12,0.12,0,0,0-.21.07h0Z" fill="#0d0e14"/><path d="M97.78,105.42a6.83,6.83,0,0,1,3.79-3.13c0.47-.16,1.69-0.45,1.77.35a2.5,2.5,0,0,1-.32,1.17,11.16,11.16,0,0,1-.59,1.16,14.24,14.24,0,0,1-1.89,2.51,0.41,0.41,0,0,0,.35.7,13.78,13.78,0,0,1,2.85-.12,3.44,3.44,0,0,1,2.22.9c1.22,1.33-.82,3-1.76,3.76a9.76,9.76,0,0,0-2.13,2.1,0.31,0.31,0,0,0,.51.34,15.5,15.5,0,0,1,2.23-1.93,7,7,0,0,0,1.93-2.14,2.27,2.27,0,0,0-.07-2.44,3.72,3.72,0,0,0-2.36-1.27,13.2,13.2,0,0,0-3.59,0l0.35,0.7a13.66,13.66,0,0,0,2-2.62,12.77,12.77,0,0,0,.7-1.38,3.22,3.22,0,0,0,.35-1.46c-0.07-1.11-1.2-1.38-2.11-1.2a6.63,6.63,0,0,0-2.66,1.33,6.55,6.55,0,0,0-2,2.47,0.23,0.23,0,1,0,.41.21h0Z" fill="#0d0e14"/><path d="M110.7,110a28,28,0,0,1,.31-2.95c0.1-.95.2-2,0.3-3l-0.47.13c0.64,1.13,1.28,2.26,1.91,3.39l0.27-.36c-0.69-.11-0.4-1.08-0.32-1.56a10.42,10.42,0,0,1,.28-1.23,4.87,4.87,0,0,1,1.78-2.61l-0.31-.4a2.33,2.33,0,0,0-1,2.35,2,2,0,0,0,1.51,1.73,0.27,0.27,0,0,0,.32-0.18,3.1,3.1,0,0,0-.39-2.45,1.83,1.83,0,0,1-.24-0.78,0.19,0.19,0,0,1,.25-0.22,0.64,0.64,0,0,1,.22.39,1.83,1.83,0,0,0,.45,1,0.88,0.88,0,0,0,1.33-.5,6.86,6.86,0,0,0,.58-2.81L117,100c0.35,1,1,2,2.21,1.66s1.71-1.79,2-2.88a10,10,0,0,0,.25-4,9.58,9.58,0,0,0-.52-2.05,1.12,1.12,0,0,0-.87-0.94,0.27,0.27,0,0,0-.26.2,3.59,3.59,0,0,0,.28,2.29,19.06,19.06,0,0,0,.87,2.25,12.57,12.57,0,0,0,2.77,4.15,0.19,0.19,0,0,0,.3-0.23c-0.79-1.29-1.72-2.47-2.4-3.84a17.92,17.92,0,0,1-.91-2.17,3.75,3.75,0,0,1-.39-2.31l-0.26.19c0.32,0,.54,1.07.61,1.33a9.33,9.33,0,0,1,.15,4.45,5.35,5.35,0,0,1-1.15,2.68,1.19,1.19,0,0,1-1.41.28,2.18,2.18,0,0,1-.75-1.21,0.27,0.27,0,0,0-.53.07,7.21,7.21,0,0,1-.19,1.58,2.46,2.46,0,0,1-.48,1.24,0.38,0.38,0,0,1-.49-0.12,1.09,1.09,0,0,1-.11-0.4,1.9,1.9,0,0,0-.16-0.52,0.89,0.89,0,0,0-.64-0.45,0.77,0.77,0,0,0-.69,1.09c0.21,0.94,1,1.79.61,2.79l0.32-.18a1.5,1.5,0,0,1-1.15-1.36,1.85,1.85,0,0,1,.83-1.86,0.26,0.26,0,0,0-.31-0.4,5.53,5.53,0,0,0-2.11,3.25c-0.21.83-.83,2.87,0.49,3.07a0.25,0.25,0,0,0,.27-0.36c-0.64-1.13-1.26-2.26-1.89-3.4a0.26,0.26,0,0,0-.47.13q-0.16,1.49-.31,3a18.37,18.37,0,0,0-.16,2.95,0.19,0.19,0,0,0,.37,0h0Z" fill="#0d0e14"/><path d="M109,106.43a0.7,0.7,0,0,1,.34.58,5.48,5.48,0,0,1-1.31.76c-0.09,0-.5-0.58-0.34-0.58A3.65,3.65,0,0,0,109,106.43Z" fill="#0d0e14"/><path d="M22.83,100.27a33.36,33.36,0,0,0,1.46,5q0.81,2.48,1.61,5l0.44,1.36a3.83,3.83,0,0,0,.53,1.38,0.27,0.27,0,0,0,.47-0.16A3.28,3.28,0,0,0,27,111.6l-0.41-1.21-0.83-2.47-1.65-5A19,19,0,0,0,23,100.19a0.12,0.12,0,0,0-.21.07h0Z" fill="#0d0e14"/><path d="M21.5,105.29a6.83,6.83,0,0,1,3.79-3.13c0.47-.16,1.69-0.45,1.77.35a2.5,2.5,0,0,1-.32,1.17,11.16,11.16,0,0,1-.59,1.16,14.24,14.24,0,0,1-1.89,2.51,0.41,0.41,0,0,0,.35.7,13.78,13.78,0,0,1,2.85-.12,3.44,3.44,0,0,1,2.22.9c1.22,1.33-.82,3-1.76,3.76a9.76,9.76,0,0,0-2.13,2.1,0.31,0.31,0,0,0,.51.34,15.5,15.5,0,0,1,2.23-1.93,7,7,0,0,0,1.95-2.1,2.27,2.27,0,0,0-.07-2.44A3.72,3.72,0,0,0,28,107.25a13.2,13.2,0,0,0-3.59,0L24.8,108a13.66,13.66,0,0,0,2-2.62,12.77,12.77,0,0,0,.7-1.38,3.22,3.22,0,0,0,.35-1.46c-0.07-1.11-1.2-1.38-2.11-1.2a6.63,6.63,0,0,0-2.66,1.33,6.55,6.55,0,0,0-2,2.47,0.23,0.23,0,0,0,.41.21h0v-0.06Z" fill="#0d0e14"/><path d="M34.42,109.87a28,28,0,0,1,.31-2.95c0.1-.95.2-2,0.3-3l-0.47.13c0.64,1.13,1.28,2.26,1.91,3.39l0.27-.36c-0.69-.11-0.4-1.08-0.32-1.56a10.42,10.42,0,0,1,.28-1.23,4.87,4.87,0,0,1,1.78-2.61l-0.31-.4a2.33,2.33,0,0,0-1,2.35,2,2,0,0,0,1.51,1.73,0.27,0.27,0,0,0,.32-0.18,3.1,3.1,0,0,0-.39-2.45A1.83,1.83,0,0,1,38.4,102a0.19,0.19,0,0,1,.25-0.22,0.64,0.64,0,0,1,.22.39,1.83,1.83,0,0,0,.45,1,0.88,0.88,0,0,0,1.33-.5,6.86,6.86,0,0,0,.58-2.81l-0.53.07c0.35,1,1,2,2.21,1.66s1.71-1.79,2-2.88a10,10,0,0,0,.25-4,9.58,9.58,0,0,0-.52-2.05,1.12,1.12,0,0,0-.87-0.94,0.27,0.27,0,0,0-.26.2,3.59,3.59,0,0,0,.28,2.29,19.06,19.06,0,0,0,.87,2.25,12.57,12.57,0,0,0,2.77,4.15,0.19,0.19,0,0,0,.3-0.23c-0.79-1.29-1.72-2.47-2.4-3.84a17.92,17.92,0,0,1-.91-2.17A3.75,3.75,0,0,1,44,92l-0.26.19c0.32,0,.54,1.07.61,1.33A9.33,9.33,0,0,1,44.52,98a5.35,5.35,0,0,1-1.15,2.68A1.19,1.19,0,0,1,42,101a2.18,2.18,0,0,1-.75-1.21,0.27,0.27,0,0,0-.53.07,7.21,7.21,0,0,1-.19,1.58,2.46,2.46,0,0,1-.48,1.24,0.38,0.38,0,0,1-.49-0.12,1.09,1.09,0,0,1-.11-0.4,1.9,1.9,0,0,0-.16-0.52,0.89,0.89,0,0,0-.64-0.45,0.77,0.77,0,0,0-.69,1.09c0.21,0.94,1,1.79.61,2.79l0.32-.18a1.5,1.5,0,0,1-1.15-1.36,1.85,1.85,0,0,1,.83-1.86,0.26,0.26,0,0,0-.31-0.4,5.53,5.53,0,0,0-2.11,3.25c-0.21.83-.83,2.87,0.49,3.07a0.25,0.25,0,0,0,.27-0.36c-0.64-1.13-1.26-2.26-1.89-3.4a0.26,0.26,0,0,0-.47.13q-0.16,1.49-.31,3a18.37,18.37,0,0,0-.16,2.95,0.19,0.19,0,0,0,.37,0h0Z" fill="#0d0e14"/><path d="M32.75,106.3a0.7,0.7,0,0,1,.34.58,5.48,5.48,0,0,1-1.31.76c-0.09,0-.5-0.58-0.34-0.58A3.65,3.65,0,0,0,32.75,106.3Z" fill="#0d0e14"/><path d="M21.13,33.91a33.36,33.36,0,0,0,1.46,5q0.81,2.48,1.61,5l0.44,1.36a3.83,3.83,0,0,0,.53,1.38,0.27,0.27,0,0,0,.47-0.16,3.28,3.28,0,0,0-.33-1.25L24.89,44l-0.83-2.5-1.65-5a19,19,0,0,0-1.07-2.72,0.12,0.12,0,0,0-.21.07h0v0.06Z" fill="#0d0e14"/><path d="M19.8,38.93a6.83,6.83,0,0,1,3.79-3.13c0.47-.16,1.69-0.45,1.77.35A2.5,2.5,0,0,1,25,37.33a11.16,11.16,0,0,1-.59,1.16A14.24,14.24,0,0,1,22.56,41a0.41,0.41,0,0,0,.35.7,13.78,13.78,0,0,1,2.85-.12,3.44,3.44,0,0,1,2.22.9c1.22,1.33-.82,3-1.76,3.76a9.76,9.76,0,0,0-2.13,2.1,0.31,0.31,0,0,0,.51.34,15.5,15.5,0,0,1,2.23-1.93,7,7,0,0,0,1.93-2.14,2.27,2.27,0,0,0-.07-2.44,3.72,3.72,0,0,0-2.36-1.27,13.2,13.2,0,0,0-3.59,0l0.35,0.7a13.66,13.66,0,0,0,2-2.62,12.77,12.77,0,0,0,.7-1.38,3.22,3.22,0,0,0,.35-1.46c-0.07-1.11-1.2-1.38-2.11-1.2a6.63,6.63,0,0,0-2.66,1.33,6.55,6.55,0,0,0-2,2.47,0.23,0.23,0,1,0,.41.21h0Z" fill="#0d0e14"/><path d="M32.72,43.52a28,28,0,0,1,.31-3c0.1-1,.2-2,0.3-3l-0.47.13c0.64,1.13,1.28,2.26,1.91,3.39L35,40.74c-0.69-.11-0.4-1.08-0.32-1.56A10.42,10.42,0,0,1,35,38a4.87,4.87,0,0,1,1.78-2.61l-0.31-.4a2.33,2.33,0,0,0-1,2.35A2,2,0,0,0,37,39a0.27,0.27,0,0,0,.32-0.18,3.1,3.1,0,0,0-.39-2.45,1.83,1.83,0,0,1-.24-0.78,0.19,0.19,0,0,1,.25-0.22,0.64,0.64,0,0,1,.22.39,1.83,1.83,0,0,0,.45,1,0.88,0.88,0,0,0,1.33-.5,6.86,6.86,0,0,0,.58-2.81L39,33.56c0.35,1,1,2,2.21,1.66s1.71-1.79,2-2.88a10,10,0,0,0,.25-4,9.58,9.58,0,0,0-.52-2,1.12,1.12,0,0,0-.87-0.94,0.27,0.27,0,0,0-.26.2,3.59,3.59,0,0,0,.28,2.29A19.06,19.06,0,0,0,43,30.08a12.57,12.57,0,0,0,2.77,4.15A0.19,0.19,0,0,0,46,34c-0.79-1.29-1.72-2.47-2.4-3.84A17.92,17.92,0,0,1,42.71,28a3.75,3.75,0,0,1-.39-2.31l-0.26.19c0.32,0,.54,1.07.61,1.33a9.33,9.33,0,0,1,.15,4.45,5.35,5.35,0,0,1-1.15,2.68,1.19,1.19,0,0,1-1.41.28,2.18,2.18,0,0,1-.75-1.21,0.27,0.27,0,0,0-.53.07,7.21,7.21,0,0,1-.19,1.58,2.46,2.46,0,0,1-.48,1.24,0.38,0.38,0,0,1-.49-0.12,1.09,1.09,0,0,1-.11-0.4,1.9,1.9,0,0,0-.16-0.52,0.89,0.89,0,0,0-.64-0.45,0.77,0.77,0,0,0-.69,1.09c0.21,0.94,1,1.79.61,2.79l0.32-.18A1.5,1.5,0,0,1,36,37.15a1.85,1.85,0,0,1,.83-1.86,0.26,0.26,0,0,0-.31-0.4,5.53,5.53,0,0,0-2.11,3.25C34.2,39,33.58,41,34.9,41.21a0.25,0.25,0,0,0,.27-0.36c-0.64-1.13-1.26-2.26-1.89-3.4a0.26,0.26,0,0,0-.47.13q-0.16,1.49-.31,3a18.37,18.37,0,0,0-.16,3,0.19,0.19,0,0,0,.37,0h0Z" fill="#0d0e14"/><path d="M31,39.94a0.7,0.7,0,0,1,.34.58,5.48,5.48,0,0,1-1.31.76c-0.09,0-.5-0.58-0.34-0.58A3.65,3.65,0,0,0,31,39.94Z" fill="#0d0e14"/><path d="M47.54,74.57a33.36,33.36,0,0,0,1.46,5q0.81,2.48,1.61,5L51,85.87a3.83,3.83,0,0,0,.53,1.38A0.27,0.27,0,0,0,52,87.09a3.28,3.28,0,0,0-.33-1.25l-0.41-1.21-0.83-2.47-1.65-5a19,19,0,0,0-1.07-2.72,0.12,0.12,0,0,0-.21.07h0Z" fill="#0d0e14"/><path d="M46.22,79.59A6.83,6.83,0,0,1,50,76.46c0.47-.16,1.69-0.45,1.77.35A2.5,2.5,0,0,1,51.46,78a11.16,11.16,0,0,1-.59,1.16A14.24,14.24,0,0,1,49,81.65a0.41,0.41,0,0,0,.35.7,13.78,13.78,0,0,1,2.85-.12,3.44,3.44,0,0,1,2.22.9c1.22,1.33-.82,3-1.76,3.76A9.76,9.76,0,0,0,50.52,89a0.31,0.31,0,0,0,.51.34,15.5,15.5,0,0,1,2.23-1.93,7,7,0,0,0,1.93-2.14,2.27,2.27,0,0,0-.07-2.44,3.72,3.72,0,0,0-2.36-1.27,13.2,13.2,0,0,0-3.59,0l0.35,0.7a13.66,13.66,0,0,0,2-2.62,12.77,12.77,0,0,0,.7-1.38,3.22,3.22,0,0,0,.35-1.46c-0.07-1.11-1.2-1.38-2.11-1.2a6.63,6.63,0,0,0-2.66,1.33,6.55,6.55,0,0,0-2,2.47,0.23,0.23,0,0,0,.41.21h0v0Z" fill="#0d0e14"/><path d="M59.14,84.17a28,28,0,0,1,.31-2.95c0.1-.95.2-2,0.3-3l-0.47.13c0.64,1.13,1.28,2.26,1.91,3.39l0.27-.36c-0.69-.11-0.4-1.08-0.32-1.56a10.42,10.42,0,0,1,.28-1.23A4.87,4.87,0,0,1,63.19,76l-0.31-.4a2.33,2.33,0,0,0-1,2.35,2,2,0,0,0,1.51,1.73,0.27,0.27,0,0,0,.32-0.18,3.1,3.1,0,0,0-.36-2.5,1.83,1.83,0,0,1-.24-0.78A0.19,0.19,0,0,1,63.36,76a0.64,0.64,0,0,1,.22.39,1.83,1.83,0,0,0,.45,1,0.88,0.88,0,0,0,1.33-.5,6.86,6.86,0,0,0,.58-2.81l-0.53.07c0.35,1,1,2,2.21,1.66s1.71-1.79,2-2.88a10,10,0,0,0,.25-4,9.58,9.58,0,0,0-.52-2.05A1.12,1.12,0,0,0,68.48,66a0.27,0.27,0,0,0-.26.2,3.59,3.59,0,0,0,.28,2.29,19.06,19.06,0,0,0,.87,2.25,12.57,12.57,0,0,0,2.77,4.15,0.19,0.19,0,0,0,.3-0.23c-0.79-1.29-1.72-2.47-2.4-3.84a17.92,17.92,0,0,1-.91-2.17,3.75,3.75,0,0,1-.39-2.31l-0.26.19c0.32,0,.54,1.07.61,1.33a9.33,9.33,0,0,1,.15,4.45A5.35,5.35,0,0,1,68.08,75a1.19,1.19,0,0,1-1.41.28,2.18,2.18,0,0,1-.75-1.21,0.27,0.27,0,0,0-.53.07,7.21,7.21,0,0,1-.19,1.58A2.46,2.46,0,0,1,64.72,77a0.38,0.38,0,0,1-.49-0.12,1.09,1.09,0,0,1-.11-0.4A1.9,1.9,0,0,0,64,75.92a0.89,0.89,0,0,0-.64-0.45,0.77,0.77,0,0,0-.69,1.09c0.21,0.94,1,1.79.61,2.79l0.32-.18a1.5,1.5,0,0,1-1.15-1.36,1.85,1.85,0,0,1,.83-1.86,0.26,0.26,0,0,0-.31-0.4,5.53,5.53,0,0,0-2.11,3.25c-0.21.83-.83,2.87,0.49,3.07a0.25,0.25,0,0,0,.27-0.36c-0.64-1.13-1.26-2.26-1.89-3.4a0.26,0.26,0,0,0-.47.13q-0.16,1.49-.31,3a18.37,18.37,0,0,0-.16,2.95,0.19,0.19,0,0,0,.37,0h0Z" fill="#0d0e14"/><path d="M57.46,80.6a0.7,0.7,0,0,1,.34.58,5.48,5.48,0,0,1-1.31.76c-0.09,0-.5-0.58-0.34-0.58A3.65,3.65,0,0,0,57.46,80.6Z" fill="#0d0e14"/></svg>